<?xml version="1.0" encoding="UTF-8" standalone="no"?>
<!DOCTYPE svg PUBLIC "-//W3C//DTD SVG 1.1//EN"
 "http://www.w3.org/Graphics/SVG/1.1/DTD/svg11.dtd">
<!-- Generated by graphviz version 2.26.3 (20100126.1600)
 -->
<!-- Title: G Pages: 1 -->
<svg width="502pt" height="996pt"
 viewBox="0.00 0.00 502.00 996.00" xmlns="http://www.w3.org/2000/svg" xmlns:xlink="http://www.w3.org/1999/xlink">
<g id="graph1" class="graph" transform="scale(1 1) rotate(0) translate(4 992)">
<title>G</title>
<polygon fill="white" stroke="white" points="-4,5 -4,-992 499,-992 499,5 -4,5"/>
<!-- Thread16bda700 -->
<g id="node1" class="node"><title>Thread16bda700</title>
<polygon fill="none" stroke="black" points="134,-512 7.10543e-14,-512 0,-476 134,-476 134,-512"/>
<text text-anchor="middle" x="67" y="-490.4" font-family="Times Roman,serif" font-size="14.00">Thread16bda700</text>
</g>
<!-- Mutex602a40 -->
<g id="node3" class="node"><title>Mutex602a40</title>
<polygon fill="none" stroke="red" points="179.994,-147 48.0061,-147 1,-95 227,-95 179.994,-147"/>
<text text-anchor="middle" x="114" y="-117.4" font-family="Times Roman,serif" font-size="14.00">Mutex602a40</text>
</g>
<!-- Thread16bda700&#45;&gt;Mutex602a40 -->
<g id="edge2" class="edge"><title>Thread16bda700&#45;&gt;Mutex602a40</title>
<path fill="none" stroke="black" d="M69.2987,-475.757C76.63,-417.575 99.5523,-235.659 109.414,-157.396"/>
<polygon fill="black" stroke="black" points="112.938,-157.424 110.716,-147.064 105.993,-156.548 112.938,-157.424"/>
</g>
<!-- Cond602a80 -->
<g id="node4" class="node"><title>Cond602a80</title>
<polygon fill="none" stroke="black" points="493.859,-893 320.689,-893 276.141,-841 449.311,-841 493.859,-893"/>
<text text-anchor="middle" x="385" y="-863.4" font-family="Times Roman,serif" font-size="14.00">Cond602a80</text>
</g>
<!-- Thread169d8700 -->
<g id="node5" class="node"><title>Thread169d8700</title>
<polygon fill="none" stroke="black" points="326,-512 190,-512 190,-476 326,-476 326,-512"/>
<text text-anchor="middle" x="258" y="-490.4" font-family="Times Roman,serif" font-size="14.00">Thread169d8700</text>
</g>
<!-- Thread167d72e0 -->
<g id="node6" class="node"><title>Thread167d72e0</title>
<ellipse fill="none" stroke="black" cx="162" cy="-867" rx="96.1665" ry="18.3848"/>
<text text-anchor="middle" x="162" y="-863.4" font-family="Times Roman,serif" font-size="14.00">Thread167d72e0</text>
</g>
<!-- Thread167d72e0&#45;&gt;Thread16bda700 -->
<g id="edge4" class="edge"><title>Thread167d72e0&#45;&gt;Thread16bda700</title>
<path fill="none" stroke="black" d="M157.289,-848.503C141.838,-787.836 92.6319,-594.639 74.1272,-521.984"/>
<polygon fill="black" stroke="black" points="77.4874,-520.996 71.6275,-512.169 70.704,-522.723 77.4874,-520.996"/>
</g>
<!-- Thread167d72e0&#45;&gt;Mutex602a40 -->
<g id="edge6" class="edge"><title>Thread167d72e0&#45;&gt;Mutex602a40</title>
<path fill="none" stroke="lightgray" d="M161.309,-848.267C159.184,-791.928 152.319,-619.097 143,-476 135.406,-359.387 123.22,-221.488 117.361,-157.276"/>
<polygon fill="lightgray" stroke="lightgray" points="120.84,-156.893 116.443,-147.254 113.869,-157.532 120.84,-156.893"/>
</g>
<!-- Thread167d72e0&#45;&gt;Thread169d8700 -->
<g id="edge8" class="edge"><title>Thread167d72e0&#45;&gt;Thread169d8700</title>
<path fill="none" stroke="black" d="M166.761,-848.503C182.375,-787.836 232.098,-594.639 250.798,-521.984"/>
<polygon fill="black" stroke="black" points="254.221,-522.726 253.324,-512.169 247.442,-520.981 254.221,-522.726"/>
</g>
</g>
</svg>
