<?xml version="1.0" encoding="UTF-8" standalone="no"?>
<!DOCTYPE svg PUBLIC "-//W3C//DTD SVG 1.1//EN"
 "http://www.w3.org/Graphics/SVG/1.1/DTD/svg11.dtd">
<!-- Generated by graphviz version 2.26.3 (20100126.1600)
 -->
<!-- Title: G Pages: 1 -->
<svg width="738pt" height="738pt"
 viewBox="0.00 0.00 738.00 738.00" xmlns="http://www.w3.org/2000/svg" xmlns:xlink="http://www.w3.org/1999/xlink">
<g id="graph1" class="graph" transform="scale(1 1) rotate(0) translate(4 734)">
<title>G</title>
<polygon fill="white" stroke="white" points="-4,5 -4,-734 735,-734 735,5 -4,5"/>
<!-- Threada775700 -->
<g id="node1" class="node"><title>Threada775700</title>
<ellipse fill="none" stroke="black" cx="117" cy="-170" rx="116.88" ry="29.6985"/>
<text text-anchor="middle" x="117" y="-174.4" font-family="Times Roman,serif" font-size="14.00">Threada775700</text>
<text text-anchor="middle" x="117" y="-157.4" font-family="Times Roman,serif" font-size="14.00">handle_requests_loop</text>
</g>
<!-- Threada5742e0 -->
<g id="node2" class="node"><title>Threada5742e0</title>
<ellipse fill="none" stroke="black" cx="373" cy="-608" rx="89.8026" ry="29.6985"/>
<text text-anchor="middle" x="373" y="-612.4" font-family="Times Roman,serif" font-size="14.00">Threada5742e0</text>
<text text-anchor="middle" x="373" y="-595.4" font-family="Times Roman,serif" font-size="14.00">{root}</text>
</g>
<!-- Threada5742e0&#45;&gt;Threada775700 -->
<g id="edge6" class="edge"><title>Threada5742e0&#45;&gt;Threada775700</title>
<path fill="none" stroke="black" stroke-width="3" stroke-dasharray="1,5" d="M356.005,-578.922C311.137,-502.156 189.508,-294.057 139.221,-208.019"/>
<polygon fill="black" stroke="black" points="134.157,-199.354 143.088,-205.717 137.543,-203.167 140.066,-207.483 139.203,-207.988 138.34,-208.493 135.817,-204.176 135.318,-210.259 134.157,-199.354 134.157,-199.354"/>
</g>
<!-- Mutex602ae0 -->
<g id="node4" class="node"><title>Mutex602ae0</title>
<polygon fill="none" stroke="black" points="443.666,-212 302.334,-212 252,-128 494,-128 443.666,-212"/>
<text text-anchor="middle" x="373" y="-174.4" font-family="Times Roman,serif" font-size="14.00">Mutex602ae0</text>
<text text-anchor="middle" x="373" y="-157.4" font-family="Times Roman,serif" font-size="14.00">request_mutex</text>
</g>
<!-- Threada5742e0&#45;&gt;Mutex602ae0 -->
<g id="edge2" class="edge"><title>Threada5742e0&#45;&gt;Mutex602ae0</title>
<path fill="none" stroke="black" stroke-width="3" stroke-dasharray="1,5" d="M369.386,-578.239C365.551,-504.932 365.233,-314.911 368.434,-222.291"/>
<polygon fill="black" stroke="black" points="368.809,-212.296 372.931,-222.458 369.621,-217.33 369.433,-222.327 368.434,-222.289 367.435,-222.252 367.622,-217.255 363.937,-222.121 368.809,-212.296 368.809,-212.296"/>
</g>
<!-- Threada5742e0&#45;&gt;Mutex602ae0 -->
<g id="edge8" class="edge"><title>Threada5742e0&#45;&gt;Mutex602ae0</title>
<path fill="none" stroke="red" stroke-width="3" d="M376.614,-578.239C380.449,-504.932 380.767,-314.911 377.566,-222.291"/>
<polygon fill="red" stroke="red" points="381.063,-222.158 377.191,-212.296 374.068,-222.421 381.063,-222.158"/>
</g>
<!-- Cond602b20 -->
<g id="node6" class="node"><title>Cond602b20</title>
<polygon fill="none" stroke="black" points="729.859,-212 556.689,-212 512.141,-128 685.311,-128 729.859,-212"/>
<text text-anchor="middle" x="621" y="-174.4" font-family="Times Roman,serif" font-size="14.00">Cond602b20</text>
<text text-anchor="middle" x="621" y="-157.4" font-family="Times Roman,serif" font-size="14.00">got_request</text>
</g>
<!-- Threada5742e0&#45;&gt;Cond602b20 -->
<g id="edge4" class="edge"><title>Threada5742e0&#45;&gt;Cond602b20</title>
<path fill="none" stroke="black" stroke-width="3" stroke-dasharray="1,5" d="M389.464,-578.922C430.872,-505.791 539.765,-313.472 592.103,-221.037"/>
<polygon fill="black" stroke="black" points="597.138,-212.143 596.127,-223.062 595.545,-216.987 593.081,-221.338 592.211,-220.845 591.341,-220.352 593.805,-216.001 588.295,-218.628 597.138,-212.143 597.138,-212.143"/>
</g>
</g>
</svg>
