<?xml version="1.0" encoding="UTF-8" standalone="no"?>
<!DOCTYPE svg PUBLIC "-//W3C//DTD SVG 1.1//EN"
 "http://www.w3.org/Graphics/SVG/1.1/DTD/svg11.dtd">
<!-- Generated by graphviz version 2.26.3 (20100126.1600)
 -->
<!-- Title: G Pages: 1 -->
<svg width="552pt" height="1096pt"
 viewBox="0.00 0.00 552.00 1096.00" xmlns="http://www.w3.org/2000/svg" xmlns:xlink="http://www.w3.org/1999/xlink">
<g id="graph1" class="graph" transform="scale(1 1) rotate(0) translate(4 1092)">
<title>G</title>
<polygon fill="white" stroke="white" points="-4,5 -4,-1092 549,-1092 549,5 -4,5"/>
<!-- Mutex602a40 -->
<g id="node1" class="node"><title>Mutex602a40</title>
<polygon fill="none" stroke="red" points="178.994,-228 47.0061,-228 4.26326e-14,-176 226,-176 178.994,-228"/>
<text text-anchor="middle" x="113" y="-198.4" font-family="Times Roman,serif" font-size="14.00">Mutex602a40</text>
</g>
<!-- Cond602a80 -->
<g id="node2" class="node"><title>Cond602a80</title>
<polygon fill="none" stroke="black" points="543.859,-912 370.689,-912 326.141,-860 499.311,-860 543.859,-912"/>
<text text-anchor="middle" x="435" y="-882.4" font-family="Times Roman,serif" font-size="14.00">Cond602a80</text>
</g>
<!-- Thread169d8700 -->
<g id="node3" class="node"><title>Thread169d8700</title>
<polygon fill="none" stroke="black" points="380,-220 244,-220 244,-184 380,-184 380,-220"/>
<text text-anchor="middle" x="312" y="-198.4" font-family="Times Roman,serif" font-size="14.00">Thread169d8700</text>
</g>
<!-- Thread167d72e0 -->
<g id="node4" class="node"><title>Thread167d72e0</title>
<ellipse fill="none" stroke="black" cx="212" cy="-886" rx="96.1665" ry="18.3848"/>
<text text-anchor="middle" x="212" y="-882.4" font-family="Times Roman,serif" font-size="14.00">Thread167d72e0</text>
</g>
<!-- Thread167d72e0&#45;&gt;Mutex602a40 -->
<g id="edge2" class="edge"><title>Thread167d72e0&#45;&gt;Mutex602a40</title>
<path fill="none" stroke="black" d="M209.301,-867.35C195.901,-774.768 136.45,-364.018 118.288,-238.534"/>
<polygon fill="black" stroke="black" points="121.704,-237.7 116.807,-228.304 114.776,-238.702 121.704,-237.7"/>
</g>
<!-- Thread167d72e0&#45;&gt;Thread169d8700 -->
<g id="edge4" class="edge"><title>Thread167d72e0&#45;&gt;Thread169d8700</title>
<path fill="none" stroke="black" d="M214.727,-867.35C228.57,-772.662 291.07,-345.164 307.845,-230.42"/>
<polygon fill="black" stroke="black" points="311.339,-230.715 309.323,-220.314 304.413,-229.702 311.339,-230.715"/>
</g>
</g>
</svg>
