<?xml version="1.0" encoding="UTF-8" standalone="no"?>
<!DOCTYPE svg PUBLIC "-//W3C//DTD SVG 1.1//EN"
 "http://www.w3.org/Graphics/SVG/1.1/DTD/svg11.dtd">
<!-- Generated by graphviz version 2.26.3 (20100126.1600)
 -->
<!-- Title: G Pages: 1 -->
<svg width="890pt" height="1772pt"
 viewBox="0.00 0.00 890.00 1772.00" xmlns="http://www.w3.org/2000/svg" xmlns:xlink="http://www.w3.org/1999/xlink">
<g id="graph1" class="graph" transform="scale(1 1) rotate(0) translate(4 1768)">
<title>G</title>
<polygon fill="white" stroke="white" points="-4,5 -4,-1768 887,-1768 887,5 -4,5"/>
<!-- Thread16bda700 -->
<g id="node1" class="node"><title>Thread16bda700</title>
<ellipse fill="none" stroke="black" cx="95" cy="-364" rx="94.9596" ry="18.3848"/>
<text text-anchor="middle" x="95" y="-360.4" font-family="Times Roman,serif" font-size="14.00">Thread16bda700</text>
</g>
<!-- Mutex602a40 -->
<g id="node2" class="node"><title>Mutex602a40</title>
<polygon fill="none" stroke="black" points="386.994,-390 255.006,-390 208,-338 434,-338 386.994,-390"/>
<text text-anchor="middle" x="321" y="-360.4" font-family="Times Roman,serif" font-size="14.00">Mutex602a40</text>
</g>
<!-- Cond602a80 -->
<g id="node3" class="node"><title>Cond602a80</title>
<polygon fill="none" stroke="black" points="669.859,-390 496.689,-390 452.141,-338 625.311,-338 669.859,-390"/>
<text text-anchor="middle" x="561" y="-360.4" font-family="Times Roman,serif" font-size="14.00">Cond602a80</text>
</g>
<!-- Thread169d8700 -->
<g id="node4" class="node"><title>Thread169d8700</title>
<ellipse fill="none" stroke="black" cx="785" cy="-364" rx="96.8736" ry="18.3848"/>
<text text-anchor="middle" x="785" y="-360.4" font-family="Times Roman,serif" font-size="14.00">Thread169d8700</text>
</g>
<!-- Thread167d72e0 -->
<g id="node5" class="node"><title>Thread167d72e0</title>
<ellipse fill="none" stroke="black" cx="441" cy="-1498" rx="96.1665" ry="18.3848"/>
<text text-anchor="middle" x="441" y="-1494.4" font-family="Times Roman,serif" font-size="14.00">Thread167d72e0</text>
</g>
<!-- Thread167d72e0&#45;&gt;Thread16bda700 -->
<g id="edge2" class="edge"><title>Thread167d72e0&#45;&gt;Thread16bda700</title>
<path fill="none" stroke="black" d="M435.283,-1479.26C394.874,-1346.82 152.503,-552.464 103.597,-392.178"/>
<polygon fill="black" stroke="black" points="106.926,-391.094 100.66,-382.551 100.231,-393.137 106.926,-391.094"/>
</g>
<!-- Thread167d72e0&#45;&gt;Mutex602a40 -->
<g id="edge4" class="edge"><title>Thread167d72e0&#45;&gt;Mutex602a40</title>
<path fill="none" stroke="green" d="M437.963,-1469.3C421.165,-1310.56 339.806,-541.718 323.754,-390.024"/>
<polygon fill="green" stroke="green" points="434.484,-1469.69 439.017,-1479.26 441.445,-1468.95 434.484,-1469.69"/>
</g>
<!-- Thread167d72e0&#45;&gt;Cond602a80 -->
<g id="edge6" class="edge"><title>Thread167d72e0&#45;&gt;Cond602a80</title>
<path fill="none" stroke="lightgray" stroke-dasharray="1,5" d="M442.983,-1479.26C456.779,-1348.88 538.459,-577.008 557.179,-400.11"/>
<polygon fill="lightgray" stroke="lightgray" points="560.674,-400.337 558.246,-390.024 553.713,-399.6 560.674,-400.337"/>
</g>
<!-- Thread167d72e0&#45;&gt;Thread169d8700 -->
<g id="edge8" class="edge"><title>Thread167d72e0&#45;&gt;Thread169d8700</title>
<path fill="none" stroke="black" d="M446.684,-1479.26C486.859,-1346.82 727.829,-552.464 776.452,-392.178"/>
<polygon fill="black" stroke="black" points="779.819,-393.136 779.373,-382.551 773.12,-391.104 779.819,-393.136"/>
</g>
</g>
</svg>
