<?xml version="1.0" encoding="UTF-8" standalone="no"?>
<!DOCTYPE svg PUBLIC "-//W3C//DTD SVG 1.1//EN"
 "http://www.w3.org/Graphics/SVG/1.1/DTD/svg11.dtd">
<!-- Generated by graphviz version 2.26.3 (20100126.1600)
 -->
<!-- Title: G Pages: 1 -->
<svg width="716pt" height="716pt"
 viewBox="0.00 0.00 716.00 716.00" xmlns="http://www.w3.org/2000/svg" xmlns:xlink="http://www.w3.org/1999/xlink">
<g id="graph1" class="graph" transform="scale(1 1) rotate(0) translate(4 712)">
<title>G</title>
<polygon fill="white" stroke="white" points="-4,5 -4,-712 713,-712 713,5 -4,5"/>
<!-- Mutex602a40 -->
<g id="node1" class="node"><title>Mutex602a40</title>
<polygon fill="none" stroke="black" points="191.666,-585 50.334,-585 4.26326e-14,-501 242,-501 191.666,-585"/>
<text text-anchor="middle" x="121" y="-547.4" font-family="Times Roman,serif" font-size="14.00">Mutex602a40</text>
<text text-anchor="middle" x="121" y="-530.4" font-family="Times Roman,serif" font-size="14.00">request_mutex</text>
</g>
<!-- Cond602a80 -->
<g id="node2" class="node"><title>Cond602a80</title>
<polygon fill="none" stroke="black" points="477.859,-585 304.689,-585 260.141,-501 433.311,-501 477.859,-585"/>
<text text-anchor="middle" x="369" y="-547.4" font-family="Times Roman,serif" font-size="14.00">Cond602a80</text>
<text text-anchor="middle" x="369" y="-530.4" font-family="Times Roman,serif" font-size="14.00">got_request</text>
</g>
<!-- Thread7ae662e0 -->
<g id="node3" class="node"><title>Thread7ae662e0</title>
<ellipse fill="none" stroke="black" cx="591" cy="-543" rx="94.9596" ry="29.6985"/>
<text text-anchor="middle" x="591" y="-547.4" font-family="Times Roman,serif" font-size="14.00">Thread7ae662e0</text>
<text text-anchor="middle" x="591" y="-530.4" font-family="Times Roman,serif" font-size="14.00">{root}</text>
</g>
<!-- Thread7b067700 -->
<g id="node5" class="node"><title>Thread7b067700</title>
<ellipse fill="none" stroke="black" cx="591" cy="-118" rx="116.88" ry="29.6985"/>
<text text-anchor="middle" x="591" y="-122.4" font-family="Times Roman,serif" font-size="14.00">Thread7b067700</text>
<text text-anchor="middle" x="591" y="-105.4" font-family="Times Roman,serif" font-size="14.00">handle_requests_loop</text>
</g>
<!-- Thread7ae662e0&#45;&gt;Thread7b067700 -->
<g id="edge2" class="edge"><title>Thread7ae662e0&#45;&gt;Thread7b067700</title>
<path fill="none" stroke="black" stroke-width="2" d="M591,-513.452C591,-438.806 591,-242.578 591,-157.873"/>
<polygon fill="black" stroke="black" points="594.5,-157.634 591,-147.634 587.5,-157.634 594.5,-157.634"/>
</g>
</g>
</svg>
