<?xml version="1.0" encoding="UTF-8" standalone="no"?>
<!DOCTYPE svg PUBLIC "-//W3C//DTD SVG 1.1//EN"
 "http://www.w3.org/Graphics/SVG/1.1/DTD/svg11.dtd">
<!-- Generated by graphviz version 2.26.3 (20100126.1600)
 -->
<!-- Title: G Pages: 1 -->
<svg width="567pt" height="1126pt"
 viewBox="0.00 0.00 567.00 1126.00" xmlns="http://www.w3.org/2000/svg" xmlns:xlink="http://www.w3.org/1999/xlink">
<g id="graph1" class="graph" transform="scale(1 1) rotate(0) translate(4 1122)">
<title>G</title>
<polygon fill="white" stroke="white" points="-4,5 -4,-1122 564,-1122 564,5 -4,5"/>
<!-- Mutex602a40 -->
<g id="node1" class="node"><title>Mutex602a40</title>
<polygon fill="none" stroke="black" points="178.994,-234 47.0061,-234 4.26326e-14,-182 226,-182 178.994,-234"/>
<text text-anchor="middle" x="113" y="-204.4" font-family="Times Roman,serif" font-size="14.00">Mutex602a40</text>
</g>
<!-- Cond602a80 -->
<g id="node2" class="node"><title>Cond602a80</title>
<polygon fill="none" stroke="black" points="558.859,-936 385.689,-936 341.141,-884 514.311,-884 558.859,-936"/>
<text text-anchor="middle" x="450" y="-906.4" font-family="Times Roman,serif" font-size="14.00">Cond602a80</text>
</g>
<!-- Thread169d8700 -->
<g id="node3" class="node"><title>Thread169d8700</title>
<ellipse fill="none" stroke="black" cx="341" cy="-208" rx="96.8736" ry="18.3848"/>
<text text-anchor="middle" x="341" y="-204.4" font-family="Times Roman,serif" font-size="14.00">Thread169d8700</text>
</g>
<!-- Thread167d72e0 -->
<g id="node4" class="node"><title>Thread167d72e0</title>
<ellipse fill="none" stroke="black" cx="227" cy="-910" rx="96.1665" ry="18.3848"/>
<text text-anchor="middle" x="227" y="-906.4" font-family="Times Roman,serif" font-size="14.00">Thread167d72e0</text>
</g>
<!-- Thread167d72e0&#45;&gt;Mutex602a40 -->
<g id="edge2" class="edge"><title>Thread167d72e0&#45;&gt;Mutex602a40</title>
<path fill="none" stroke="green" d="M222.308,-881.105C203.682,-766.41 135.114,-344.174 117.268,-234.284"/>
<polygon fill="green" stroke="green" points="218.893,-881.914 223.951,-891.223 225.803,-880.791 218.893,-881.914"/>
</g>
<!-- Thread167d72e0&#45;&gt;Thread169d8700 -->
<g id="edge4" class="edge"><title>Thread167d72e0&#45;&gt;Thread169d8700</title>
<path fill="none" stroke="black" d="M230.049,-891.223C245.741,-794.594 317.392,-353.378 336.374,-236.488"/>
<polygon fill="black" stroke="black" points="339.846,-236.94 337.994,-226.509 332.937,-235.818 339.846,-236.94"/>
</g>
</g>
</svg>
