<?xml version="1.0" encoding="UTF-8" standalone="no"?>
<!DOCTYPE svg PUBLIC "-//W3C//DTD SVG 1.1//EN"
 "http://www.w3.org/Graphics/SVG/1.1/DTD/svg11.dtd">
<!-- Generated by graphviz version 2.26.3 (20100126.1600)
 -->
<!-- Title: G Pages: 1 -->
<svg width="751pt" height="730pt"
 viewBox="0.00 0.00 751.42 730.00" xmlns="http://www.w3.org/2000/svg" xmlns:xlink="http://www.w3.org/1999/xlink">
<g id="graph1" class="graph" transform="scale(1 1) rotate(0) translate(4 726)">
<title>G</title>
<polygon fill="white" stroke="white" points="-4,5 -4,-726 748.422,-726 748.422,5 -4,5"/>
<!-- Mutex602a40 -->
<g id="node1" class="node"><title>Mutex602a40</title>
<polygon fill="none" stroke="black" points="254.088,-143 112.756,-143 62.4217,-59 304.422,-59 254.088,-143"/>
<text text-anchor="middle" x="183.422" y="-105.4" font-family="Times Roman,serif" font-size="14.00">Mutex602a40</text>
<text text-anchor="middle" x="183.422" y="-88.4" font-family="Times Roman,serif" font-size="14.00">request_mutex</text>
</g>
<!-- Cond602a80 -->
<g id="node2" class="node"><title>Cond602a80</title>
<polygon fill="none" stroke="black" points="239.281,-432 66.1103,-432 21.5626,-348 194.733,-348 239.281,-432"/>
<text text-anchor="middle" x="130.422" y="-394.4" font-family="Times Roman,serif" font-size="14.00">Cond602a80</text>
<text text-anchor="middle" x="130.422" y="-377.4" font-family="Times Roman,serif" font-size="14.00">got_request</text>
</g>
<!-- Thread7ae662e0 -->
<g id="node3" class="node"><title>Thread7ae662e0</title>
<ellipse fill="none" stroke="black" cx="252.422" cy="-650" rx="94.9596" ry="29.6985"/>
<text text-anchor="middle" x="252.422" y="-654.4" font-family="Times Roman,serif" font-size="14.00">Thread7ae662e0</text>
<text text-anchor="middle" x="252.422" y="-637.4" font-family="Times Roman,serif" font-size="14.00">{root}</text>
</g>
<!-- Thread7ae662e0&#45;&gt;Mutex602a40 -->
<g id="edge2" class="edge"><title>Thread7ae662e0&#45;&gt;Mutex602a40</title>
<path fill="none" stroke="red" stroke-width="2" d="M205.525,-624.194C147.583,-589.299 51.836,-521.048 12.4217,-432 -32.9521,-329.488 61.495,-214.062 127.234,-150.198"/>
<polygon fill="red" stroke="red" points="129.898,-152.493 134.698,-143.047 125.056,-147.438 129.898,-152.493"/>
</g>
<!-- Thread7ae662e0&#45;&gt;Cond602a80 -->
<g id="edge4" class="edge"><title>Thread7ae662e0&#45;&gt;Cond602a80</title>
<path fill="none" stroke="lightgray" stroke-width="2" stroke-dasharray="1,5" d="M238.664,-620.68C218.265,-577.207 179.704,-495.029 154.544,-441.408"/>
<polygon fill="lightgray" stroke="lightgray" points="157.58,-439.639 150.163,-432.073 151.243,-442.612 157.58,-439.639"/>
</g>
<!-- Thread7b269700 -->
<g id="node7" class="node"><title>Thread7b269700</title>
<ellipse fill="none" stroke="black" cx="374.422" cy="-390" rx="116.88" ry="29.6985"/>
<text text-anchor="middle" x="374.422" y="-394.4" font-family="Times Roman,serif" font-size="14.00">Thread7b269700</text>
<text text-anchor="middle" x="374.422" y="-377.4" font-family="Times Roman,serif" font-size="14.00">handle_requests_loop</text>
</g>
<!-- Thread7ae662e0&#45;&gt;Thread7b269700 -->
<g id="edge6" class="edge"><title>Thread7ae662e0&#45;&gt;Thread7b269700</title>
<path fill="none" stroke="black" stroke-width="2" d="M266.179,-620.68C288.238,-573.671 331.531,-481.405 356.156,-428.928"/>
<polygon fill="black" stroke="black" points="359.448,-430.151 360.527,-419.612 353.11,-427.178 359.448,-430.151"/>
</g>
<!-- Thread7b067700 -->
<g id="node9" class="node"><title>Thread7b067700</title>
<ellipse fill="none" stroke="black" cx="626.422" cy="-390" rx="116.88" ry="29.6985"/>
<text text-anchor="middle" x="626.422" y="-394.4" font-family="Times Roman,serif" font-size="14.00">Thread7b067700</text>
<text text-anchor="middle" x="626.422" y="-377.4" font-family="Times Roman,serif" font-size="14.00">handle_requests_loop</text>
</g>
<!-- Thread7ae662e0&#45;&gt;Thread7b067700 -->
<g id="edge8" class="edge"><title>Thread7ae662e0&#45;&gt;Thread7b067700</title>
<path fill="none" stroke="black" stroke-width="2" d="M291.388,-622.911C360.205,-575.071 503.058,-475.761 578.055,-423.624"/>
<polygon fill="black" stroke="black" points="580.202,-426.394 586.415,-417.812 576.206,-420.646 580.202,-426.394"/>
</g>
<!-- Thread7b269700&#45;&gt;Mutex602a40 -->
<g id="edge10" class="edge"><title>Thread7b269700&#45;&gt;Mutex602a40</title>
<path fill="none" stroke="lightgray" stroke-width="2" d="M355.056,-360.699C322.696,-311.734 257.237,-212.689 217.169,-152.063"/>
<polygon fill="lightgray" stroke="lightgray" points="219.883,-149.821 211.449,-143.408 214.043,-153.68 219.883,-149.821"/>
</g>
</g>
</svg>
