<?xml version="1.0" encoding="UTF-8" standalone="no"?>
<!DOCTYPE svg PUBLIC "-//W3C//DTD SVG 1.1//EN"
 "http://www.w3.org/Graphics/SVG/1.1/DTD/svg11.dtd">
<!-- Generated by graphviz version 2.26.3 (20100126.1600)
 -->
<!-- Title: G Pages: 1 -->
<svg width="486pt" height="486pt"
 viewBox="0.00 0.00 486.00 486.00" xmlns="http://www.w3.org/2000/svg" xmlns:xlink="http://www.w3.org/1999/xlink">
<g id="graph1" class="graph" transform="scale(1 1) rotate(0) translate(4 482)">
<title>G</title>
<polygon fill="white" stroke="white" points="-4,5 -4,-482 483,-482 483,5 -4,5"/>
<!-- Threadb3b132e0 -->
<g id="node1" class="node"><title>Threadb3b132e0</title>
<ellipse fill="none" stroke="black" cx="245" cy="-398" rx="94.9596" ry="29.6985"/>
<text text-anchor="middle" x="245" y="-402.4" font-family="Times Roman,serif" font-size="14.00">Threadb3b132e0</text>
<text text-anchor="middle" x="245" y="-385.4" font-family="Times Roman,serif" font-size="14.00">{root}</text>
</g>
<!-- Mutex602ae0 -->
<g id="node3" class="node"><title>Mutex602ae0</title>
<polygon fill="none" stroke="black" points="191.666,-154 50.334,-154 4.26326e-14,-70 242,-70 191.666,-154"/>
<text text-anchor="middle" x="121" y="-116.4" font-family="Times Roman,serif" font-size="14.00">Mutex602ae0</text>
<text text-anchor="middle" x="121" y="-99.4" font-family="Times Roman,serif" font-size="14.00">request_mutex</text>
</g>
<!-- Threadb3b132e0&#45;&gt;Mutex602ae0 -->
<g id="edge2" class="edge"><title>Threadb3b132e0&#45;&gt;Mutex602ae0</title>
<path fill="none" stroke="black" stroke-width="3" stroke-dasharray="1,5" d="M232.313,-368.737C211.396,-320.493 169.406,-223.645 143.4,-163.665"/>
<polygon fill="black" stroke="black" points="146.558,-162.151 139.369,-154.368 140.136,-164.935 146.558,-162.151"/>
</g>
<!-- Cond602b20 -->
<g id="node5" class="node"><title>Cond602b20</title>
<polygon fill="none" stroke="black" points="477.859,-154 304.689,-154 260.141,-70 433.311,-70 477.859,-154"/>
<text text-anchor="middle" x="369" y="-116.4" font-family="Times Roman,serif" font-size="14.00">Cond602b20</text>
<text text-anchor="middle" x="369" y="-99.4" font-family="Times Roman,serif" font-size="14.00">got_request</text>
</g>
<!-- Threadb3b132e0&#45;&gt;Cond602b20 -->
<g id="edge4" class="edge"><title>Threadb3b132e0&#45;&gt;Cond602b20</title>
<path fill="none" stroke="black" stroke-width="3" stroke-dasharray="1,5" d="M257.687,-368.737C278.604,-320.493 320.594,-223.645 346.6,-163.665"/>
<polygon fill="black" stroke="black" points="349.864,-164.935 350.631,-154.368 343.442,-162.151 349.864,-164.935"/>
</g>
</g>
</svg>
