<?xml version="1.0" encoding="UTF-8" standalone="no"?>
<!DOCTYPE svg PUBLIC "-//W3C//DTD SVG 1.1//EN"
 "http://www.w3.org/Graphics/SVG/1.1/DTD/svg11.dtd">
<!-- Generated by graphviz version 2.26.3 (20100126.1600)
 -->
<!-- Title: G Pages: 1 -->
<svg width="990pt" height="990pt"
 viewBox="0.00 0.00 990.00 990.00" xmlns="http://www.w3.org/2000/svg" xmlns:xlink="http://www.w3.org/1999/xlink">
<g id="graph1" class="graph" transform="scale(1 1) rotate(0) translate(4 986)">
<title>G</title>
<polygon fill="white" stroke="white" points="-4,5 -4,-986 987,-986 987,5 -4,5"/>
<!-- Threada775700 -->
<g id="node1" class="node"><title>Threada775700</title>
<ellipse fill="none" stroke="black" cx="117" cy="-229" rx="116.88" ry="29.6985"/>
<text text-anchor="middle" x="117" y="-233.4" font-family="Times Roman,serif" font-size="14.00">Threada775700</text>
<text text-anchor="middle" x="117" y="-216.4" font-family="Times Roman,serif" font-size="14.00">handle_requests_loop</text>
</g>
<!-- Threada977700 -->
<g id="node2" class="node"><title>Threada977700</title>
<ellipse fill="none" stroke="black" cx="369" cy="-229" rx="116.88" ry="29.6985"/>
<text text-anchor="middle" x="369" y="-233.4" font-family="Times Roman,serif" font-size="14.00">Threada977700</text>
<text text-anchor="middle" x="369" y="-216.4" font-family="Times Roman,serif" font-size="14.00">handle_requests_loop</text>
</g>
<!-- Threada5742e0 -->
<g id="node3" class="node"><title>Threada5742e0</title>
<ellipse fill="none" stroke="black" cx="625" cy="-818" rx="89.8026" ry="29.6985"/>
<text text-anchor="middle" x="625" y="-822.4" font-family="Times Roman,serif" font-size="14.00">Threada5742e0</text>
<text text-anchor="middle" x="625" y="-805.4" font-family="Times Roman,serif" font-size="14.00">{root}</text>
</g>
<!-- Threada5742e0&#45;&gt;Threada775700 -->
<g id="edge6" class="edge"><title>Threada5742e0&#45;&gt;Threada775700</title>
<path fill="none" stroke="black" stroke-width="3" stroke-dasharray="1,5" d="M600.498,-789.591C516.872,-692.631 242.713,-374.758 148.853,-265.932"/>
<polygon fill="black" stroke="black" points="142.151,-258.161 152.09,-262.795 146.174,-261.295 149.44,-265.081 148.682,-265.734 147.925,-266.387 144.659,-262.601 145.275,-268.673 142.151,-258.161 142.151,-258.161"/>
</g>
<!-- Threada5742e0&#45;&gt;Threada977700 -->
<g id="edge8" class="edge"><title>Threada5742e0&#45;&gt;Threada977700</title>
<path fill="none" stroke="black" stroke-width="3" stroke-dasharray="1,5" d="M612.305,-788.791C569.997,-691.451 433.781,-378.046 385.864,-267.8"/>
<polygon fill="black" stroke="black" points="381.772,-258.385 389.885,-265.762 384.682,-262.572 386.675,-267.157 385.758,-267.556 384.841,-267.955 382.848,-263.369 381.631,-269.35 381.772,-258.385 381.772,-258.385"/>
</g>
<!-- Mutex602ae0 -->
<g id="node5" class="node"><title>Mutex602ae0</title>
<polygon fill="none" stroke="black" points="695.666,-271 554.334,-271 504,-187 746,-187 695.666,-271"/>
<text text-anchor="middle" x="625" y="-233.4" font-family="Times Roman,serif" font-size="14.00">Mutex602ae0</text>
<text text-anchor="middle" x="625" y="-216.4" font-family="Times Roman,serif" font-size="14.00">request_mutex</text>
</g>
<!-- Threada5742e0&#45;&gt;Mutex602ae0 -->
<g id="edge2" class="edge"><title>Threada5742e0&#45;&gt;Mutex602ae0</title>
<path fill="none" stroke="black" stroke-width="3" stroke-dasharray="1,5" d="M621.832,-788.388C617.369,-694.318 617.076,-401.437 620.953,-281.26"/>
<polygon fill="black" stroke="black" points="621.303,-271.201 625.453,-281.352 622.129,-276.233 621.955,-281.23 620.956,-281.195 619.956,-281.161 620.13,-276.164 616.458,-281.039 621.303,-271.201 621.303,-271.201"/>
</g>
<!-- Threada5742e0&#45;&gt;Mutex602ae0 -->
<g id="edge12" class="edge"><title>Threada5742e0&#45;&gt;Mutex602ae0</title>
<path fill="none" stroke="grey" stroke-width="3" d="M628.168,-788.388C632.631,-694.318 632.924,-401.437 629.047,-281.26"/>
<polygon fill="grey" stroke="grey" points="632.542,-281.074 628.697,-271.201 625.547,-281.317 632.542,-281.074"/>
</g>
<!-- Cond602b20 -->
<g id="node7" class="node"><title>Cond602b20</title>
<polygon fill="none" stroke="black" points="981.859,-271 808.689,-271 764.141,-187 937.311,-187 981.859,-271"/>
<text text-anchor="middle" x="873" y="-233.4" font-family="Times Roman,serif" font-size="14.00">Cond602b20</text>
<text text-anchor="middle" x="873" y="-216.4" font-family="Times Roman,serif" font-size="14.00">got_request</text>
</g>
<!-- Threada5742e0&#45;&gt;Cond602b20 -->
<g id="edge4" class="edge"><title>Threada5742e0&#45;&gt;Cond602b20</title>
<path fill="none" stroke="black" stroke-width="3" stroke-dasharray="1,5" d="M634.301,-788.388C669.517,-694.129 792.966,-400.259 847.277,-280.537"/>
<polygon fill="black" stroke="black" points="851.534,-271.201 851.479,-282.167 850.369,-276.166 848.295,-280.715 847.385,-280.3 846.475,-279.885 848.55,-275.336 843.291,-278.433 851.534,-271.201 851.534,-271.201"/>
</g>
<!-- Threada5742e0&#45;&gt;Cond602b20 -->
<g id="edge10" class="edge"><title>Threada5742e0&#45;&gt;Cond602b20</title>
<path fill="none" stroke="grey" stroke-width="3" stroke-dasharray="5,2" d="M640.447,-788.791C684.162,-695.564 807.182,-404.144 854.431,-282.831"/>
<polygon fill="grey" stroke="grey" points="854.565,-282.483 852.999,-275.444 858.894,-271.291 860.46,-278.33 854.565,-282.483"/>
</g>
</g>
</svg>
