<?xml version="1.0" encoding="UTF-8" standalone="no"?>
<!DOCTYPE svg PUBLIC "-//W3C//DTD SVG 1.1//EN"
 "http://www.w3.org/Graphics/SVG/1.1/DTD/svg11.dtd">
<!-- Generated by graphviz version 2.26.3 (20100126.1600)
 -->
<!-- Title: G Pages: 1 -->
<svg width="644pt" height="644pt"
 viewBox="0.00 0.00 644.00 644.00" xmlns="http://www.w3.org/2000/svg" xmlns:xlink="http://www.w3.org/1999/xlink">
<g id="graph1" class="graph" transform="scale(1 1) rotate(0) translate(4 640)">
<title>G</title>
<polygon fill="white" stroke="white" points="-4,5 -4,-640 641,-640 641,5 -4,5"/>
<!-- Threada775700 -->
<g id="node1" class="node"><title>Threada775700</title>
<ellipse fill="none" stroke="lightgrey" cx="186" cy="-346" rx="116.88" ry="29.6985"/>
<text text-anchor="middle" x="186" y="-350.4" font-family="Times Roman,serif" font-size="14.00">Threada775700</text>
<text text-anchor="middle" x="186" y="-333.4" font-family="Times Roman,serif" font-size="14.00">handle_requests_loop</text>
</g>
<!-- Cond602b20 -->
<g id="node3" class="node"><title>Cond602b20</title>
<polygon fill="none" stroke="red" points="217.859,-139 44.6886,-139 0.140918,-55 173.311,-55 217.859,-139"/>
<text text-anchor="middle" x="109" y="-101.4" font-family="Times Roman,serif" font-size="14.00">Cond602b20</text>
<text text-anchor="middle" x="109" y="-84.4" font-family="Times Roman,serif" font-size="14.00">got_request</text>
</g>
<!-- Threada775700&#45;&gt;Cond602b20 -->
<g id="edge2" class="edge"><title>Threada775700&#45;&gt;Cond602b20</title>
<path fill="none" stroke="grey" stroke-width="3" d="M176.865,-316.459C164.289,-275.79 141.42,-201.84 125.733,-151.111"/>
<polygon fill="none" stroke="grey" points="125.653,-150.851 120.059,-146.301 122.108,-139.387 127.702,-143.938 125.653,-150.851"/>
</g>
<!-- Mutex602ae0 -->
<g id="node5" class="node"><title>Mutex602ae0</title>
<polygon fill="none" stroke="black" points="585.666,-139 444.334,-139 394,-55 636,-55 585.666,-139"/>
<text text-anchor="middle" x="515" y="-101.4" font-family="Times Roman,serif" font-size="14.00">Mutex602ae0</text>
<text text-anchor="middle" x="515" y="-84.4" font-family="Times Roman,serif" font-size="14.00">request_mutex</text>
</g>
<!-- Threada775700&#45;&gt;Mutex602ae0 -->
<g id="edge4" class="edge"><title>Threada775700&#45;&gt;Mutex602ae0</title>
<path fill="none" stroke="grey" stroke-width="3" d="M231.186,-311.802C290.663,-266.787 395.178,-187.686 459.427,-139.06"/>
<polygon fill="grey" stroke="grey" points="228.963,-309.095 223.101,-317.921 233.187,-314.676 228.963,-309.095"/>
</g>
<!-- Threada977700 -->
<g id="node6" class="node"><title>Threada977700</title>
<ellipse fill="none" stroke="black" cx="438" cy="-346" rx="116.88" ry="29.6985"/>
<text text-anchor="middle" x="438" y="-350.4" font-family="Times Roman,serif" font-size="14.00">Threada977700</text>
<text text-anchor="middle" x="438" y="-333.4" font-family="Times Roman,serif" font-size="14.00">handle_requests_loop</text>
</g>
<!-- Threada977700&#45;&gt;Cond602b20 -->
<g id="edge6" class="edge"><title>Threada977700&#45;&gt;Cond602b20</title>
<path fill="none" stroke="grey" stroke-width="3" d="M392.814,-311.802C333.337,-266.787 228.822,-187.686 164.573,-139.06"/>
<polygon fill="grey" stroke="grey" points="390.813,-314.676 400.899,-317.921 395.037,-309.095 390.813,-314.676"/>
</g>
<!-- Threada977700&#45;&gt;Mutex602ae0 -->
<g id="edge8" class="edge"><title>Threada977700&#45;&gt;Mutex602ae0</title>
<path fill="none" stroke="grey" stroke-width="3" d="M447.135,-316.459C459.871,-275.275 483.16,-199.962 498.859,-149.196"/>
<polygon fill="grey" stroke="grey" points="502.282,-149.975 501.892,-139.387 495.594,-147.907 502.282,-149.975"/>
</g>
<!-- Threada5742e0 -->
<g id="node9" class="node"><title>Threada5742e0</title>
<ellipse fill="none" stroke="black" cx="312" cy="-567" rx="89.8026" ry="29.6985"/>
<text text-anchor="middle" x="312" y="-571.4" font-family="Times Roman,serif" font-size="14.00">Threada5742e0</text>
<text text-anchor="middle" x="312" y="-554.4" font-family="Times Roman,serif" font-size="14.00">{root}</text>
</g>
<!-- Threada5742e0&#45;&gt;Threada775700 -->
<g id="edge14" class="edge"><title>Threada5742e0&#45;&gt;Threada775700</title>
<path fill="none" stroke="grey" stroke-width="3" stroke-dasharray="1,5" d="M290.796,-538.108C265.878,-498.785 225.517,-428.307 202.695,-384.522"/>
<polygon fill="grey" stroke="grey" points="198.102,-375.604 206.681,-382.435 201.281,-379.592 203.57,-384.037 202.681,-384.495 201.792,-384.953 199.503,-380.507 198.68,-386.555 198.102,-375.604 198.102,-375.604"/>
</g>
<!-- Threada5742e0&#45;&gt;Threada775700 -->
<g id="edge18" class="edge"><title>Threada5742e0&#45;&gt;Threada775700</title>
<path fill="none" stroke="grey" stroke-width="3" stroke-dasharray="5,2" d="M300.028,-537.653C279.654,-497.501 238.727,-425.49 211.721,-382.089"/>
<ellipse fill="grey" stroke="grey" cx="209.472" cy="-378.505" rx="4.00002" ry="4.00002"/>
</g>
<!-- Threada5742e0&#45;&gt;Cond602b20 -->
<g id="edge22" class="edge"><title>Threada5742e0&#45;&gt;Cond602b20</title>
<path fill="none" stroke="grey" stroke-dasharray="5,2" d="M252.642,-544.731C189.167,-515.879 92.3413,-459.208 51,-376 14.8193,-303.179 45.8155,-208.038 74.7307,-149.787"/>
<polygon fill="grey" stroke="grey" points="74.7898,-149.672 73.976,-142.507 80.2769,-139 81.0907,-146.165 74.7898,-149.672"/>
</g>
<!-- Threada5742e0&#45;&gt;Cond602b20 -->
<g id="edge12" class="edge"><title>Threada5742e0&#45;&gt;Cond602b20</title>
<path fill="none" stroke="black" stroke-width="3" stroke-dasharray="1,5" d="M260.979,-542.505C202.339,-513.016 109.303,-457.119 69,-376 32.5184,-302.573 64.3357,-206.454 88.4799,-148.342"/>
<polygon fill="black" stroke="black" points="92.4277,-139 92.6799,-149.963 91.4024,-143.995 89.456,-148.601 88.5349,-148.211 87.6138,-147.822 89.5602,-143.216 84.3899,-146.46 92.4277,-139 92.4277,-139"/>
</g>
<!-- Threada5742e0&#45;&gt;Mutex602ae0 -->
<g id="edge24" class="edge"><title>Threada5742e0&#45;&gt;Mutex602ae0</title>
<path fill="none" stroke="grey" stroke-width="3" d="M363.021,-542.505C421.661,-513.016 514.697,-457.119 555,-376 591.482,-302.573 559.664,-206.454 535.52,-148.342"/>
<polygon fill="grey" stroke="grey" points="538.689,-146.849 531.572,-139 532.241,-149.574 538.689,-146.849"/>
</g>
<!-- Threada5742e0&#45;&gt;Mutex602ae0 -->
<g id="edge10" class="edge"><title>Threada5742e0&#45;&gt;Mutex602ae0</title>
<path fill="none" stroke="black" stroke-width="3" stroke-dasharray="1,5" d="M371.358,-544.731C434.833,-515.879 531.659,-459.208 573,-376 609.557,-302.422 577.533,-206.058 548.368,-147.983"/>
<polygon fill="black" stroke="black" points="543.723,-139 552.314,-145.816 546.908,-142.982 549.205,-147.423 548.317,-147.883 547.428,-148.342 545.132,-143.901 544.32,-149.95 543.723,-139 543.723,-139"/>
</g>
<!-- Threada5742e0&#45;&gt;Threada977700 -->
<g id="edge16" class="edge"><title>Threada5742e0&#45;&gt;Threada977700</title>
<path fill="none" stroke="black" stroke-width="3" stroke-dasharray="1,5" d="M323.972,-537.653C344.094,-497.998 384.264,-427.267 411.271,-383.712"/>
<polygon fill="black" stroke="black" points="416.654,-375.116 415.16,-385.98 414.848,-379.885 412.194,-384.122 411.346,-383.592 410.499,-383.061 413.153,-378.823 407.533,-381.203 416.654,-375.116 416.654,-375.116"/>
</g>
<!-- Threada5742e0&#45;&gt;Threada977700 -->
<g id="edge20" class="edge"><title>Threada5742e0&#45;&gt;Threada977700</title>
<path fill="none" stroke="red" stroke-width="3" d="M333.204,-538.108C358.435,-498.291 399.498,-426.533 422.157,-382.886"/>
<ellipse fill="none" stroke="red" cx="424.07" cy="-379.162" rx="4.00002" ry="4.00002"/>
</g>
</g>
</svg>
