<?xml version="1.0" encoding="UTF-8" standalone="no"?>
<!DOCTYPE svg PUBLIC "-//W3C//DTD SVG 1.1//EN"
 "http://www.w3.org/Graphics/SVG/1.1/DTD/svg11.dtd">
<!-- Generated by graphviz version 2.26.3 (20100126.1600)
 -->
<!-- Title: G Pages: 1 -->
<svg width="738pt" height="738pt"
 viewBox="0.00 0.00 738.00 738.00" xmlns="http://www.w3.org/2000/svg" xmlns:xlink="http://www.w3.org/1999/xlink">
<g id="graph1" class="graph" transform="scale(1 1) rotate(0) translate(4 734)">
<title>G</title>
<polygon fill="white" stroke="white" points="-4,5 -4,-734 735,-734 735,5 -4,5"/>
<!-- Mutex602a40 -->
<g id="node1" class="node"><title>Mutex602a40</title>
<polygon fill="none" stroke="black" points="191.666,-212 50.334,-212 4.26326e-14,-128 242,-128 191.666,-212"/>
<text text-anchor="middle" x="121" y="-174.4" font-family="Times Roman,serif" font-size="14.00">Mutex602a40</text>
<text text-anchor="middle" x="121" y="-157.4" font-family="Times Roman,serif" font-size="14.00">request_mutex</text>
</g>
<!-- Cond602a80 -->
<g id="node2" class="node"><title>Cond602a80</title>
<polygon fill="none" stroke="black" points="477.859,-212 304.689,-212 260.141,-128 433.311,-128 477.859,-212"/>
<text text-anchor="middle" x="369" y="-174.4" font-family="Times Roman,serif" font-size="14.00">Cond602a80</text>
<text text-anchor="middle" x="369" y="-157.4" font-family="Times Roman,serif" font-size="14.00">got_request</text>
</g>
<!-- Thread7ae662e0 -->
<g id="node3" class="node"><title>Thread7ae662e0</title>
<ellipse fill="none" stroke="black" cx="369" cy="-608" rx="94.9596" ry="29.6985"/>
<text text-anchor="middle" x="369" y="-612.4" font-family="Times Roman,serif" font-size="14.00">Thread7ae662e0</text>
<text text-anchor="middle" x="369" y="-595.4" font-family="Times Roman,serif" font-size="14.00">{root}</text>
</g>
<!-- Thread7ae662e0&#45;&gt;Mutex602a40 -->
<g id="edge2" class="edge"><title>Thread7ae662e0&#45;&gt;Mutex602a40</title>
<path fill="none" stroke="red" stroke-width="2" d="M352.536,-578.922C311.128,-505.791 202.235,-313.472 149.897,-221.037"/>
<polygon fill="red" stroke="red" points="152.835,-219.12 144.862,-212.143 146.743,-222.569 152.835,-219.12"/>
</g>
<!-- Thread7ae662e0&#45;&gt;Cond602a80 -->
<g id="edge4" class="edge"><title>Thread7ae662e0&#45;&gt;Cond602a80</title>
<path fill="none" stroke="lightgray" stroke-width="2" stroke-dasharray="1,5" d="M369,-578.239C369,-505.007 369,-315.296 369,-222.573"/>
<polygon fill="lightgray" stroke="lightgray" points="372.5,-222.296 369,-212.296 365.5,-222.296 372.5,-222.296"/>
</g>
<!-- Thread7b067700 -->
<g id="node7" class="node"><title>Thread7b067700</title>
<ellipse fill="none" stroke="black" cx="613" cy="-170" rx="116.88" ry="29.6985"/>
<text text-anchor="middle" x="613" y="-174.4" font-family="Times Roman,serif" font-size="14.00">Thread7b067700</text>
<text text-anchor="middle" x="613" y="-157.4" font-family="Times Roman,serif" font-size="14.00">handle_requests_loop</text>
</g>
<!-- Thread7ae662e0&#45;&gt;Thread7b067700 -->
<g id="edge6" class="edge"><title>Thread7ae662e0&#45;&gt;Thread7b067700</title>
<path fill="none" stroke="black" stroke-width="2" d="M385.198,-578.922C427.92,-502.234 543.656,-294.478 591.675,-208.28"/>
<polygon fill="black" stroke="black" points="594.838,-209.794 596.647,-199.354 588.723,-206.387 594.838,-209.794"/>
</g>
</g>
</svg>
