<?xml version="1.0" encoding="UTF-8" standalone="no"?>
<!DOCTYPE svg PUBLIC "-//W3C//DTD SVG 1.1//EN"
 "http://www.w3.org/Graphics/SVG/1.1/DTD/svg11.dtd">
<!-- Generated by graphviz version 2.26.3 (20100126.1600)
 -->
<!-- Title: G Pages: 1 -->
<svg width="660pt" height="660pt"
 viewBox="0.00 0.00 660.00 660.00" xmlns="http://www.w3.org/2000/svg" xmlns:xlink="http://www.w3.org/1999/xlink">
<g id="graph1" class="graph" transform="scale(1 1) rotate(0) translate(4 656)">
<title>G</title>
<polygon fill="white" stroke="white" points="-4,5 -4,-656 657,-656 657,5 -4,5"/>
<!-- Mutex602a40 -->
<g id="node1" class="node"><title>Mutex602a40</title>
<polygon fill="none" stroke="black" points="191.666,-141 50.334,-141 4.26326e-14,-57 242,-57 191.666,-141"/>
<text text-anchor="middle" x="121" y="-103.4" font-family="Times Roman,serif" font-size="14.00">Mutex602a40</text>
<text text-anchor="middle" x="121" y="-86.4" font-family="Times Roman,serif" font-size="14.00">request_mutex</text>
</g>
<!-- Cond602a80 -->
<g id="node2" class="node"><title>Cond602a80</title>
<polygon fill="none" stroke="red" points="487.859,-141 314.689,-141 270.141,-57 443.311,-57 487.859,-141"/>
<text text-anchor="middle" x="379" y="-103.4" font-family="Times Roman,serif" font-size="14.00">Cond602a80</text>
<text text-anchor="middle" x="379" y="-86.4" font-family="Times Roman,serif" font-size="14.00">got_request</text>
</g>
<!-- Thread7ae662e0 -->
<g id="node3" class="node"><title>Thread7ae662e0</title>
<ellipse fill="none" stroke="black" cx="317" cy="-581" rx="116.88" ry="29.6985"/>
<text text-anchor="middle" x="317" y="-585.4" font-family="Times Roman,serif" font-size="14.00">Thread7ae662e0</text>
<text text-anchor="middle" x="317" y="-568.4" font-family="Times Roman,serif" font-size="14.00">handle_requests_loop</text>
</g>
<!-- Thread7ae662e0&#45;&gt;Mutex602a40 -->
<g id="edge2" class="edge"><title>Thread7ae662e0&#45;&gt;Mutex602a40</title>
<path fill="none" stroke="lightgray" stroke-width="2" d="M273.55,-553.537C225.321,-520.192 150.177,-459 119,-384 87.3103,-307.767 97.7776,-209.843 108.911,-150.883"/>
<polygon fill="lightgray" stroke="lightgray" points="112.349,-151.541 110.842,-141.053 105.48,-150.191 112.349,-151.541"/>
</g>
<!-- Thread7ae662e0&#45;&gt;Cond602a80 -->
<g id="edge4" class="edge"><title>Thread7ae662e0&#45;&gt;Cond602a80</title>
<path fill="none" stroke="lightgray" stroke-width="2" stroke-dasharray="1,5" d="M327.499,-551.44C340.481,-513.315 361.965,-444.682 371,-384 382.975,-303.572 382.875,-209.008 381.267,-151.569"/>
<polygon fill="lightgray" stroke="lightgray" points="384.756,-151.176 380.951,-141.288 377.76,-151.391 384.756,-151.176"/>
</g>
<!-- Thread7b269700 -->
<g id="node7" class="node"><title>Thread7b269700</title>
<ellipse fill="none" stroke="black" cx="245" cy="-354" rx="116.88" ry="29.6985"/>
<text text-anchor="middle" x="245" y="-358.4" font-family="Times Roman,serif" font-size="14.00">Thread7b269700</text>
<text text-anchor="middle" x="245" y="-341.4" font-family="Times Roman,serif" font-size="14.00">handle_requests_loop</text>
</g>
<!-- Thread7ae662e0&#45;&gt;Thread7b269700 -->
<g id="edge6" class="edge"><title>Thread7ae662e0&#45;&gt;Thread7b269700</title>
<path fill="none" stroke="black" stroke-width="2" d="M307.587,-551.324C294.759,-510.878 271.753,-438.347 257.492,-393.386"/>
<polygon fill="black" stroke="black" points="260.775,-392.157 254.415,-383.684 254.102,-394.274 260.775,-392.157"/>
</g>
<!-- Thread7b067700 -->
<g id="node9" class="node"><title>Thread7b067700</title>
<ellipse fill="none" stroke="black" cx="535" cy="-354" rx="116.88" ry="29.6985"/>
<text text-anchor="middle" x="535" y="-358.4" font-family="Times Roman,serif" font-size="14.00">Thread7b067700</text>
<text text-anchor="middle" x="535" y="-341.4" font-family="Times Roman,serif" font-size="14.00">handle_requests_loop</text>
</g>
<!-- Thread7ae662e0&#45;&gt;Thread7b067700 -->
<g id="edge8" class="edge"><title>Thread7ae662e0&#45;&gt;Thread7b067700</title>
<path fill="none" stroke="black" stroke-width="2" d="M344.61,-552.25C384.142,-511.087 456.857,-435.369 500.078,-390.364"/>
<polygon fill="black" stroke="black" points="502.869,-392.511 507.271,-382.874 497.82,-387.662 502.869,-392.511"/>
</g>
<!-- Thread7b269700&#45;&gt;Mutex602a40 -->
<g id="edge10" class="edge"><title>Thread7b269700&#45;&gt;Mutex602a40</title>
<path fill="none" stroke="lightgray" stroke-width="2" d="M230.654,-324.499C209.966,-281.955 171.452,-202.752 146.02,-150.452"/>
<polygon fill="lightgray" stroke="lightgray" points="149.108,-148.799 141.587,-141.336 142.813,-151.86 149.108,-148.799"/>
</g>
<!-- Thread7b269700&#45;&gt;Cond602a80 -->
<g id="edge12" class="edge"><title>Thread7b269700&#45;&gt;Cond602a80</title>
<path fill="none" stroke="red" stroke-width="2" d="M260.372,-324.748C282.68,-282.295 324.366,-202.968 351.903,-150.564"/>
<polygon fill="red" stroke="red" points="359.802,-143.058 352.052,-150.282 353.605,-139.802 359.802,-143.058"/>
</g>
</g>
</svg>
