<?xml version="1.0" encoding="UTF-8" standalone="no"?>
<!DOCTYPE svg PUBLIC "-//W3C//DTD SVG 1.1//EN"
 "http://www.w3.org/Graphics/SVG/1.1/DTD/svg11.dtd">
<!-- Generated by graphviz version 2.26.3 (20100126.1600)
 -->
<!-- Title: G Pages: 1 -->
<svg width="558pt" height="1108pt"
 viewBox="0.00 0.00 558.00 1108.00" xmlns="http://www.w3.org/2000/svg" xmlns:xlink="http://www.w3.org/1999/xlink">
<g id="graph1" class="graph" transform="scale(1 1) rotate(0) translate(4 1104)">
<title>G</title>
<polygon fill="white" stroke="white" points="-4,5 -4,-1104 555,-1104 555,5 -4,5"/>
<!-- Thread16bda700 -->
<g id="node1" class="node"><title>Thread16bda700</title>
<ellipse fill="none" stroke="black" cx="95" cy="-550" rx="94.9596" ry="18.3848"/>
<text text-anchor="middle" x="95" y="-546.4" font-family="Times Roman,serif" font-size="14.00">Thread16bda700</text>
</g>
<!-- Mutex602a40 -->
<g id="node3" class="node"><title>Mutex602a40</title>
<polygon fill="none" stroke="red" points="283.994,-160 152.006,-160 105,-108 331,-108 283.994,-160"/>
<text text-anchor="middle" x="218" y="-130.4" font-family="Times Roman,serif" font-size="14.00">Mutex602a40</text>
</g>
<!-- Thread16bda700&#45;&gt;Mutex602a40 -->
<g id="edge2" class="edge"><title>Thread16bda700&#45;&gt;Mutex602a40</title>
<path fill="none" stroke="lightgray" d="M100.524,-531.317C119.502,-467.13 182.25,-254.911 207.419,-169.787"/>
<polygon fill="lightgray" stroke="lightgray" points="210.817,-170.636 210.296,-160.054 204.105,-168.652 210.817,-170.636"/>
</g>
<!-- Cond602a80 -->
<g id="node4" class="node"><title>Cond602a80</title>
<polygon fill="none" stroke="black" points="549.859,-992 376.689,-992 332.141,-940 505.311,-940 549.859,-992"/>
<text text-anchor="middle" x="441" y="-962.4" font-family="Times Roman,serif" font-size="14.00">Cond602a80</text>
</g>
<!-- Thread169d8700 -->
<g id="node5" class="node"><title>Thread169d8700</title>
<polygon fill="none" stroke="black" points="382,-568 246,-568 246,-532 382,-532 382,-568"/>
<text text-anchor="middle" x="314" y="-546.4" font-family="Times Roman,serif" font-size="14.00">Thread169d8700</text>
</g>
<!-- Thread169d8700&#45;&gt;Mutex602a40 -->
<g id="edge4" class="edge"><title>Thread169d8700&#45;&gt;Mutex602a40</title>
<path fill="none" stroke="black" d="M309.813,-531.858C295.162,-468.367 246.015,-255.4 226.293,-169.936"/>
<polygon fill="black" stroke="black" points="229.697,-169.121 224.038,-160.165 222.876,-170.695 229.697,-169.121"/>
</g>
<!-- Thread167d72e0 -->
<g id="node7" class="node"><title>Thread167d72e0</title>
<ellipse fill="none" stroke="black" cx="218" cy="-966" rx="96.1665" ry="18.3848"/>
<text text-anchor="middle" x="218" y="-962.4" font-family="Times Roman,serif" font-size="14.00">Thread167d72e0</text>
</g>
<!-- Thread167d72e0&#45;&gt;Thread16bda700 -->
<g id="edge6" class="edge"><title>Thread167d72e0&#45;&gt;Thread16bda700</title>
<path fill="none" stroke="black" d="M212.476,-947.317C192.926,-881.197 126.931,-657.994 103.412,-578.45"/>
<polygon fill="black" stroke="black" points="106.701,-577.229 100.509,-568.631 99.9879,-579.213 106.701,-577.229"/>
</g>
<!-- Thread167d72e0&#45;&gt;Mutex602a40 -->
<g id="edge8" class="edge"><title>Thread167d72e0&#45;&gt;Mutex602a40</title>
<path fill="none" stroke="black" d="M218,-947.456C218,-841.61 218,-313.556 218,-170.047"/>
<polygon fill="black" stroke="black" points="221.5,-170.008 218,-160.008 214.5,-170.008 221.5,-170.008"/>
</g>
<!-- Thread167d72e0&#45;&gt;Thread169d8700 -->
<g id="edge10" class="edge"><title>Thread167d72e0&#45;&gt;Thread169d8700</title>
<path fill="none" stroke="black" d="M222.311,-947.317C237.605,-881.046 289.314,-656.972 307.56,-577.906"/>
<polygon fill="black" stroke="black" points="310.971,-578.691 309.809,-568.16 304.15,-577.117 310.971,-578.691"/>
</g>
</g>
</svg>
