<?xml version="1.0" encoding="UTF-8" standalone="no"?>
<!DOCTYPE svg PUBLIC "-//W3C//DTD SVG 1.1//EN"
 "http://www.w3.org/Graphics/SVG/1.1/DTD/svg11.dtd">
<!-- Generated by graphviz version 2.26.3 (20100126.1600)
 -->
<!-- Title: G Pages: 1 -->
<svg width="605pt" height="1202pt"
 viewBox="0.00 0.00 605.00 1202.00" xmlns="http://www.w3.org/2000/svg" xmlns:xlink="http://www.w3.org/1999/xlink">
<g id="graph1" class="graph" transform="scale(1 1) rotate(0) translate(4 1198)">
<title>G</title>
<polygon fill="white" stroke="white" points="-4,5 -4,-1198 602,-1198 602,5 -4,5"/>
<!-- Thread16bda700 -->
<g id="node1" class="node"><title>Thread16bda700</title>
<polygon fill="none" stroke="black" points="134,-240 7.10543e-14,-240 0,-204 134,-204 134,-240"/>
<text text-anchor="middle" x="67" y="-218.4" font-family="Times Roman,serif" font-size="14.00">Thread16bda700</text>
</g>
<!-- Mutex602a40 -->
<g id="node2" class="node"><title>Mutex602a40</title>
<polygon fill="none" stroke="red" points="330.994,-248 199.006,-248 152,-196 378,-196 330.994,-248"/>
<text text-anchor="middle" x="265" y="-218.4" font-family="Times Roman,serif" font-size="14.00">Mutex602a40</text>
</g>
<!-- Cond602a80 -->
<g id="node3" class="node"><title>Cond602a80</title>
<polygon fill="none" stroke="black" points="596.859,-998 423.689,-998 379.141,-946 552.311,-946 596.859,-998"/>
<text text-anchor="middle" x="488" y="-968.4" font-family="Times Roman,serif" font-size="14.00">Cond602a80</text>
</g>
<!-- Thread169d8700 -->
<g id="node4" class="node"><title>Thread169d8700</title>
<polygon fill="none" stroke="black" points="532,-240 396,-240 396,-204 532,-204 532,-240"/>
<text text-anchor="middle" x="464" y="-218.4" font-family="Times Roman,serif" font-size="14.00">Thread169d8700</text>
</g>
<!-- Thread167d72e0 -->
<g id="node5" class="node"><title>Thread167d72e0</title>
<ellipse fill="none" stroke="black" cx="265" cy="-972" rx="96.1665" ry="18.3848"/>
<text text-anchor="middle" x="265" y="-968.4" font-family="Times Roman,serif" font-size="14.00">Thread167d72e0</text>
</g>
<!-- Thread167d72e0&#45;&gt;Thread16bda700 -->
<g id="edge2" class="edge"><title>Thread167d72e0&#45;&gt;Thread16bda700</title>
<path fill="none" stroke="black" d="M260.106,-953.461C233.517,-852.745 106.452,-371.439 74.3698,-249.916"/>
<polygon fill="black" stroke="black" points="77.7483,-249.001 71.8116,-240.226 70.9801,-250.788 77.7483,-249.001"/>
</g>
<!-- Thread167d72e0&#45;&gt;Mutex602a40 -->
<g id="edge4" class="edge"><title>Thread167d72e0&#45;&gt;Mutex602a40</title>
<path fill="none" stroke="black" d="M265,-953.461C265,-854.958 265,-392.41 265,-258.442"/>
<polygon fill="black" stroke="black" points="268.5,-258.294 265,-248.294 261.5,-258.294 268.5,-258.294"/>
</g>
<!-- Thread167d72e0&#45;&gt;Thread169d8700 -->
<g id="edge6" class="edge"><title>Thread167d72e0&#45;&gt;Thread169d8700</title>
<path fill="none" stroke="black" d="M269.919,-953.461C296.642,-852.745 424.349,-371.439 456.593,-249.916"/>
<polygon fill="black" stroke="black" points="459.982,-250.789 459.164,-240.226 453.217,-248.994 459.982,-250.789"/>
</g>
</g>
</svg>
