<?xml version="1.0" encoding="UTF-8" standalone="no"?>
<!DOCTYPE svg PUBLIC "-//W3C//DTD SVG 1.1//EN"
 "http://www.w3.org/Graphics/SVG/1.1/DTD/svg11.dtd">
<!-- Generated by graphviz version 2.26.3 (20100126.1600)
 -->
<!-- Title: G Pages: 1 -->
<svg width="602pt" height="602pt"
 viewBox="0.00 0.00 602.00 602.00" xmlns="http://www.w3.org/2000/svg" xmlns:xlink="http://www.w3.org/1999/xlink">
<g id="graph1" class="graph" transform="scale(1 1) rotate(0) translate(4 598)">
<title>G</title>
<polygon fill="white" stroke="white" points="-4,5 -4,-598 599,-598 599,5 -4,5"/>
<!-- Mutex602a40 -->
<g id="node1" class="node"><title>Mutex602a40</title>
<polygon fill="none" stroke="black" points="191.666,-514 50.334,-514 4.26326e-14,-430 242,-430 191.666,-514"/>
<text text-anchor="middle" x="121" y="-476.4" font-family="Times Roman,serif" font-size="14.00">Mutex602a40</text>
<text text-anchor="middle" x="121" y="-459.4" font-family="Times Roman,serif" font-size="14.00">request_mutex</text>
</g>
<!-- Cond602a80 -->
<g id="node2" class="node"><title>Cond602a80</title>
<polygon fill="none" stroke="black" points="341.859,-164 168.689,-164 124.141,-80 297.311,-80 341.859,-164"/>
<text text-anchor="middle" x="233" y="-126.4" font-family="Times Roman,serif" font-size="14.00">Cond602a80</text>
<text text-anchor="middle" x="233" y="-109.4" font-family="Times Roman,serif" font-size="14.00">got_request</text>
</g>
<!-- Thread7ae662e0 -->
<g id="node3" class="node"><title>Thread7ae662e0</title>
<ellipse fill="none" stroke="black" cx="355" cy="-472" rx="94.9596" ry="29.6985"/>
<text text-anchor="middle" x="355" y="-476.4" font-family="Times Roman,serif" font-size="14.00">Thread7ae662e0</text>
<text text-anchor="middle" x="355" y="-459.4" font-family="Times Roman,serif" font-size="14.00">{root}</text>
</g>
<!-- Thread7ae662e0&#45;&gt;Cond602a80 -->
<g id="edge2" class="edge"><title>Thread7ae662e0&#45;&gt;Cond602a80</title>
<path fill="none" stroke="green" stroke-width="2" stroke-dasharray="1,5" d="M344.703,-442.461C323.977,-382.999 276.991,-248.205 251.048,-173.778"/>
<polygon fill="green" stroke="green" points="254.282,-172.421 247.685,-164.13 247.672,-174.725 254.282,-172.421"/>
</g>
<!-- Thread7b067700 -->
<g id="node6" class="node"><title>Thread7b067700</title>
<ellipse fill="none" stroke="black" cx="477" cy="-122" rx="116.88" ry="29.6985"/>
<text text-anchor="middle" x="477" y="-126.4" font-family="Times Roman,serif" font-size="14.00">Thread7b067700</text>
<text text-anchor="middle" x="477" y="-109.4" font-family="Times Roman,serif" font-size="14.00">handle_requests_loop</text>
</g>
<!-- Thread7ae662e0&#45;&gt;Thread7b067700 -->
<g id="edge4" class="edge"><title>Thread7ae662e0&#45;&gt;Thread7b067700</title>
<path fill="none" stroke="black" stroke-width="2" d="M365.297,-442.461C387.243,-379.5 438.629,-232.081 463.303,-161.294"/>
<polygon fill="black" stroke="black" points="466.615,-162.426 466.602,-151.831 460.005,-160.122 466.615,-162.426"/>
</g>
</g>
</svg>
