<?xml version="1.0" encoding="UTF-8" standalone="no"?>
<!DOCTYPE svg PUBLIC "-//W3C//DTD SVG 1.1//EN"
 "http://www.w3.org/Graphics/SVG/1.1/DTD/svg11.dtd">
<!-- Generated by graphviz version 2.26.3 (20100126.1600)
 -->
<!-- Title: G Pages: 1 -->
<svg width="681pt" height="1354pt"
 viewBox="0.00 0.00 681.00 1354.00" xmlns="http://www.w3.org/2000/svg" xmlns:xlink="http://www.w3.org/1999/xlink">
<g id="graph1" class="graph" transform="scale(1 1) rotate(0) translate(4 1350)">
<title>G</title>
<polygon fill="white" stroke="white" points="-4,5 -4,-1350 678,-1350 678,5 -4,5"/>
<!-- Mutex602a40 -->
<g id="node1" class="node"><title>Mutex602a40</title>
<polygon fill="none" stroke="black" points="178.994,-1094 47.0061,-1094 4.26326e-14,-1042 226,-1042 178.994,-1094"/>
<text text-anchor="middle" x="113" y="-1064.4" font-family="Times Roman,serif" font-size="14.00">Mutex602a40</text>
</g>
<!-- Cond602a80 -->
<g id="node2" class="node"><title>Cond602a80</title>
<polygon fill="none" stroke="black" points="461.859,-1094 288.689,-1094 244.141,-1042 417.311,-1042 461.859,-1094"/>
<text text-anchor="middle" x="353" y="-1064.4" font-family="Times Roman,serif" font-size="14.00">Cond602a80</text>
</g>
<!-- Thread169d8700 -->
<g id="node3" class="node"><title>Thread169d8700</title>
<ellipse fill="none" stroke="black" cx="576" cy="-203" rx="96.8736" ry="18.3848"/>
<text text-anchor="middle" x="576" y="-199.4" font-family="Times Roman,serif" font-size="14.00">Thread169d8700</text>
</g>
<!-- Thread167d72e0 -->
<g id="node4" class="node"><title>Thread167d72e0</title>
<ellipse fill="none" stroke="black" cx="576" cy="-1068" rx="96.1665" ry="18.3848"/>
<text text-anchor="middle" x="576" y="-1064.4" font-family="Times Roman,serif" font-size="14.00">Thread167d72e0</text>
</g>
<!-- Thread167d72e0&#45;&gt;Thread169d8700 -->
<g id="edge2" class="edge"><title>Thread167d72e0&#45;&gt;Thread169d8700</title>
<path fill="none" stroke="black" d="M576,-1049.13C576,-937.865 576,-367.728 576,-232.018"/>
<polygon fill="black" stroke="black" points="579.5,-231.623 576,-221.623 572.5,-231.623 579.5,-231.623"/>
</g>
</g>
</svg>
