<?xml version="1.0" encoding="UTF-8" standalone="no"?>
<!DOCTYPE svg PUBLIC "-//W3C//DTD SVG 1.1//EN"
 "http://www.w3.org/Graphics/SVG/1.1/DTD/svg11.dtd">
<!-- Generated by graphviz version 2.26.3 (20100126.1600)
 -->
<!-- Title: G Pages: 1 -->
<svg width="162pt" height="116pt"
 viewBox="0.00 0.00 162.00 116.00" xmlns="http://www.w3.org/2000/svg" xmlns:xlink="http://www.w3.org/1999/xlink">
<g id="graph1" class="graph" transform="scale(1 1) rotate(0) translate(4 112)">
<title>G</title>
<polygon fill="white" stroke="white" points="-4,5 -4,-112 159,-112 159,5 -4,5"/>
<!-- Thread2554929600 -->
<g id="node1" class="node"><title>Thread2554929600</title>
<polygon fill="none" stroke="black" points="154,-108 7.10543e-14,-108 0,-72 154,-72 154,-108"/>
<text text-anchor="middle" x="77" y="-86.4" font-family="Times Roman,serif" font-size="14.00">Thread2554929600</text>
</g>
<!-- Thread2557032192 -->
<g id="node3" class="node"><title>Thread2557032192</title>
<polygon fill="none" stroke="black" points="154,-36 7.10543e-14,-36 0,-1.77636e-14 154,-3.55271e-15 154,-36"/>
<text text-anchor="middle" x="77" y="-14.4" font-family="Times Roman,serif" font-size="14.00">Thread2557032192</text>
</g>
<!-- Thread2554929600&#45;&gt;Thread2557032192 -->
<g id="edge2" class="edge"><title>Thread2554929600&#45;&gt;Thread2557032192</title>
<path fill="none" stroke="black" d="M77,-71.8314C77,-64.131 77,-54.9743 77,-46.4166"/>
<polygon fill="black" stroke="black" points="80.5001,-46.4132 77,-36.4133 73.5001,-46.4133 80.5001,-46.4132"/>
</g>
</g>
</svg>
