<?xml version="1.0" encoding="UTF-8" standalone="no"?>
<!DOCTYPE svg PUBLIC "-//W3C//DTD SVG 1.1//EN"
 "http://www.w3.org/Graphics/SVG/1.1/DTD/svg11.dtd">
<!-- Generated by graphviz version 2.26.3 (20100126.1600)
 -->
<!-- Title: G Pages: 1 -->
<svg width="696pt" height="696pt"
 viewBox="0.00 0.00 696.00 696.00" xmlns="http://www.w3.org/2000/svg" xmlns:xlink="http://www.w3.org/1999/xlink">
<g id="graph1" class="graph" transform="scale(1 1) rotate(0) translate(4 692)">
<title>G</title>
<polygon fill="white" stroke="white" points="-4,5 -4,-692 693,-692 693,5 -4,5"/>
<!-- Threadb3f16700 -->
<g id="node1" class="node"><title>Threadb3f16700</title>
<ellipse fill="none" stroke="black" cx="263" cy="-374" rx="116.88" ry="29.6985"/>
<text text-anchor="middle" x="263" y="-378.4" font-family="Times Roman,serif" font-size="14.00">Threadb3f16700</text>
<text text-anchor="middle" x="263" y="-361.4" font-family="Times Roman,serif" font-size="14.00">handle_requests_loop</text>
</g>
<!-- Cond602b20 -->
<g id="node3" class="node"><title>Cond602b20</title>
<polygon fill="none" stroke="black" points="217.859,-147 44.6886,-147 0.140918,-63 173.311,-63 217.859,-147"/>
<text text-anchor="middle" x="109" y="-109.4" font-family="Times Roman,serif" font-size="14.00">Cond602b20</text>
<text text-anchor="middle" x="109" y="-92.4" font-family="Times Roman,serif" font-size="14.00">got_request</text>
</g>
<!-- Threadb3f16700&#45;&gt;Cond602b20 -->
<g id="edge2" class="edge"><title>Threadb3f16700&#45;&gt;Cond602b20</title>
<path fill="none" stroke="red" stroke-width="3" d="M246.226,-344.7C218.864,-296.905 164.525,-201.988 133.057,-147.021"/>
</g>
<!-- Mutex602ae0 -->
<g id="node5" class="node"><title>Mutex602ae0</title>
<polygon fill="none" stroke="black" points="487.666,-147 346.334,-147 296,-63 538,-63 487.666,-147"/>
<text text-anchor="middle" x="417" y="-109.4" font-family="Times Roman,serif" font-size="14.00">Mutex602ae0</text>
<text text-anchor="middle" x="417" y="-92.4" font-family="Times Roman,serif" font-size="14.00">request_mutex</text>
</g>
<!-- Threadb3f16700&#45;&gt;Mutex602ae0 -->
<g id="edge4" class="edge"><title>Threadb3f16700&#45;&gt;Mutex602ae0</title>
<path fill="none" stroke="grey" stroke-width="3" d="M284.851,-335.831C313.426,-285.919 363.319,-198.768 392.943,-147.021"/>
<polygon fill="grey" stroke="grey" points="281.705,-334.283 279.774,-344.7 287.78,-337.761 281.705,-334.283"/>
</g>
<!-- Threadb3d14700 -->
<g id="node6" class="node"><title>Threadb3d14700</title>
<ellipse fill="none" stroke="black" cx="571" cy="-374" rx="116.88" ry="29.6985"/>
<text text-anchor="middle" x="571" y="-378.4" font-family="Times Roman,serif" font-size="14.00">Threadb3d14700</text>
<text text-anchor="middle" x="571" y="-361.4" font-family="Times Roman,serif" font-size="14.00">handle_requests_loop</text>
</g>
<!-- Threadb3b132e0 -->
<g id="node7" class="node"><title>Threadb3b132e0</title>
<ellipse fill="none" stroke="black" cx="340" cy="-613" rx="94.9596" ry="29.6985"/>
<text text-anchor="middle" x="340" y="-617.4" font-family="Times Roman,serif" font-size="14.00">Threadb3b132e0</text>
<text text-anchor="middle" x="340" y="-600.4" font-family="Times Roman,serif" font-size="14.00">{root}</text>
</g>
<!-- Threadb3b132e0&#45;&gt;Threadb3f16700 -->
<g id="edge12" class="edge"><title>Threadb3b132e0&#45;&gt;Threadb3f16700</title>
<path fill="none" stroke="black" stroke-width="3" stroke-dasharray="1,5" d="M330.404,-583.214C316.553,-540.223 290.941,-460.725 275.588,-413.072"/>
<polygon fill="black" stroke="black" points="278.873,-411.856 272.475,-403.411 272.211,-414.002 278.873,-411.856"/>
</g>
<!-- Threadb3b132e0&#45;&gt;Cond602b20 -->
<g id="edge8" class="edge"><title>Threadb3b132e0&#45;&gt;Cond602b20</title>
<path fill="none" stroke="black" stroke-width="3" stroke-dasharray="1,5" d="M295.593,-586.703C244.931,-551.365 164.753,-483.695 128,-404 91.1061,-323.999 90.7174,-219.342 97.3048,-157.432"/>
<polygon fill="black" stroke="black" points="100.824,-157.469 98.5124,-147.129 93.872,-156.654 100.824,-157.469"/>
</g>
<!-- Threadb3b132e0&#45;&gt;Cond602b20 -->
<g id="edge14" class="edge"><title>Threadb3b132e0&#45;&gt;Cond602b20</title>
<path fill="none" stroke="grey" stroke-dasharray="5,2" d="M306.02,-585.155C260.63,-549.412 182.224,-482.547 146,-404 108.649,-323.008 108.713,-216.743 110.182,-155.149"/>
<ellipse fill="grey" stroke="grey" cx="110.284" cy="-151.128" rx="4" ry="4"/>
</g>
<!-- Threadb3b132e0&#45;&gt;Mutex602ae0 -->
<g id="edge6" class="edge"><title>Threadb3b132e0&#45;&gt;Mutex602ae0</title>
<path fill="none" stroke="black" stroke-width="3" stroke-dasharray="1,5" d="M342.193,-583.491C350.234,-543.245 369.431,-468.736 380,-404 394.016,-318.148 401.656,-217.195 407.769,-157.294"/>
<polygon fill="black" stroke="black" points="411.253,-157.632 408.816,-147.321 404.291,-156.901 411.253,-157.632"/>
</g>
<!-- Threadb3b132e0&#45;&gt;Mutex602ae0 -->
<g id="edge16" class="edge"><title>Threadb3b132e0&#45;&gt;Mutex602ae0</title>
<path fill="none" stroke="grey" stroke-width="3" d="M354.344,-583.491C368.234,-543.245 387.431,-468.736 398,-404 411.987,-318.325 419.624,-217.612 420.779,-157.666"/>
<polygon fill="grey" stroke="grey" points="424.283,-157.367 420.916,-147.321 417.283,-157.273 424.283,-157.367"/>
</g>
<!-- Threadb3b132e0&#45;&gt;Threadb3d14700 -->
<g id="edge10" class="edge"><title>Threadb3b132e0&#45;&gt;Threadb3d14700</title>
<path fill="none" stroke="black" stroke-width="3" stroke-dasharray="1,5" d="M367.406,-584.645C409.493,-541.101 490.001,-457.804 536.167,-410.039"/>
<polygon fill="black" stroke="black" points="538.837,-412.313 543.271,-402.69 533.804,-407.448 538.837,-412.313"/>
</g>
</g>
</svg>
