<?xml version="1.0" encoding="UTF-8" standalone="no"?>
<!DOCTYPE svg PUBLIC "-//W3C//DTD SVG 1.1//EN"
 "http://www.w3.org/Graphics/SVG/1.1/DTD/svg11.dtd">
<!-- Generated by graphviz version 2.26.3 (20100126.1600)
 -->
<!-- Title: G Pages: 1 -->
<svg width="398pt" height="120pt"
 viewBox="0.00 0.00 398.00 120.00" xmlns="http://www.w3.org/2000/svg" xmlns:xlink="http://www.w3.org/1999/xlink">
<g id="graph1" class="graph" transform="scale(1 1) rotate(0) translate(4 116)">
<title>G</title>
<polygon fill="white" stroke="white" points="-4,5 -4,-116 395,-116 395,5 -4,5"/>
<!-- Thread2554929600 -->
<g id="node1" class="node"><title>Thread2554929600</title>
<ellipse fill="none" stroke="black" cx="179" cy="-93" rx="109.101" ry="18.3848"/>
<text text-anchor="middle" x="179" y="-89.4" font-family="Times Roman,serif" font-size="14.00">Thread2554929600</text>
</g>
<!-- Thread2557032192 -->
<g id="node3" class="node"><title>Thread2557032192</title>
<polygon fill="none" stroke="black" points="154,-37 7.10543e-14,-37 0,-1 154,-1 154,-37"/>
<text text-anchor="middle" x="77" y="-15.4" font-family="Times Roman,serif" font-size="14.00">Thread2557032192</text>
</g>
<!-- Thread2554929600&#45;&gt;Thread2557032192 -->
<g id="edge2" class="edge"><title>Thread2554929600&#45;&gt;Thread2557032192</title>
<path fill="none" stroke="black" d="M154.048,-74.8976C140.835,-65.3117 124.433,-53.4125 110.163,-43.0597"/>
<polygon fill="black" stroke="black" points="112.197,-40.2114 102.048,-37.172 108.087,-45.8773 112.197,-40.2114"/>
</g>
<!-- Thread2559137536 -->
<g id="node5" class="node"><title>Thread2559137536</title>
<ellipse fill="none" stroke="black" cx="281" cy="-19" rx="109.101" ry="18.3848"/>
<text text-anchor="middle" x="281" y="-15.4" font-family="Times Roman,serif" font-size="14.00">Thread2559137536</text>
</g>
<!-- Thread2554929600&#45;&gt;Thread2559137536 -->
<g id="edge4" class="edge"><title>Thread2554929600&#45;&gt;Thread2559137536</title>
<path fill="none" stroke="black" d="M203.952,-74.8976C217.165,-65.3117 233.567,-53.4125 247.837,-43.0597"/>
<polygon fill="black" stroke="black" points="249.913,-45.8773 255.952,-37.172 245.803,-40.2114 249.913,-45.8773"/>
</g>
</g>
</svg>
