<?xml version="1.0" encoding="UTF-8" standalone="no"?>
<!DOCTYPE svg PUBLIC "-//W3C//DTD SVG 1.1//EN"
 "http://www.w3.org/Graphics/SVG/1.1/DTD/svg11.dtd">
<!-- Generated by graphviz version 2.26.3 (20100126.1600)
 -->
<!-- Title: G Pages: 1 -->
<svg width="624pt" height="1240pt"
 viewBox="0.00 0.00 624.00 1240.00" xmlns="http://www.w3.org/2000/svg" xmlns:xlink="http://www.w3.org/1999/xlink">
<g id="graph1" class="graph" transform="scale(1 1) rotate(0) translate(4 1236)">
<title>G</title>
<polygon fill="white" stroke="white" points="-4,5 -4,-1236 621,-1236 621,5 -4,5"/>
<!-- Mutex602a40 -->
<g id="node1" class="node"><title>Mutex602a40</title>
<polygon fill="none" stroke="black" points="178.994,-1000 47.0061,-1000 4.26326e-14,-948 226,-948 178.994,-1000"/>
<text text-anchor="middle" x="113" y="-970.4" font-family="Times Roman,serif" font-size="14.00">Mutex602a40</text>
</g>
<!-- Cond602a80 -->
<g id="node2" class="node"><title>Cond602a80</title>
<polygon fill="none" stroke="black" points="461.859,-1000 288.689,-1000 244.141,-948 417.311,-948 461.859,-1000"/>
<text text-anchor="middle" x="353" y="-970.4" font-family="Times Roman,serif" font-size="14.00">Cond602a80</text>
</g>
<!-- Thread169d8700 -->
<g id="node3" class="node"><title>Thread169d8700</title>
<polygon fill="none" stroke="black" points="616,-197 480,-197 480,-161 616,-161 616,-197"/>
<text text-anchor="middle" x="548" y="-175.4" font-family="Times Roman,serif" font-size="14.00">Thread169d8700</text>
</g>
<!-- Thread167d72e0 -->
<g id="node4" class="node"><title>Thread167d72e0</title>
<polygon fill="none" stroke="black" points="616,-992 480,-992 480,-956 616,-956 616,-992"/>
<text text-anchor="middle" x="548" y="-970.4" font-family="Times Roman,serif" font-size="14.00">Thread167d72e0</text>
</g>
<!-- Thread167d72e0&#45;&gt;Thread169d8700 -->
<g id="edge2" class="edge"><title>Thread167d72e0&#45;&gt;Thread169d8700</title>
<path fill="none" stroke="black" d="M548,-955.902C548,-852.258 548,-334.207 548,-207.162"/>
<polygon fill="black" stroke="black" points="551.5,-207.07 548,-197.07 544.5,-207.07 551.5,-207.07"/>
</g>
</g>
</svg>
