<?xml version="1.0" encoding="UTF-8" standalone="no"?>
<!DOCTYPE svg PUBLIC "-//W3C//DTD SVG 1.1//EN"
 "http://www.w3.org/Graphics/SVG/1.1/DTD/svg11.dtd">
<!-- Generated by graphviz version 2.26.3 (20100126.1600)
 -->
<!-- Title: G Pages: 1 -->
<svg width="786pt" height="786pt"
 viewBox="0.00 0.00 786.00 786.00" xmlns="http://www.w3.org/2000/svg" xmlns:xlink="http://www.w3.org/1999/xlink">
<g id="graph1" class="graph" transform="scale(1 1) rotate(0) translate(4 782)">
<title>G</title>
<polygon fill="white" stroke="white" points="-4,5 -4,-782 783,-782 783,5 -4,5"/>
<!-- Threadb3f16700 -->
<g id="node1" class="node"><title>Threadb3f16700</title>
<ellipse fill="none" stroke="black" cx="117" cy="-420" rx="116.88" ry="29.6985"/>
<text text-anchor="middle" x="117" y="-424.4" font-family="Times Roman,serif" font-size="14.00">Threadb3f16700</text>
<text text-anchor="middle" x="117" y="-407.4" font-family="Times Roman,serif" font-size="14.00">handle_requests_loop</text>
</g>
<!-- Mutex602ae0 -->
<g id="node3" class="node"><title>Mutex602ae0</title>
<polygon fill="none" stroke="black" points="341.666,-151 200.334,-151 150,-67 392,-67 341.666,-151"/>
<text text-anchor="middle" x="271" y="-113.4" font-family="Times Roman,serif" font-size="14.00">Mutex602ae0</text>
<text text-anchor="middle" x="271" y="-96.4" font-family="Times Roman,serif" font-size="14.00">request_mutex</text>
</g>
<!-- Threadb3f16700&#45;&gt;Mutex602ae0 -->
<g id="edge2" class="edge"><title>Threadb3f16700&#45;&gt;Mutex602ae0</title>
<path fill="none" stroke="green" stroke-width="3" d="M136.232,-381.162C165.295,-322.469 220.188,-211.615 250.168,-151.07"/>
<polygon fill="green" stroke="green" points="132.928,-379.947 131.627,-390.461 139.201,-383.053 132.928,-379.947"/>
</g>
<!-- Threadb3d14700 -->
<g id="node4" class="node"><title>Threadb3d14700</title>
<ellipse fill="none" stroke="black" cx="425" cy="-420" rx="116.88" ry="29.6985"/>
<text text-anchor="middle" x="425" y="-424.4" font-family="Times Roman,serif" font-size="14.00">Threadb3d14700</text>
<text text-anchor="middle" x="425" y="-407.4" font-family="Times Roman,serif" font-size="14.00">handle_requests_loop</text>
</g>
<!-- Threadb3b132e0 -->
<g id="node5" class="node"><title>Threadb3b132e0</title>
<ellipse fill="none" stroke="black" cx="271" cy="-700" rx="94.9596" ry="29.6985"/>
<text text-anchor="middle" x="271" y="-704.4" font-family="Times Roman,serif" font-size="14.00">Threadb3b132e0</text>
<text text-anchor="middle" x="271" y="-687.4" font-family="Times Roman,serif" font-size="14.00">{root}</text>
</g>
<!-- Threadb3b132e0&#45;&gt;Threadb3f16700 -->
<g id="edge10" class="edge"><title>Threadb3b132e0&#45;&gt;Threadb3f16700</title>
<path fill="none" stroke="black" stroke-width="3" stroke-dasharray="1,5" d="M254.955,-670.827C227.006,-620.01 169.397,-515.267 138.196,-458.538"/>
<polygon fill="black" stroke="black" points="141.126,-456.603 133.24,-449.528 134.993,-459.977 141.126,-456.603"/>
</g>
<!-- Threadb3b132e0&#45;&gt;Mutex602ae0 -->
<g id="edge4" class="edge"><title>Threadb3b132e0&#45;&gt;Mutex602ae0</title>
<path fill="none" stroke="black" stroke-width="3" stroke-dasharray="1,5" d="M267.832,-670.287C263.369,-575.898 263.076,-282.022 266.953,-161.438"/>
<polygon fill="black" stroke="black" points="270.455,-161.46 267.303,-151.345 263.459,-161.218 270.455,-161.46"/>
</g>
<!-- Threadb3b132e0&#45;&gt;Mutex602ae0 -->
<g id="edge12" class="edge"><title>Threadb3b132e0&#45;&gt;Mutex602ae0</title>
<path fill="none" stroke="red" stroke-width="3" d="M274.168,-670.287C278.631,-575.898 278.924,-282.022 275.047,-161.438"/>
<polygon fill="red" stroke="red" points="278.541,-161.218 274.697,-151.345 271.545,-161.46 278.541,-161.218"/>
</g>
<!-- Threadb3b132e0&#45;&gt;Threadb3d14700 -->
<g id="edge8" class="edge"><title>Threadb3b132e0&#45;&gt;Threadb3d14700</title>
<path fill="none" stroke="black" stroke-width="3" stroke-dasharray="1,5" d="M287.045,-670.827C314.994,-620.01 372.603,-515.267 403.804,-458.538"/>
<polygon fill="black" stroke="black" points="407.007,-459.977 408.76,-449.528 400.874,-456.603 407.007,-459.977"/>
</g>
<!-- Cond602b20 -->
<g id="node8" class="node"><title>Cond602b20</title>
<polygon fill="none" stroke="black" points="777.859,-462 604.689,-462 560.141,-378 733.311,-378 777.859,-462"/>
<text text-anchor="middle" x="669" y="-424.4" font-family="Times Roman,serif" font-size="14.00">Cond602b20</text>
<text text-anchor="middle" x="669" y="-407.4" font-family="Times Roman,serif" font-size="14.00">got_request</text>
</g>
<!-- Threadb3b132e0&#45;&gt;Cond602b20 -->
<g id="edge6" class="edge"><title>Threadb3b132e0&#45;&gt;Cond602b20</title>
<path fill="none" stroke="black" stroke-width="3" stroke-dasharray="1,5" d="M309.524,-672.898C376.924,-625.481 517.048,-526.901 601.059,-467.798"/>
<polygon fill="black" stroke="black" points="603.095,-470.645 609.26,-462.028 599.067,-464.92 603.095,-470.645"/>
</g>
</g>
</svg>
