<?xml version="1.0" encoding="UTF-8" standalone="no"?>
<!DOCTYPE svg PUBLIC "-//W3C//DTD SVG 1.1//EN"
 "http://www.w3.org/Graphics/SVG/1.1/DTD/svg11.dtd">
<!-- Generated by graphviz version 2.26.3 (20100126.1600)
 -->
<!-- Title: G Pages: 1 -->
<svg width="696pt" height="696pt"
 viewBox="0.00 0.00 696.00 696.00" xmlns="http://www.w3.org/2000/svg" xmlns:xlink="http://www.w3.org/1999/xlink">
<g id="graph1" class="graph" transform="scale(1 1) rotate(0) translate(4 692)">
<title>G</title>
<polygon fill="white" stroke="white" points="-4,5 -4,-692 693,-692 693,5 -4,5"/>
<!-- Threadb3f16700 -->
<g id="node1" class="node"><title>Threadb3f16700</title>
<ellipse fill="none" stroke="lightgrey" cx="425" cy="-374" rx="116.88" ry="29.6985"/>
<text text-anchor="middle" x="425" y="-378.4" font-family="Times Roman,serif" font-size="14.00">Threadb3f16700</text>
<text text-anchor="middle" x="425" y="-361.4" font-family="Times Roman,serif" font-size="14.00">handle_requests_loop</text>
</g>
<!-- Cond602b20 -->
<g id="node3" class="node"><title>Cond602b20</title>
<polygon fill="none" stroke="black" points="687.859,-147 514.689,-147 470.141,-63 643.311,-63 687.859,-147"/>
<text text-anchor="middle" x="579" y="-109.4" font-family="Times Roman,serif" font-size="14.00">Cond602b20</text>
<text text-anchor="middle" x="579" y="-92.4" font-family="Times Roman,serif" font-size="14.00">got_request</text>
</g>
<!-- Threadb3f16700&#45;&gt;Cond602b20 -->
<g id="edge2" class="edge"><title>Threadb3f16700&#45;&gt;Cond602b20</title>
<path fill="none" stroke="grey" stroke-width="3" d="M446.851,-335.831C475.426,-285.919 525.319,-198.768 554.943,-147.021"/>
<polygon fill="grey" stroke="grey" points="443.705,-334.283 441.774,-344.7 449.78,-337.761 443.705,-334.283"/>
</g>
<!-- Mutex602ae0 -->
<g id="node5" class="node"><title>Mutex602ae0</title>
<polygon fill="none" stroke="black" points="341.666,-147 200.334,-147 150,-63 392,-63 341.666,-147"/>
<text text-anchor="middle" x="271" y="-109.4" font-family="Times Roman,serif" font-size="14.00">Mutex602ae0</text>
<text text-anchor="middle" x="271" y="-92.4" font-family="Times Roman,serif" font-size="14.00">request_mutex</text>
</g>
<!-- Threadb3f16700&#45;&gt;Mutex602ae0 -->
<g id="edge4" class="edge"><title>Threadb3f16700&#45;&gt;Mutex602ae0</title>
<path fill="none" stroke="grey" stroke-width="3" d="M408.226,-344.7C382.307,-299.425 332.181,-211.868 300.218,-156.037"/>
<polygon fill="grey" stroke="grey" points="303.062,-153.96 295.057,-147.021 296.987,-157.438 303.062,-153.96"/>
</g>
<!-- Threadb3d14700 -->
<g id="node6" class="node"><title>Threadb3d14700</title>
<ellipse fill="none" stroke="lightgrey" cx="117" cy="-374" rx="116.88" ry="29.6985"/>
<text text-anchor="middle" x="117" y="-378.4" font-family="Times Roman,serif" font-size="14.00">Threadb3d14700</text>
<text text-anchor="middle" x="117" y="-361.4" font-family="Times Roman,serif" font-size="14.00">handle_requests_loop</text>
</g>
<!-- Threadb3d14700&#45;&gt;Mutex602ae0 -->
<g id="edge6" class="edge"><title>Threadb3d14700&#45;&gt;Mutex602ae0</title>
<path fill="none" stroke="grey" stroke-width="3" d="M133.774,-344.7C159.693,-299.425 209.819,-211.868 241.782,-156.037"/>
<polygon fill="grey" stroke="grey" points="245.013,-157.438 246.943,-147.021 238.938,-153.96 245.013,-157.438"/>
</g>
<!-- Threadb3b132e0 -->
<g id="node8" class="node"><title>Threadb3b132e0</title>
<ellipse fill="none" stroke="black" cx="348" cy="-613" rx="94.9596" ry="29.6985"/>
<text text-anchor="middle" x="348" y="-617.4" font-family="Times Roman,serif" font-size="14.00">Threadb3b132e0</text>
<text text-anchor="middle" x="348" y="-600.4" font-family="Times Roman,serif" font-size="14.00">{root}</text>
</g>
<!-- Threadb3d14700&#45;&gt;Threadb3b132e0 -->
<g id="edge18" class="edge"><title>Threadb3d14700&#45;&gt;Threadb3b132e0</title>
<path fill="none" stroke="grey" stroke-width="3" d="M149.171,-402.559C194.398,-446.477 275.719,-530.486 319.112,-577.999"/>
<ellipse fill="none" stroke="grey" cx="322.03" cy="-581.211" rx="4.00002" ry="4.00002"/>
</g>
<!-- Threadb3b132e0&#45;&gt;Threadb3f16700 -->
<g id="edge14" class="edge"><title>Threadb3b132e0&#45;&gt;Threadb3f16700</title>
<path fill="none" stroke="grey" stroke-width="3" stroke-dasharray="1,5" d="M352.953,-583.214C364.198,-540.133 389.725,-460.392 407.375,-412.773"/>
<polygon fill="grey" stroke="grey" points="410.652,-414.003 410.904,-403.411 404.102,-411.534 410.652,-414.003"/>
</g>
<!-- Threadb3b132e0&#45;&gt;Threadb3f16700 -->
<g id="edge16" class="edge"><title>Threadb3b132e0&#45;&gt;Threadb3f16700</title>
<path fill="none" stroke="red" stroke-width="3" d="M362.056,-583.694C378.713,-540.332 405.039,-459.09 417.999,-411.461"/>
<ellipse fill="none" stroke="red" cx="419.079" cy="-407.411" rx="4.00001" ry="4.00001"/>
</g>
<!-- Threadb3b132e0&#45;&gt;Cond602b20 -->
<g id="edge10" class="edge"><title>Threadb3b132e0&#45;&gt;Cond602b20</title>
<path fill="none" stroke="black" stroke-width="3" stroke-dasharray="1,5" d="M381.98,-585.155C427.37,-549.412 505.776,-482.547 542,-404 578.894,-323.999 579.283,-219.342 577.871,-157.432"/>
<polygon fill="black" stroke="black" points="581.363,-157.039 577.615,-147.129 574.365,-157.213 581.363,-157.039"/>
</g>
<!-- Threadb3b132e0&#45;&gt;Cond602b20 -->
<g id="edge20" class="edge"><title>Threadb3b132e0&#45;&gt;Cond602b20</title>
<path fill="none" stroke="grey" stroke-dasharray="5,2" d="M392.407,-586.703C443.069,-551.365 523.247,-483.695 560,-404 596.894,-323.999 597.283,-219.342 590.695,-157.432"/>
<polygon fill="grey" stroke="grey" points="594.128,-156.654 589.488,-147.129 587.176,-157.469 594.128,-156.654"/>
</g>
<!-- Threadb3b132e0&#45;&gt;Mutex602ae0 -->
<g id="edge22" class="edge"><title>Threadb3b132e0&#45;&gt;Mutex602ae0</title>
<path fill="none" stroke="grey" stroke-width="3" d="M333.656,-583.491C319.766,-543.245 300.569,-468.736 290,-404 276.013,-318.325 268.376,-217.612 267.221,-157.666"/>
<polygon fill="grey" stroke="grey" points="270.717,-157.273 267.084,-147.321 263.717,-157.367 270.717,-157.273"/>
</g>
<!-- Threadb3b132e0&#45;&gt;Mutex602ae0 -->
<g id="edge8" class="edge"><title>Threadb3b132e0&#45;&gt;Mutex602ae0</title>
<path fill="none" stroke="black" stroke-width="3" stroke-dasharray="1,5" d="M345.807,-583.491C337.766,-543.245 318.569,-468.736 308,-404 293.984,-318.148 286.344,-217.195 280.231,-157.294"/>
<polygon fill="black" stroke="black" points="283.709,-156.901 279.184,-147.321 276.747,-157.632 283.709,-156.901"/>
</g>
<!-- Threadb3b132e0&#45;&gt;Threadb3d14700 -->
<g id="edge12" class="edge"><title>Threadb3b132e0&#45;&gt;Threadb3d14700</title>
<path fill="none" stroke="grey" stroke-width="3" stroke-dasharray="1,5" d="M316.525,-585.116C272.027,-541.958 191.633,-458.957 147.612,-410.887"/>
<polygon fill="grey" stroke="grey" points="149.931,-408.234 140.611,-403.196 144.755,-412.947 149.931,-408.234"/>
</g>
</g>
</svg>
