<?xml version="1.0" encoding="UTF-8" standalone="no"?>
<!DOCTYPE svg PUBLIC "-//W3C//DTD SVG 1.1//EN"
 "http://www.w3.org/Graphics/SVG/1.1/DTD/svg11.dtd">
<!-- Generated by graphviz version 2.26.3 (20100126.1600)
 -->
<!-- Title: G Pages: 1 -->
<svg width="334pt" height="660pt"
 viewBox="0.00 0.00 334.00 660.00" xmlns="http://www.w3.org/2000/svg" xmlns:xlink="http://www.w3.org/1999/xlink">
<g id="graph1" class="graph" transform="scale(1 1) rotate(0) translate(4 656)">
<title>G</title>
<polygon fill="white" stroke="white" points="-4,5 -4,-656 331,-656 331,5 -4,5"/>
<!-- Thread2554929600 -->
<g id="node1" class="node"><title>Thread2554929600</title>
<ellipse fill="none" stroke="black" cx="163" cy="-539" rx="109.101" ry="18.3848"/>
<text text-anchor="middle" x="163" y="-535.4" font-family="Times Roman,serif" font-size="14.00">Thread2554929600</text>
</g>
<!-- Thread2557032192 -->
<g id="node3" class="node"><title>Thread2557032192</title>
<polygon fill="none" stroke="black" points="154,-125 7.10543e-14,-125 0,-89 154,-89 154,-125"/>
<text text-anchor="middle" x="77" y="-103.4" font-family="Times Roman,serif" font-size="14.00">Thread2557032192</text>
</g>
<!-- Thread2554929600&#45;&gt;Thread2557032192 -->
<g id="edge2" class="edge"><title>Thread2554929600&#45;&gt;Thread2557032192</title>
<path fill="none" stroke="black" d="M159.305,-520.438C145.766,-452.431 98.8245,-216.63 82.5821,-135.04"/>
<polygon fill="black" stroke="black" points="85.971,-134.137 80.5858,-125.013 79.1057,-135.503 85.971,-134.137"/>
</g>
<!-- Thread2559137536 -->
<g id="node5" class="node"><title>Thread2559137536</title>
<polygon fill="none" stroke="black" points="326,-125 172,-125 172,-89 326,-89 326,-125"/>
<text text-anchor="middle" x="249" y="-103.4" font-family="Times Roman,serif" font-size="14.00">Thread2559137536</text>
</g>
<!-- Thread2554929600&#45;&gt;Thread2559137536 -->
<g id="edge4" class="edge"><title>Thread2554929600&#45;&gt;Thread2559137536</title>
<path fill="none" stroke="black" d="M166.695,-520.438C180.234,-452.431 227.175,-216.63 243.418,-135.04"/>
<polygon fill="black" stroke="black" points="246.894,-135.503 245.414,-125.013 240.029,-134.137 246.894,-135.503"/>
</g>
</g>
</svg>
