<?xml version="1.0" encoding="UTF-8" standalone="no"?>
<!DOCTYPE svg PUBLIC "-//W3C//DTD SVG 1.1//EN"
 "http://www.w3.org/Graphics/SVG/1.1/DTD/svg11.dtd">
<!-- Generated by graphviz version 2.26.3 (20100126.1600)
 -->
<!-- Title: G Pages: 1 -->
<svg width="334pt" height="118pt"
 viewBox="0.00 0.00 334.00 118.00" xmlns="http://www.w3.org/2000/svg" xmlns:xlink="http://www.w3.org/1999/xlink">
<g id="graph1" class="graph" transform="scale(1 1) rotate(0) translate(4 114)">
<title>G</title>
<polygon fill="white" stroke="white" points="-4,5 -4,-114 331,-114 331,5 -4,5"/>
<!-- Thread2554929600 -->
<g id="node1" class="node"><title>Thread2554929600</title>
<ellipse fill="none" stroke="black" cx="163" cy="-91" rx="109.101" ry="18.3848"/>
<text text-anchor="middle" x="163" y="-87.4" font-family="Times Roman,serif" font-size="14.00">Thread2554929600</text>
</g>
<!-- Thread2557032192 -->
<g id="node3" class="node"><title>Thread2557032192</title>
<polygon fill="none" stroke="black" points="154,-36 7.10543e-14,-36 0,-1.77636e-14 154,-3.55271e-15 154,-36"/>
<text text-anchor="middle" x="77" y="-14.4" font-family="Times Roman,serif" font-size="14.00">Thread2557032192</text>
</g>
<!-- Thread2554929600&#45;&gt;Thread2557032192 -->
<g id="edge2" class="edge"><title>Thread2554929600&#45;&gt;Thread2557032192</title>
<path fill="none" stroke="black" d="M141.299,-72.579C130.625,-63.5191 117.61,-52.4709 106.088,-42.6906"/>
<polygon fill="black" stroke="black" points="108.285,-39.9653 98.3966,-36.1622 103.755,-45.3019 108.285,-39.9653"/>
</g>
<!-- Thread2559137536 -->
<g id="node5" class="node"><title>Thread2559137536</title>
<polygon fill="none" stroke="black" points="326,-36 172,-36 172,-1.77636e-14 326,-3.55271e-15 326,-36"/>
<text text-anchor="middle" x="249" y="-14.4" font-family="Times Roman,serif" font-size="14.00">Thread2559137536</text>
</g>
<!-- Thread2554929600&#45;&gt;Thread2559137536 -->
<g id="edge4" class="edge"><title>Thread2554929600&#45;&gt;Thread2559137536</title>
<path fill="none" stroke="black" d="M184.701,-72.579C195.375,-63.5191 208.39,-52.4709 219.912,-42.6906"/>
<polygon fill="black" stroke="black" points="222.245,-45.3019 227.603,-36.1622 217.715,-39.9653 222.245,-45.3019"/>
</g>
</g>
</svg>
