<?xml version="1.0" encoding="UTF-8" standalone="no"?>
<!DOCTYPE svg PUBLIC "-//W3C//DTD SVG 1.1//EN"
 "http://www.w3.org/Graphics/SVG/1.1/DTD/svg11.dtd">
<!-- Generated by graphviz version 2.26.3 (20100126.1600)
 -->
<!-- Title: G Pages: 1 -->
<svg width="546pt" height="546pt"
 viewBox="0.00 0.00 546.00 546.00" xmlns="http://www.w3.org/2000/svg" xmlns:xlink="http://www.w3.org/1999/xlink">
<g id="graph1" class="graph" transform="scale(1 1) rotate(0) translate(4 542)">
<title>G</title>
<polygon fill="white" stroke="white" points="-4,5 -4,-542 543,-542 543,5 -4,5"/>
<!-- Threada775700 -->
<g id="node1" class="node"><title>Threada775700</title>
<ellipse fill="none" stroke="lightgrey" cx="275" cy="-217" rx="116.88" ry="29.6985"/>
<text text-anchor="middle" x="275" y="-221.4" font-family="Times Roman,serif" font-size="14.00">Threada775700</text>
<text text-anchor="middle" x="275" y="-204.4" font-family="Times Roman,serif" font-size="14.00">handle_requests_loop</text>
</g>
<!-- Cond602b20 -->
<g id="node3" class="node"><title>Cond602b20</title>
<polygon fill="none" stroke="red" points="537.859,-103 364.689,-103 320.141,-19 493.311,-19 537.859,-103"/>
<text text-anchor="middle" x="429" y="-65.4" font-family="Times Roman,serif" font-size="14.00">Cond602b20</text>
<text text-anchor="middle" x="429" y="-48.4" font-family="Times Roman,serif" font-size="14.00">got_request</text>
</g>
<!-- Threada775700&#45;&gt;Cond602b20 -->
<g id="edge2" class="edge"><title>Threada775700&#45;&gt;Cond602b20</title>
<path fill="none" stroke="grey" stroke-width="3" d="M303.605,-188.023C324.692,-166.663 353.921,-137.054 378.855,-111.796"/>
<polygon fill="none" stroke="grey" points="379.045,-111.604 380.413,-104.524 387.475,-103.064 386.107,-110.144 379.045,-111.604"/>
</g>
<!-- Mutex602ae0 -->
<g id="node5" class="node"><title>Mutex602ae0</title>
<polygon fill="none" stroke="black" points="191.666,-103 50.334,-103 4.26326e-14,-19 242,-19 191.666,-103"/>
<text text-anchor="middle" x="121" y="-65.4" font-family="Times Roman,serif" font-size="14.00">Mutex602ae0</text>
<text text-anchor="middle" x="121" y="-48.4" font-family="Times Roman,serif" font-size="14.00">request_mutex</text>
</g>
<!-- Threada775700&#45;&gt;Mutex602ae0 -->
<g id="edge4" class="edge"><title>Threada775700&#45;&gt;Mutex602ae0</title>
<path fill="none" stroke="grey" stroke-width="3" d="M239.214,-180.749C216.299,-157.537 186.481,-127.331 162.525,-103.064"/>
<polygon fill="grey" stroke="grey" points="236.879,-183.365 246.395,-188.023 241.86,-178.448 236.879,-183.365"/>
</g>
<!-- Threada977700 -->
<g id="node6" class="node"><title>Threada977700</title>
<ellipse fill="none" stroke="lightgrey" cx="275" cy="-495" rx="116.88" ry="29.6985"/>
<text text-anchor="middle" x="275" y="-499.4" font-family="Times Roman,serif" font-size="14.00">Threada977700</text>
<text text-anchor="middle" x="275" y="-482.4" font-family="Times Roman,serif" font-size="14.00">handle_requests_loop</text>
</g>
<!-- Threada977700&#45;&gt;Cond602b20 -->
<g id="edge6" class="edge"><title>Threada977700&#45;&gt;Cond602b20</title>
<path fill="none" stroke="grey" stroke-width="3" d="M313.222,-459.1C333.143,-438.966 356.858,-412.602 374,-386 410.448,-329.439 420.385,-312.896 434,-247 444.033,-198.44 440.237,-141.241 435.588,-103.222"/>
<polygon fill="grey" stroke="grey" points="310.686,-456.687 306.074,-466.225 315.627,-461.645 310.686,-456.687"/>
</g>
<!-- Threada977700&#45;&gt;Mutex602ae0 -->
<g id="edge8" class="edge"><title>Threada977700&#45;&gt;Mutex602ae0</title>
<path fill="none" stroke="grey" stroke-width="3" d="M243.399,-466.555C222.011,-445.918 194.406,-416.395 176,-386 141.913,-329.712 137.207,-311.663 125,-247 116.593,-202.468 116.2,-150.877 117.562,-113.342"/>
<polygon fill="grey" stroke="grey" points="121.067,-113.283 117.987,-103.146 114.073,-112.991 121.067,-113.283"/>
</g>
<!-- Threada5742e0 -->
<g id="node9" class="node"><title>Threada5742e0</title>
<ellipse fill="none" stroke="black" cx="275" cy="-356" rx="89.8026" ry="29.6985"/>
<text text-anchor="middle" x="275" y="-360.4" font-family="Times Roman,serif" font-size="14.00">Threada5742e0</text>
<text text-anchor="middle" x="275" y="-343.4" font-family="Times Roman,serif" font-size="14.00">{root}</text>
</g>
<!-- Threada977700&#45;&gt;Threada5742e0 -->
<g id="edge20" class="edge"><title>Threada977700&#45;&gt;Threada5742e0</title>
<path fill="none" stroke="grey" stroke-width="3" d="M268.841,-455.443C267.913,-433.339 268.078,-406.239 269.337,-385.915"/>
<polygon fill="grey" stroke="grey" points="265.35,-455.717 269.364,-465.522 272.341,-455.354 265.35,-455.717"/>
</g>
<!-- Threada5742e0&#45;&gt;Threada775700 -->
<g id="edge14" class="edge"><title>Threada5742e0&#45;&gt;Threada775700</title>
<path fill="none" stroke="grey" stroke-width="3" stroke-dasharray="1,5" d="M269.364,-326.522C268.09,-306.296 267.909,-279.209 268.821,-257.034"/>
<polygon fill="grey" stroke="grey" points="269.337,-246.915 273.322,-257.131 270.081,-251.959 269.826,-256.953 268.828,-256.902 267.829,-256.851 268.083,-251.858 264.333,-256.673 269.337,-246.915 269.337,-246.915"/>
</g>
<!-- Threada5742e0&#45;&gt;Threada775700 -->
<g id="edge18" class="edge"><title>Threada5742e0&#45;&gt;Threada775700</title>
<path fill="none" stroke="grey" stroke-width="3" stroke-dasharray="5,2" d="M280.636,-326.522C281.951,-305.655 282.102,-277.486 281.089,-254.942"/>
<ellipse fill="grey" stroke="grey" cx="280.875" cy="-250.909" rx="4" ry="4"/>
</g>
<!-- Threada5742e0&#45;&gt;Cond602b20 -->
<g id="edge22" class="edge"><title>Threada5742e0&#45;&gt;Cond602b20</title>
<path fill="none" stroke="grey" stroke-dasharray="5,2" d="M312.234,-329.102C338.898,-309.854 373.089,-281.328 392,-247 414.251,-206.608 420.474,-154.18 423.091,-115.286"/>
<polygon fill="grey" stroke="grey" points="423.1,-115.144 419.472,-108.912 423.83,-103.166 427.457,-109.398 423.1,-115.144"/>
</g>
<!-- Threada5742e0&#45;&gt;Cond602b20 -->
<g id="edge12" class="edge"><title>Threada5742e0&#45;&gt;Cond602b20</title>
<path fill="none" stroke="black" stroke-width="3" stroke-dasharray="1,5" d="M324.339,-331.195C354.354,-311.951 390.392,-282.595 410,-247 432.636,-205.909 438.684,-152.361 438.043,-113.278"/>
<polygon fill="black" stroke="black" points="437.718,-103.166 442.537,-113.016 438.878,-108.131 439.039,-113.129 438.039,-113.161 437.04,-113.193 436.879,-108.196 433.541,-113.306 437.718,-103.166 437.718,-103.166"/>
</g>
<!-- Threada5742e0&#45;&gt;Mutex602ae0 -->
<g id="edge24" class="edge"><title>Threada5742e0&#45;&gt;Mutex602ae0</title>
<path fill="none" stroke="grey" stroke-width="3" d="M225.661,-331.195C195.646,-311.951 159.608,-282.595 140,-247 117.364,-205.909 111.316,-152.361 111.957,-113.278"/>
<polygon fill="grey" stroke="grey" points="115.459,-113.274 112.282,-103.166 108.463,-113.048 115.459,-113.274"/>
</g>
<!-- Threada5742e0&#45;&gt;Mutex602ae0 -->
<g id="edge10" class="edge"><title>Threada5742e0&#45;&gt;Mutex602ae0</title>
<path fill="none" stroke="black" stroke-width="3" stroke-dasharray="1,5" d="M237.766,-329.102C211.102,-309.854 176.911,-281.328 158,-247 135.364,-205.909 129.316,-152.361 126.776,-113.278"/>
<polygon fill="black" stroke="black" points="126.17,-103.166 131.26,-112.879 127.467,-108.097 127.767,-113.088 126.768,-113.148 125.77,-113.208 125.471,-108.217 122.276,-113.418 126.17,-103.166 126.17,-103.166"/>
</g>
<!-- Threada5742e0&#45;&gt;Threada977700 -->
<g id="edge16" class="edge"><title>Threada5742e0&#45;&gt;Threada977700</title>
<path fill="none" stroke="grey" stroke-width="3" stroke-dasharray="1,5" d="M280.663,-385.915C281.922,-406.239 282.087,-433.339 281.159,-455.443"/>
<polygon fill="grey" stroke="grey" points="280.636,-465.522 276.661,-455.302 279.897,-460.477 280.156,-455.483 281.154,-455.535 282.153,-455.587 281.894,-460.58 285.648,-455.768 280.636,-465.522 280.636,-465.522"/>
</g>
</g>
</svg>
