<?xml version="1.0" encoding="UTF-8" standalone="no"?>
<!DOCTYPE svg PUBLIC "-//W3C//DTD SVG 1.1//EN"
 "http://www.w3.org/Graphics/SVG/1.1/DTD/svg11.dtd">
<!-- Generated by graphviz version 2.26.3 (20100126.1600)
 -->
<!-- Title: G Pages: 1 -->
<svg width="532pt" height="498pt"
 viewBox="0.00 0.00 532.39 498.00" xmlns="http://www.w3.org/2000/svg" xmlns:xlink="http://www.w3.org/1999/xlink">
<g id="graph1" class="graph" transform="scale(1 1) rotate(0) translate(4 494)">
<title>G</title>
<polygon fill="white" stroke="white" points="-4,5 -4,-494 529.388,-494 529.388,5 -4,5"/>
<!-- Mutex602a40 -->
<g id="node1" class="node"><title>Mutex602a40</title>
<polygon fill="none" stroke="black" points="203.543,-117 62.2107,-117 11.8768,-33 253.877,-33 203.543,-117"/>
<text text-anchor="middle" x="132.877" y="-79.4" font-family="Times Roman,serif" font-size="14.00">Mutex602a40</text>
<text text-anchor="middle" x="132.877" y="-62.4" font-family="Times Roman,serif" font-size="14.00">request_mutex</text>
</g>
<!-- Cond602a80 -->
<g id="node2" class="node"><title>Cond602a80</title>
<polygon fill="none" stroke="black" points="493.736,-117 320.565,-117 276.018,-33 449.188,-33 493.736,-117"/>
<text text-anchor="middle" x="384.877" y="-79.4" font-family="Times Roman,serif" font-size="14.00">Cond602a80</text>
<text text-anchor="middle" x="384.877" y="-62.4" font-family="Times Roman,serif" font-size="14.00">got_request</text>
</g>
<!-- Thread7ae662e0 -->
<g id="node3" class="node"><title>Thread7ae662e0</title>
<ellipse fill="none" stroke="black" cx="132.877" cy="-437" rx="94.9596" ry="29.6985"/>
<text text-anchor="middle" x="132.877" y="-441.4" font-family="Times Roman,serif" font-size="14.00">Thread7ae662e0</text>
<text text-anchor="middle" x="132.877" y="-424.4" font-family="Times Roman,serif" font-size="14.00">{root}</text>
</g>
<!-- Thread7ae662e0&#45;&gt;Mutex602a40 -->
<g id="edge4" class="edge"><title>Thread7ae662e0&#45;&gt;Mutex602a40</title>
<path fill="none" stroke="lightgray" stroke-width="2" d="M96.7979,-409.681C66.2967,-384.125 24.7888,-342.926 6.87677,-296 -2.63287,-271.087 -1.81539,-261.21 6.87677,-236 21.4885,-193.621 52.3503,-153.871 79.8718,-124.471"/>
<polygon fill="lightgray" stroke="lightgray" points="82.415,-126.876 86.785,-117.224 77.35,-122.044 82.415,-126.876"/>
</g>
<!-- Thread7ae662e0&#45;&gt;Cond602a80 -->
<g id="edge6" class="edge"><title>Thread7ae662e0&#45;&gt;Cond602a80</title>
<path fill="none" stroke="lightgray" stroke-dasharray="5,2" d="M209.399,-419.342C309.301,-394.559 475.625,-346.774 510.877,-296 550.168,-239.407 494.792,-169.726 445.529,-123.92"/>
<polygon fill="lightgray" stroke="lightgray" points="447.752,-121.211 438.005,-117.059 443.036,-126.383 447.752,-121.211"/>
</g>
<!-- Thread7b269700 -->
<g id="node5" class="node"><title>Thread7b269700</title>
<ellipse fill="none" stroke="black" cx="132.877" cy="-266" rx="116.88" ry="29.6985"/>
<text text-anchor="middle" x="132.877" y="-270.4" font-family="Times Roman,serif" font-size="14.00">Thread7b269700</text>
<text text-anchor="middle" x="132.877" y="-253.4" font-family="Times Roman,serif" font-size="14.00">handle_requests_loop</text>
</g>
<!-- Thread7ae662e0&#45;&gt;Thread7b269700 -->
<g id="edge2" class="edge"><title>Thread7ae662e0&#45;&gt;Thread7b269700</title>
<path fill="none" stroke="black" stroke-width="2" d="M127.61,-407.214C125.794,-378.491 125.646,-334.908 127.166,-303.763"/>
<ellipse fill="none" stroke="black" cx="127.391" cy="-299.725" rx="4" ry="4"/>
</g>
<!-- Thread7ae662e0&#45;&gt;Thread7b269700 -->
<g id="edge8" class="edge"><title>Thread7ae662e0&#45;&gt;Thread7b269700</title>
<path fill="none" stroke="black" stroke-width="2" d="M138.144,-407.214C139.921,-379.102 140.101,-336.756 138.682,-305.768"/>
<polygon fill="black" stroke="black" points="142.175,-305.528 138.14,-295.731 135.185,-305.905 142.175,-305.528"/>
</g>
<!-- Thread7b067700 -->
<g id="node10" class="node"><title>Thread7b067700</title>
<ellipse fill="none" stroke="lightgray" cx="384.877" cy="-266" rx="116.88" ry="29.6985"/>
<text text-anchor="middle" x="384.877" y="-270.4" font-family="Times Roman,serif" font-size="14.00">Thread7b067700</text>
<text text-anchor="middle" x="384.877" y="-253.4" font-family="Times Roman,serif" font-size="14.00">handle_requests_loop</text>
</g>
<!-- Thread7ae662e0&#45;&gt;Thread7b067700 -->
<g id="edge10" class="edge"><title>Thread7ae662e0&#45;&gt;Thread7b067700</title>
<path fill="none" stroke="black" stroke-width="2" d="M172.529,-410.093C216.594,-380.192 287.806,-331.869 335.465,-299.53"/>
<polygon fill="black" stroke="black" points="337.474,-302.396 343.783,-293.885 333.543,-296.604 337.474,-302.396"/>
</g>
<!-- Thread7b269700&#45;&gt;Mutex602a40 -->
<g id="edge12" class="edge"><title>Thread7b269700&#45;&gt;Mutex602a40</title>
<path fill="none" stroke="red" stroke-width="2" d="M132.877,-236.156C132.877,-207.031 132.877,-162.114 132.877,-127.092"/>
<polygon fill="red" stroke="red" points="136.377,-127.034 132.877,-117.034 129.377,-127.034 136.377,-127.034"/>
</g>
<!-- Thread7b269700&#45;&gt;Cond602a80 -->
<g id="edge14" class="edge"><title>Thread7b269700&#45;&gt;Cond602a80</title>
<path fill="none" stroke="lightgray" stroke-width="2" d="M178.244,-231.615C220.619,-199.497 283.977,-151.476 329.355,-117.082"/>
<polygon fill="lightgray" stroke="lightgray" points="175.916,-228.988 170.06,-237.817 180.144,-234.566 175.916,-228.988"/>
</g>
<!-- Thread7b067700&#45;&gt;Mutex602a40 -->
<g id="edge16" class="edge"><title>Thread7b067700&#45;&gt;Mutex602a40</title>
<path fill="none" stroke="lightgray" stroke-width="2" d="M347.693,-237.817C307.96,-207.702 244.253,-159.416 196.516,-123.234"/>
<polygon fill="lightgray" stroke="lightgray" points="198.482,-120.333 188.399,-117.082 194.254,-125.912 198.482,-120.333"/>
</g>
<!-- Thread7b067700&#45;&gt;Cond602a80 -->
<g id="edge18" class="edge"><title>Thread7b067700&#45;&gt;Cond602a80</title>
<path fill="none" stroke="lightgray" stroke-width="2" d="M384.877,-225.852C384.877,-193.938 384.877,-149.43 384.877,-117.034"/>
<polygon fill="lightgray" stroke="lightgray" points="381.377,-226.156 384.877,-236.156 388.377,-226.156 381.377,-226.156"/>
</g>
</g>
</svg>
