<?xml version="1.0" encoding="UTF-8" standalone="no"?>
<!DOCTYPE svg PUBLIC "-//W3C//DTD SVG 1.1//EN"
 "http://www.w3.org/Graphics/SVG/1.1/DTD/svg11.dtd">
<!-- Generated by graphviz version 2.26.3 (20100126.1600)
 -->
<!-- Title: G Pages: 1 -->
<svg width="682pt" height="1356pt"
 viewBox="0.00 0.00 682.00 1356.00" xmlns="http://www.w3.org/2000/svg" xmlns:xlink="http://www.w3.org/1999/xlink">
<g id="graph1" class="graph" transform="scale(1 1) rotate(0) translate(4 1352)">
<title>G</title>
<polygon fill="white" stroke="white" points="-4,5 -4,-1352 679,-1352 679,5 -4,5"/>
<!-- Mutex602a40 -->
<g id="node1" class="node"><title>Mutex602a40</title>
<polygon fill="none" stroke="black" points="178.994,-304 47.0061,-304 4.26326e-14,-252 226,-252 178.994,-304"/>
<text text-anchor="middle" x="113" y="-274.4" font-family="Times Roman,serif" font-size="14.00">Mutex602a40</text>
</g>
<!-- Cond602a80 -->
<g id="node2" class="node"><title>Cond602a80</title>
<polygon fill="none" stroke="black" points="461.859,-304 288.689,-304 244.141,-252 417.311,-252 461.859,-304"/>
<text text-anchor="middle" x="353" y="-274.4" font-family="Times Roman,serif" font-size="14.00">Cond602a80</text>
</g>
<!-- Thread169d8700 -->
<g id="node3" class="node"><title>Thread169d8700</title>
<ellipse fill="none" stroke="black" cx="577" cy="-278" rx="96.8736" ry="18.3848"/>
<text text-anchor="middle" x="577" y="-274.4" font-family="Times Roman,serif" font-size="14.00">Thread169d8700</text>
</g>
<!-- Thread167d72e0 -->
<g id="node4" class="node"><title>Thread167d72e0</title>
<ellipse fill="none" stroke="black" cx="353" cy="-1145" rx="96.1665" ry="18.3848"/>
<text text-anchor="middle" x="353" y="-1141.4" font-family="Times Roman,serif" font-size="14.00">Thread167d72e0</text>
</g>
<!-- Thread167d72e0&#45;&gt;Mutex602a40 -->
<g id="edge2" class="edge"><title>Thread167d72e0&#45;&gt;Mutex602a40</title>
<path fill="none" stroke="green" d="M345.173,-1116.73C308.691,-984.933 155.61,-431.929 120.292,-304.341"/>
<polygon fill="green" stroke="green" points="341.835,-1117.79 347.876,-1126.49 348.581,-1115.92 341.835,-1117.79"/>
</g>
<!-- Thread167d72e0&#45;&gt;Cond602a80 -->
<g id="edge4" class="edge"><title>Thread167d72e0&#45;&gt;Cond602a80</title>
<path fill="none" stroke="lightgray" stroke-dasharray="1,5" d="M353,-1126.49C353,-1017.91 353,-463.416 353,-314.728"/>
<polygon fill="lightgray" stroke="lightgray" points="356.5,-314.341 353,-304.341 349.5,-314.341 356.5,-314.341"/>
</g>
<!-- Thread167d72e0&#45;&gt;Thread169d8700 -->
<g id="edge6" class="edge"><title>Thread167d72e0&#45;&gt;Thread169d8700</title>
<path fill="none" stroke="black" d="M357.782,-1126.49C386.365,-1015.86 534.553,-442.292 569.576,-306.736"/>
<polygon fill="black" stroke="black" points="573.055,-307.262 572.167,-296.705 566.277,-305.511 573.055,-307.262"/>
</g>
</g>
</svg>
