<?xml version="1.0" encoding="UTF-8" standalone="no"?>
<!DOCTYPE svg PUBLIC "-//W3C//DTD SVG 1.1//EN"
 "http://www.w3.org/Graphics/SVG/1.1/DTD/svg11.dtd">
<!-- Generated by graphviz version 2.26.3 (20100126.1600)
 -->
<!-- Title: G Pages: 1 -->
<svg width="696pt" height="696pt"
 viewBox="0.00 0.00 696.00 696.00" xmlns="http://www.w3.org/2000/svg" xmlns:xlink="http://www.w3.org/1999/xlink">
<g id="graph1" class="graph" transform="scale(1 1) rotate(0) translate(4 692)">
<title>G</title>
<polygon fill="white" stroke="white" points="-4,5 -4,-692 693,-692 693,5 -4,5"/>
<!-- Threada775700 -->
<g id="node1" class="node"><title>Threada775700</title>
<ellipse fill="none" stroke="black" cx="117" cy="-374" rx="116.88" ry="29.6985"/>
<text text-anchor="middle" x="117" y="-378.4" font-family="Times Roman,serif" font-size="14.00">Threada775700</text>
<text text-anchor="middle" x="117" y="-361.4" font-family="Times Roman,serif" font-size="14.00">handle_requests_loop</text>
</g>
<!-- Mutex602ae0 -->
<g id="node3" class="node"><title>Mutex602ae0</title>
<polygon fill="none" stroke="black" points="341.666,-147 200.334,-147 150,-63 392,-63 341.666,-147"/>
<text text-anchor="middle" x="271" y="-109.4" font-family="Times Roman,serif" font-size="14.00">Mutex602ae0</text>
<text text-anchor="middle" x="271" y="-92.4" font-family="Times Roman,serif" font-size="14.00">request_mutex</text>
</g>
<!-- Threada775700&#45;&gt;Mutex602ae0 -->
<g id="edge2" class="edge"><title>Threada775700&#45;&gt;Mutex602ae0</title>
<path fill="none" stroke="grey" stroke-width="3" d="M133.774,-344.7C159.693,-299.425 209.819,-211.868 241.782,-156.037"/>
<polygon fill="grey" stroke="grey" points="245.013,-157.438 246.943,-147.021 238.938,-153.96 245.013,-157.438"/>
</g>
<!-- Threada977700 -->
<g id="node4" class="node"><title>Threada977700</title>
<ellipse fill="none" stroke="black" cx="425" cy="-374" rx="116.88" ry="29.6985"/>
<text text-anchor="middle" x="425" y="-378.4" font-family="Times Roman,serif" font-size="14.00">Threada977700</text>
<text text-anchor="middle" x="425" y="-361.4" font-family="Times Roman,serif" font-size="14.00">handle_requests_loop</text>
</g>
<!-- Threada977700&#45;&gt;Mutex602ae0 -->
<g id="edge6" class="edge"><title>Threada977700&#45;&gt;Mutex602ae0</title>
<path fill="none" stroke="grey" stroke-width="3" d="M403.149,-335.831C374.574,-285.919 324.681,-198.768 295.057,-147.021"/>
<polygon fill="grey" stroke="grey" points="400.22,-337.761 408.226,-344.7 406.295,-334.283 400.22,-337.761"/>
</g>
<!-- Cond602b20 -->
<g id="node6" class="node"><title>Cond602b20</title>
<polygon fill="none" stroke="red" points="687.859,-147 514.689,-147 470.141,-63 643.311,-63 687.859,-147"/>
<text text-anchor="middle" x="579" y="-109.4" font-family="Times Roman,serif" font-size="14.00">Cond602b20</text>
<text text-anchor="middle" x="579" y="-92.4" font-family="Times Roman,serif" font-size="14.00">got_request</text>
</g>
<!-- Threada977700&#45;&gt;Cond602b20 -->
<g id="edge4" class="edge"><title>Threada977700&#45;&gt;Cond602b20</title>
<path fill="none" stroke="red" stroke-width="3" d="M441.774,-344.7C467.426,-299.892 516.788,-213.669 548.787,-157.774"/>
<polygon fill="none" stroke="red" points="548.981,-157.435 548.491,-150.241 554.943,-147.021 555.434,-154.215 548.981,-157.435"/>
</g>
<!-- Threada5742e0 -->
<g id="node8" class="node"><title>Threada5742e0</title>
<ellipse fill="none" stroke="black" cx="348" cy="-613" rx="89.8026" ry="29.6985"/>
<text text-anchor="middle" x="348" y="-617.4" font-family="Times Roman,serif" font-size="14.00">Threada5742e0</text>
<text text-anchor="middle" x="348" y="-600.4" font-family="Times Roman,serif" font-size="14.00">{root}</text>
</g>
<!-- Threada5742e0&#45;&gt;Threada775700 -->
<g id="edge12" class="edge"><title>Threada5742e0&#45;&gt;Threada775700</title>
<path fill="none" stroke="black" stroke-width="3" stroke-dasharray="1,5" d="M320.594,-584.645C278.507,-541.101 197.999,-457.804 151.833,-410.039"/>
<polygon fill="black" stroke="black" points="144.729,-402.69 154.915,-406.753 148.923,-405.59 152.398,-409.185 151.679,-409.88 150.96,-410.575 147.485,-406.98 148.444,-413.008 144.729,-402.69 144.729,-402.69"/>
</g>
<!-- Threada5742e0&#45;&gt;Mutex602ae0 -->
<g id="edge8" class="edge"><title>Threada5742e0&#45;&gt;Mutex602ae0</title>
<path fill="none" stroke="black" stroke-width="3" stroke-dasharray="1,5" d="M333.774,-583.834C319.875,-543.668 300.599,-468.92 290,-404 276.013,-318.325 268.376,-217.612 267.221,-157.666"/>
<polygon fill="black" stroke="black" points="267.084,-147.321 271.716,-157.26 268.15,-152.307 268.217,-157.307 267.217,-157.32 266.217,-157.333 266.15,-152.334 262.717,-157.38 267.084,-147.321 267.084,-147.321"/>
</g>
<!-- Threada5742e0&#45;&gt;Mutex602ae0 -->
<g id="edge18" class="edge"><title>Threada5742e0&#45;&gt;Mutex602ae0</title>
<path fill="none" stroke="grey" stroke-width="3" d="M345.807,-583.491C337.766,-543.245 318.569,-468.736 308,-404 293.984,-318.148 286.344,-217.195 280.231,-157.294"/>
<polygon fill="grey" stroke="grey" points="283.709,-156.901 279.184,-147.321 276.747,-157.632 283.709,-156.901"/>
</g>
<!-- Threada5742e0&#45;&gt;Threada977700 -->
<g id="edge14" class="edge"><title>Threada5742e0&#45;&gt;Threada977700</title>
<path fill="none" stroke="black" stroke-width="3" stroke-dasharray="1,5" d="M357.596,-583.214C371.447,-540.223 397.059,-460.725 412.412,-413.072"/>
<polygon fill="black" stroke="black" points="415.525,-403.411 416.741,-414.309 414.943,-408.477 413.41,-413.236 412.458,-412.929 411.506,-412.622 413.039,-407.863 408.175,-411.549 415.525,-403.411 415.525,-403.411"/>
</g>
<!-- Threada5742e0&#45;&gt;Cond602b20 -->
<g id="edge10" class="edge"><title>Threada5742e0&#45;&gt;Cond602b20</title>
<path fill="none" stroke="black" stroke-width="3" stroke-dasharray="1,5" d="M381.582,-585.468C426.911,-549.803 505.671,-482.777 542,-404 578.894,-323.999 579.283,-219.342 577.871,-157.432"/>
<polygon fill="black" stroke="black" points="577.615,-147.129 582.363,-157.014 578.739,-152.103 578.864,-157.101 577.864,-157.126 576.864,-157.151 576.74,-152.152 573.365,-157.238 577.615,-147.129 577.615,-147.129"/>
</g>
<!-- Threada5742e0&#45;&gt;Cond602b20 -->
<g id="edge16" class="edge"><title>Threada5742e0&#45;&gt;Cond602b20</title>
<path fill="none" stroke="green" stroke-width="3" stroke-dasharray="5,2" d="M391.969,-587.008C442.606,-551.755 523.141,-483.925 560,-404 596.513,-324.826 597.271,-221.502 590.897,-159.364"/>
<polygon fill="green" stroke="green" points="590.861,-159.05 586.201,-153.547 589.488,-147.129 594.148,-152.632 590.861,-159.05"/>
</g>
</g>
</svg>
