<?xml version="1.0" encoding="UTF-8" standalone="no"?>
<!DOCTYPE svg PUBLIC "-//W3C//DTD SVG 1.1//EN"
 "http://www.w3.org/Graphics/SVG/1.1/DTD/svg11.dtd">
<!-- Generated by graphviz version 2.26.3 (20100126.1600)
 -->
<!-- Title: G Pages: 1 -->
<svg width="579pt" height="562pt"
 viewBox="0.00 0.00 578.92 562.00" xmlns="http://www.w3.org/2000/svg" xmlns:xlink="http://www.w3.org/1999/xlink">
<g id="graph1" class="graph" transform="scale(1 1) rotate(0) translate(4 558)">
<title>G</title>
<polygon fill="white" stroke="white" points="-4,5 -4,-558 575.923,-558 575.923,5 -4,5"/>
<!-- Mutex602a40 -->
<g id="node1" class="node"><title>Mutex602a40</title>
<polygon fill="none" stroke="black" points="208.589,-126 67.2569,-126 16.923,-42 258.923,-42 208.589,-126"/>
<text text-anchor="middle" x="137.923" y="-88.4" font-family="Times Roman,serif" font-size="14.00">Mutex602a40</text>
<text text-anchor="middle" x="137.923" y="-71.4" font-family="Times Roman,serif" font-size="14.00">request_mutex</text>
</g>
<!-- Cond602a80 -->
<g id="node2" class="node"><title>Cond602a80</title>
<polygon fill="none" stroke="red" points="570.782,-126 397.612,-126 353.064,-42 526.234,-42 570.782,-126"/>
<text text-anchor="middle" x="461.923" y="-88.4" font-family="Times Roman,serif" font-size="14.00">Cond602a80</text>
<text text-anchor="middle" x="461.923" y="-71.4" font-family="Times Roman,serif" font-size="14.00">got_request</text>
</g>
<!-- Thread7ae662e0 -->
<g id="node3" class="node"><title>Thread7ae662e0</title>
<ellipse fill="none" stroke="black" cx="263.923" cy="-494" rx="116.88" ry="29.6985"/>
<text text-anchor="middle" x="263.923" y="-498.4" font-family="Times Roman,serif" font-size="14.00">Thread7ae662e0</text>
<text text-anchor="middle" x="263.923" y="-481.4" font-family="Times Roman,serif" font-size="14.00">handle_requests_loop</text>
</g>
<!-- Thread7ae662e0&#45;&gt;Mutex602a40 -->
<g id="edge2" class="edge"><title>Thread7ae662e0&#45;&gt;Mutex602a40</title>
<path fill="none" stroke="lightgray" stroke-width="2" d="M193.462,-470.32C133.137,-445.861 50.1502,-401.253 11.923,-331 -24.9193,-263.292 33.6229,-183.65 82.6399,-133.493"/>
<polygon fill="lightgray" stroke="lightgray" points="85.2147,-135.867 89.7903,-126.311 80.2543,-130.928 85.2147,-135.867"/>
</g>
<!-- Thread7ae662e0&#45;&gt;Cond602a80 -->
<g id="edge4" class="edge"><title>Thread7ae662e0&#45;&gt;Cond602a80</title>
<path fill="none" stroke="green" stroke-width="2" stroke-dasharray="1,5" d="M334.384,-470.32C394.709,-445.861 477.696,-401.253 515.923,-331 549.668,-268.985 519.693,-187.393 492.747,-135.306"/>
<polygon fill="green" stroke="green" points="495.721,-133.444 487.94,-126.253 489.538,-136.727 495.721,-133.444"/>
</g>
<!-- Thread7b269700 -->
<g id="node7" class="node"><title>Thread7b269700</title>
<ellipse fill="none" stroke="black" cx="389.923" cy="-301" rx="116.88" ry="29.6985"/>
<text text-anchor="middle" x="389.923" y="-305.4" font-family="Times Roman,serif" font-size="14.00">Thread7b269700</text>
<text text-anchor="middle" x="389.923" y="-288.4" font-family="Times Roman,serif" font-size="14.00">handle_requests_loop</text>
</g>
<!-- Thread7ae662e0&#45;&gt;Thread7b269700 -->
<g id="edge6" class="edge"><title>Thread7ae662e0&#45;&gt;Thread7b269700</title>
<path fill="none" stroke="black" stroke-width="2" d="M283.06,-464.687C305.048,-431.007 341.189,-375.649 365.268,-338.765"/>
<polygon fill="black" stroke="black" points="368.277,-340.558 370.813,-330.272 362.416,-336.732 368.277,-340.558"/>
</g>
<!-- Thread7b067700 -->
<g id="node9" class="node"><title>Thread7b067700</title>
<ellipse fill="none" stroke="black" cx="137.923" cy="-301" rx="116.88" ry="29.6985"/>
<text text-anchor="middle" x="137.923" y="-305.4" font-family="Times Roman,serif" font-size="14.00">Thread7b067700</text>
<text text-anchor="middle" x="137.923" y="-288.4" font-family="Times Roman,serif" font-size="14.00">handle_requests_loop</text>
</g>
<!-- Thread7ae662e0&#45;&gt;Thread7b067700 -->
<g id="edge8" class="edge"><title>Thread7ae662e0&#45;&gt;Thread7b067700</title>
<path fill="none" stroke="black" stroke-width="2" d="M244.786,-464.687C222.798,-431.007 186.657,-375.649 162.578,-338.765"/>
<polygon fill="black" stroke="black" points="165.43,-336.732 157.033,-330.272 159.569,-340.558 165.43,-336.732"/>
</g>
<!-- Thread7b269700&#45;&gt;Mutex602a40 -->
<g id="edge10" class="edge"><title>Thread7b269700&#45;&gt;Mutex602a40</title>
<path fill="none" stroke="lightgray" stroke-width="2" d="M356.978,-272.631C315.821,-237.19 244.734,-175.976 194.726,-132.914"/>
<polygon fill="lightgray" stroke="lightgray" points="196.751,-130.039 186.889,-126.166 192.183,-135.343 196.751,-130.039"/>
</g>
<!-- Thread7b269700&#45;&gt;Cond602a80 -->
<g id="edge12" class="edge"><title>Thread7b269700&#45;&gt;Cond602a80</title>
<path fill="none" stroke="red" stroke-width="2" d="M399.783,-271.282C411.324,-236.499 430.641,-178.279 444.679,-135.971"/>
<polygon fill="red" stroke="red" points="451.179,-127.494 444.708,-135.883 444.535,-125.29 451.179,-127.494"/>
</g>
<!-- Thread7b067700&#45;&gt;Mutex602a40 -->
<g id="edge14" class="edge"><title>Thread7b067700&#45;&gt;Mutex602a40</title>
<path fill="none" stroke="lightgray" stroke-width="2" d="M137.923,-271.282C137.923,-236.645 137.923,-178.769 137.923,-136.506"/>
<polygon fill="lightgray" stroke="lightgray" points="141.423,-136.392 137.923,-126.392 134.423,-136.392 141.423,-136.392"/>
</g>
</g>
</svg>
