<?xml version="1.0" encoding="UTF-8" standalone="no"?>
<!DOCTYPE svg PUBLIC "-//W3C//DTD SVG 1.1//EN"
 "http://www.w3.org/Graphics/SVG/1.1/DTD/svg11.dtd">
<!-- Generated by graphviz version 2.26.3 (20100126.1600)
 -->
<!-- Title: G Pages: 1 -->
<svg width="624pt" height="624pt"
 viewBox="0.00 0.00 624.00 624.00" xmlns="http://www.w3.org/2000/svg" xmlns:xlink="http://www.w3.org/1999/xlink">
<g id="graph1" class="graph" transform="scale(1 1) rotate(0) translate(4 620)">
<title>G</title>
<polygon fill="white" stroke="white" points="-4,5 -4,-620 621,-620 621,5 -4,5"/>
<!-- Mutex602a40 -->
<g id="node1" class="node"><title>Mutex602a40</title>
<polygon fill="none" stroke="black" points="191.666,-531 50.334,-531 4.26326e-14,-447 242,-447 191.666,-531"/>
<text text-anchor="middle" x="121" y="-493.4" font-family="Times Roman,serif" font-size="14.00">Mutex602a40</text>
<text text-anchor="middle" x="121" y="-476.4" font-family="Times Roman,serif" font-size="14.00">request_mutex</text>
</g>
<!-- Cond602a80 -->
<g id="node2" class="node"><title>Cond602a80</title>
<polygon fill="none" stroke="black" points="363.859,-169 190.689,-169 146.141,-85 319.311,-85 363.859,-169"/>
<text text-anchor="middle" x="255" y="-131.4" font-family="Times Roman,serif" font-size="14.00">Cond602a80</text>
<text text-anchor="middle" x="255" y="-114.4" font-family="Times Roman,serif" font-size="14.00">got_request</text>
</g>
<!-- Thread7ae662e0 -->
<g id="node3" class="node"><title>Thread7ae662e0</title>
<ellipse fill="none" stroke="black" cx="377" cy="-489" rx="116.88" ry="29.6985"/>
<text text-anchor="middle" x="377" y="-493.4" font-family="Times Roman,serif" font-size="14.00">Thread7ae662e0</text>
<text text-anchor="middle" x="377" y="-476.4" font-family="Times Roman,serif" font-size="14.00">handle_requests_loop</text>
</g>
<!-- Thread7ae662e0&#45;&gt;Cond602a80 -->
<g id="edge2" class="edge"><title>Thread7ae662e0&#45;&gt;Cond602a80</title>
<path fill="none" stroke="green" stroke-width="2" stroke-dasharray="1,5" d="M367.016,-459.376C346.278,-397.841 298.315,-255.525 272.387,-178.591"/>
<polygon fill="green" stroke="green" points="275.696,-177.449 269.185,-169.09 269.062,-179.684 275.696,-177.449"/>
</g>
<!-- Thread7b067700 -->
<g id="node6" class="node"><title>Thread7b067700</title>
<ellipse fill="none" stroke="black" cx="499" cy="-127" rx="116.88" ry="29.6985"/>
<text text-anchor="middle" x="499" y="-131.4" font-family="Times Roman,serif" font-size="14.00">Thread7b067700</text>
<text text-anchor="middle" x="499" y="-114.4" font-family="Times Roman,serif" font-size="14.00">handle_requests_loop</text>
</g>
<!-- Thread7ae662e0&#45;&gt;Thread7b067700 -->
<g id="edge4" class="edge"><title>Thread7ae662e0&#45;&gt;Thread7b067700</title>
<path fill="none" stroke="black" stroke-width="2" d="M386.984,-459.376C408.888,-394.382 461.163,-239.271 485.767,-166.264"/>
<polygon fill="black" stroke="black" points="489.172,-167.12 489.049,-156.526 482.539,-164.884 489.172,-167.12"/>
</g>
</g>
</svg>
