<?xml version="1.0" encoding="UTF-8" standalone="no"?>
<!DOCTYPE svg PUBLIC "-//W3C//DTD SVG 1.1//EN"
 "http://www.w3.org/Graphics/SVG/1.1/DTD/svg11.dtd">
<!-- Generated by graphviz version 2.26.3 (20100126.1600)
 -->
<!-- Title: G Pages: 1 -->
<svg width="535pt" height="498pt"
 viewBox="0.00 0.00 534.70 498.00" xmlns="http://www.w3.org/2000/svg" xmlns:xlink="http://www.w3.org/1999/xlink">
<g id="graph1" class="graph" transform="scale(1 1) rotate(0) translate(4 494)">
<title>G</title>
<polygon fill="white" stroke="white" points="-4,5 -4,-494 531.704,-494 531.704,5 -4,5"/>
<!-- Mutex602a40 -->
<g id="node1" class="node"><title>Mutex602a40</title>
<polygon fill="none" stroke="black" points="208.018,-117 66.6862,-117 16.3522,-33 258.352,-33 208.018,-117"/>
<text text-anchor="middle" x="137.352" y="-79.4" font-family="Times Roman,serif" font-size="14.00">Mutex602a40</text>
<text text-anchor="middle" x="137.352" y="-62.4" font-family="Times Roman,serif" font-size="14.00">request_mutex</text>
</g>
<!-- Cond602a80 -->
<g id="node2" class="node"><title>Cond602a80</title>
<polygon fill="none" stroke="red" points="498.211,-117 325.041,-117 280.493,-33 453.664,-33 498.211,-117"/>
<text text-anchor="middle" x="389.352" y="-79.4" font-family="Times Roman,serif" font-size="14.00">Cond602a80</text>
<text text-anchor="middle" x="389.352" y="-62.4" font-family="Times Roman,serif" font-size="14.00">got_request</text>
</g>
<!-- Thread7ae662e0 -->
<g id="node3" class="node"><title>Thread7ae662e0</title>
<ellipse fill="none" stroke="black" cx="263.352" cy="-437" rx="116.88" ry="29.6985"/>
<text text-anchor="middle" x="263.352" y="-441.4" font-family="Times Roman,serif" font-size="14.00">Thread7ae662e0</text>
<text text-anchor="middle" x="263.352" y="-424.4" font-family="Times Roman,serif" font-size="14.00">handle_requests_loop</text>
</g>
<!-- Thread7ae662e0&#45;&gt;Mutex602a40 -->
<g id="edge2" class="edge"><title>Thread7ae662e0&#45;&gt;Mutex602a40</title>
<path fill="none" stroke="lightgray" stroke-width="2" d="M182.434,-415.62C123.56,-395.359 47.9949,-358.491 11.3522,-296 -23.1069,-237.233 29.7029,-169.051 77.1273,-124.135"/>
<polygon fill="lightgray" stroke="lightgray" points="79.7268,-126.498 84.6782,-117.131 74.9664,-121.365 79.7268,-126.498"/>
</g>
<!-- Thread7ae662e0&#45;&gt;Cond602a80 -->
<g id="edge4" class="edge"><title>Thread7ae662e0&#45;&gt;Cond602a80</title>
<path fill="none" stroke="lightgray" stroke-width="2" stroke-dasharray="1,5" d="M344.27,-415.62C403.144,-395.359 478.71,-358.491 515.352,-296 549.811,-237.233 497.002,-169.051 449.577,-124.135"/>
<polygon fill="lightgray" stroke="lightgray" points="451.738,-121.365 442.026,-117.131 446.978,-126.498 451.738,-121.365"/>
</g>
<!-- Thread7b269700 -->
<g id="node7" class="node"><title>Thread7b269700</title>
<ellipse fill="none" stroke="black" cx="137.352" cy="-266" rx="116.88" ry="29.6985"/>
<text text-anchor="middle" x="137.352" y="-270.4" font-family="Times Roman,serif" font-size="14.00">Thread7b269700</text>
<text text-anchor="middle" x="137.352" y="-253.4" font-family="Times Roman,serif" font-size="14.00">handle_requests_loop</text>
</g>
<!-- Thread7ae662e0&#45;&gt;Thread7b269700 -->
<g id="edge6" class="edge"><title>Thread7ae662e0&#45;&gt;Thread7b269700</title>
<path fill="none" stroke="black" stroke-width="2" d="M241.978,-407.992C220.709,-379.127 187.982,-334.712 164.802,-303.253"/>
<polygon fill="black" stroke="black" points="167.581,-301.124 158.831,-295.15 161.946,-305.277 167.581,-301.124"/>
</g>
<!-- Thread7b067700 -->
<g id="node9" class="node"><title>Thread7b067700</title>
<ellipse fill="none" stroke="lightgray" cx="389.352" cy="-266" rx="116.88" ry="29.6985"/>
<text text-anchor="middle" x="389.352" y="-270.4" font-family="Times Roman,serif" font-size="14.00">Thread7b067700</text>
<text text-anchor="middle" x="389.352" y="-253.4" font-family="Times Roman,serif" font-size="14.00">handle_requests_loop</text>
</g>
<!-- Thread7ae662e0&#45;&gt;Thread7b067700 -->
<g id="edge8" class="edge"><title>Thread7ae662e0&#45;&gt;Thread7b067700</title>
<path fill="none" stroke="black" stroke-width="2" d="M284.726,-407.992C305.996,-379.127 338.722,-334.712 361.902,-303.253"/>
<polygon fill="black" stroke="black" points="364.759,-305.277 367.873,-295.15 359.123,-301.124 364.759,-305.277"/>
</g>
<!-- Thread7b269700&#45;&gt;Mutex602a40 -->
<g id="edge10" class="edge"><title>Thread7b269700&#45;&gt;Mutex602a40</title>
<path fill="none" stroke="lightgray" stroke-width="2" d="M137.352,-236.156C137.352,-207.031 137.352,-162.114 137.352,-127.092"/>
<polygon fill="lightgray" stroke="lightgray" points="140.852,-127.034 137.352,-117.034 133.852,-127.034 140.852,-127.034"/>
</g>
<!-- Thread7b269700&#45;&gt;Cond602a80 -->
<g id="edge12" class="edge"><title>Thread7b269700&#45;&gt;Cond602a80</title>
<path fill="none" stroke="red" stroke-width="2" d="M174.536,-237.817C214.269,-207.702 277.976,-159.416 325.713,-123.234"/>
<polygon fill="red" stroke="red" points="335.945,-119.871 325.861,-123.122 331.716,-114.293 335.945,-119.871"/>
</g>
<!-- Thread7b067700&#45;&gt;Mutex602a40 -->
<g id="edge14" class="edge"><title>Thread7b067700&#45;&gt;Mutex602a40</title>
<path fill="none" stroke="lightgray" stroke-width="2" d="M352.169,-237.817C312.436,-207.702 248.729,-159.416 200.991,-123.234"/>
<polygon fill="lightgray" stroke="lightgray" points="202.958,-120.333 192.874,-117.082 198.729,-125.912 202.958,-120.333"/>
</g>
<!-- Thread7b067700&#45;&gt;Cond602a80 -->
<g id="edge16" class="edge"><title>Thread7b067700&#45;&gt;Cond602a80</title>
<path fill="none" stroke="red" stroke-width="2" d="M389.352,-236.156C389.352,-207.031 389.352,-162.114 389.352,-127.092"/>
<polygon fill="red" stroke="red" points="392.852,-117.034 389.352,-127.034 385.852,-117.034 392.852,-117.034"/>
</g>
</g>
</svg>
