<?xml version="1.0" encoding="UTF-8" standalone="no"?>
<!DOCTYPE svg PUBLIC "-//W3C//DTD SVG 1.1//EN"
 "http://www.w3.org/Graphics/SVG/1.1/DTD/svg11.dtd">
<!-- Generated by graphviz version 2.26.3 (20100126.1600)
 -->
<!-- Title: G Pages: 1 -->
<svg width="470pt" height="932pt"
 viewBox="0.00 0.00 470.00 932.00" xmlns="http://www.w3.org/2000/svg" xmlns:xlink="http://www.w3.org/1999/xlink">
<g id="graph1" class="graph" transform="scale(1 1) rotate(0) translate(4 928)">
<title>G</title>
<polygon fill="white" stroke="white" points="-4,5 -4,-928 467,-928 467,5 -4,5"/>
<!-- Thread16bda700 -->
<g id="node1" class="node"><title>Thread16bda700</title>
<ellipse fill="none" stroke="black" cx="128" cy="-494" rx="94.9596" ry="18.3848"/>
<text text-anchor="middle" x="128" y="-490.4" font-family="Times Roman,serif" font-size="14.00">Thread16bda700</text>
</g>
<!-- Mutex602a40 -->
<g id="node3" class="node"><title>Mutex602a40</title>
<polygon fill="none" stroke="black" points="178.994,-146 47.0061,-146 4.26326e-14,-94 226,-94 178.994,-146"/>
<text text-anchor="middle" x="113" y="-116.4" font-family="Times Roman,serif" font-size="14.00">Mutex602a40</text>
</g>
<!-- Thread16bda700&#45;&gt;Mutex602a40 -->
<g id="edge2" class="edge"><title>Thread16bda700&#45;&gt;Mutex602a40</title>
<path fill="none" stroke="lightgray" d="M127.256,-475.453C124.905,-416.822 117.602,-234.735 114.461,-156.418"/>
<polygon fill="lightgray" stroke="lightgray" points="117.944,-155.931 114.046,-146.079 110.95,-156.211 117.944,-155.931"/>
</g>
<!-- Cond602a80 -->
<g id="node5" class="node"><title>Cond602a80</title>
<polygon fill="none" stroke="red" points="461.859,-146 288.689,-146 244.141,-94 417.311,-94 461.859,-146"/>
<text text-anchor="middle" x="353" y="-116.4" font-family="Times Roman,serif" font-size="14.00">Cond602a80</text>
</g>
<!-- Thread16bda700&#45;&gt;Cond602a80 -->
<g id="edge4" class="edge"><title>Thread16bda700&#45;&gt;Cond602a80</title>
<path fill="none" stroke="red" d="M139.158,-475.453C174.647,-416.462 285.322,-232.496 331.951,-154.988"/>
<polygon fill="red" stroke="red" points="340.31,-147.883 332.156,-154.648 334.312,-144.275 340.31,-147.883"/>
</g>
<!-- Thread169d8700 -->
<g id="node6" class="node"><title>Thread169d8700</title>
<ellipse fill="none" stroke="lightgray" cx="338" cy="-494" rx="96.8736" ry="18.3848"/>
<text text-anchor="middle" x="338" y="-490.4" font-family="Times Roman,serif" font-size="14.00">Thread169d8700</text>
</g>
<!-- Thread169d8700&#45;&gt;Mutex602a40 -->
<g id="edge6" class="edge"><title>Thread169d8700&#45;&gt;Mutex602a40</title>
<path fill="none" stroke="lightgray" d="M326.842,-475.453C291.353,-416.462 180.678,-232.496 134.049,-154.988"/>
<polygon fill="lightgray" stroke="lightgray" points="136.843,-152.844 128.689,-146.079 130.845,-156.452 136.843,-152.844"/>
</g>
<!-- Thread169d8700&#45;&gt;Cond602a80 -->
<g id="edge8" class="edge"><title>Thread169d8700&#45;&gt;Cond602a80</title>
<path fill="none" stroke="red" d="M338.744,-475.453C341.095,-416.822 348.398,-234.735 351.539,-156.418"/>
<polygon fill="red" stroke="red" points="355.451,-146.219 351.553,-156.071 348.457,-145.939 355.451,-146.219"/>
</g>
<!-- Thread167d72e0 -->
<g id="node9" class="node"><title>Thread167d72e0</title>
<ellipse fill="none" stroke="black" cx="233" cy="-836" rx="96.1665" ry="18.3848"/>
<text text-anchor="middle" x="233" y="-832.4" font-family="Times Roman,serif" font-size="14.00">Thread167d72e0</text>
</g>
<!-- Thread167d72e0&#45;&gt;Thread16bda700 -->
<g id="edge10" class="edge"><title>Thread167d72e0&#45;&gt;Thread16bda700</title>
<path fill="none" stroke="black" d="M227.205,-817.125C209.744,-760.251 157.559,-590.278 136.728,-522.429"/>
<polygon fill="black" stroke="black" points="140.058,-521.349 133.777,-512.816 133.366,-523.403 140.058,-521.349"/>
</g>
<!-- Thread167d72e0&#45;&gt;Mutex602a40 -->
<g id="edge12" class="edge"><title>Thread167d72e0&#45;&gt;Mutex602a40</title>
<path fill="none" stroke="lightgray" d="M215.41,-817.608C172.394,-771.195 62.5905,-643.676 24,-513 -14.4143,-382.921 56.4055,-224.457 93.0366,-155.213"/>
<polygon fill="lightgray" stroke="lightgray" points="96.3118,-156.512 97.9635,-146.046 90.1461,-153.197 96.3118,-156.512"/>
</g>
<!-- Thread167d72e0&#45;&gt;Cond602a80 -->
<g id="edge14" class="edge"><title>Thread167d72e0&#45;&gt;Cond602a80</title>
<path fill="none" stroke="lightgray" stroke-dasharray="1,5" d="M250.755,-817.644C294.175,-771.311 405.015,-643.962 444,-513 482.74,-382.86 410.606,-224.428 373.317,-155.202"/>
<polygon fill="lightgray" stroke="lightgray" points="376.173,-153.13 368.302,-146.038 370.033,-156.491 376.173,-153.13"/>
</g>
<!-- Thread167d72e0&#45;&gt;Thread169d8700 -->
<g id="edge16" class="edge"><title>Thread167d72e0&#45;&gt;Thread169d8700</title>
<path fill="none" stroke="black" d="M238.795,-817.125C256.256,-760.251 308.441,-590.278 329.272,-522.429"/>
<polygon fill="black" stroke="black" points="332.634,-523.403 332.223,-512.816 325.942,-521.349 332.634,-523.403"/>
</g>
</g>
</svg>
