<?xml version="1.0" encoding="UTF-8" standalone="no"?>
<!DOCTYPE svg PUBLIC "-//W3C//DTD SVG 1.1//EN"
 "http://www.w3.org/Graphics/SVG/1.1/DTD/svg11.dtd">
<!-- Generated by graphviz version 2.26.3 (20100126.1600)
 -->
<!-- Title: G Pages: 1 -->
<svg width="768pt" height="768pt"
 viewBox="0.00 0.00 768.00 768.00" xmlns="http://www.w3.org/2000/svg" xmlns:xlink="http://www.w3.org/1999/xlink">
<g id="graph1" class="graph" transform="scale(1 1) rotate(0) translate(4 764)">
<title>G</title>
<polygon fill="white" stroke="white" points="-4,5 -4,-764 765,-764 765,5 -4,5"/>
<!-- Threadb3f16700 -->
<g id="node1" class="node"><title>Threadb3f16700</title>
<ellipse fill="none" stroke="black" cx="117" cy="-410" rx="116.88" ry="29.6985"/>
<text text-anchor="middle" x="117" y="-414.4" font-family="Times Roman,serif" font-size="14.00">Threadb3f16700</text>
<text text-anchor="middle" x="117" y="-397.4" font-family="Times Roman,serif" font-size="14.00">handle_requests_loop</text>
</g>
<!-- Mutex602ae0 -->
<g id="node3" class="node"><title>Mutex602ae0</title>
<polygon fill="none" stroke="black" points="259.666,-148 118.334,-148 68,-64 310,-64 259.666,-148"/>
<text text-anchor="middle" x="189" y="-110.4" font-family="Times Roman,serif" font-size="14.00">Mutex602ae0</text>
<text text-anchor="middle" x="189" y="-93.4" font-family="Times Roman,serif" font-size="14.00">request_mutex</text>
</g>
<!-- Threadb3f16700&#45;&gt;Mutex602ae0 -->
<g id="edge2" class="edge"><title>Threadb3f16700&#45;&gt;Mutex602ae0</title>
<path fill="none" stroke="grey" stroke-width="3" d="M124.035,-380.298C136.244,-328.748 161.502,-222.105 176.676,-158.035"/>
<polygon fill="grey" stroke="grey" points="180.122,-158.671 179.021,-148.133 173.311,-157.057 180.122,-158.671"/>
</g>
<!-- Threadb3d14700 -->
<g id="node4" class="node"><title>Threadb3d14700</title>
<ellipse fill="none" stroke="black" cx="407" cy="-410" rx="116.88" ry="29.6985"/>
<text text-anchor="middle" x="407" y="-414.4" font-family="Times Roman,serif" font-size="14.00">Threadb3d14700</text>
<text text-anchor="middle" x="407" y="-397.4" font-family="Times Roman,serif" font-size="14.00">handle_requests_loop</text>
</g>
<!-- Threadb3b132e0 -->
<g id="node5" class="node"><title>Threadb3b132e0</title>
<ellipse fill="none" stroke="black" cx="334" cy="-684" rx="94.9596" ry="29.6985"/>
<text text-anchor="middle" x="334" y="-688.4" font-family="Times Roman,serif" font-size="14.00">Threadb3b132e0</text>
<text text-anchor="middle" x="334" y="-671.4" font-family="Times Roman,serif" font-size="14.00">{root}</text>
</g>
<!-- Threadb3b132e0&#45;&gt;Threadb3f16700 -->
<g id="edge10" class="edge"><title>Threadb3b132e0&#45;&gt;Threadb3f16700</title>
<path fill="none" stroke="black" stroke-width="3" stroke-dasharray="1,5" d="M311.187,-655.195C271.649,-605.271 190.432,-502.72 146.604,-447.38"/>
<polygon fill="black" stroke="black" points="149.112,-444.91 140.16,-439.244 143.625,-449.256 149.112,-444.91"/>
</g>
<!-- Threadb3b132e0&#45;&gt;Mutex602ae0 -->
<g id="edge4" class="edge"><title>Threadb3b132e0&#45;&gt;Mutex602ae0</title>
<path fill="none" stroke="black" stroke-width="3" stroke-dasharray="1,5" d="M326.61,-654.542C303.394,-561.999 231.711,-276.254 202.053,-158.03"/>
<polygon fill="black" stroke="black" points="205.397,-156.977 199.569,-148.129 198.607,-158.68 205.397,-156.977"/>
</g>
<!-- Threadb3b132e0&#45;&gt;Threadb3d14700 -->
<g id="edge8" class="edge"><title>Threadb3b132e0&#45;&gt;Threadb3d14700</title>
<path fill="none" stroke="black" stroke-width="3" stroke-dasharray="1,5" d="M341.882,-654.417C355.105,-604.783 381.759,-504.742 396.536,-449.275"/>
<polygon fill="black" stroke="black" points="399.959,-450.023 399.151,-439.459 393.195,-448.221 399.959,-450.023"/>
</g>
<!-- Cond602b20 -->
<g id="node8" class="node"><title>Cond602b20</title>
<polygon fill="none" stroke="black" points="759.859,-452 586.689,-452 542.141,-368 715.311,-368 759.859,-452"/>
<text text-anchor="middle" x="651" y="-414.4" font-family="Times Roman,serif" font-size="14.00">Cond602b20</text>
<text text-anchor="middle" x="651" y="-397.4" font-family="Times Roman,serif" font-size="14.00">got_request</text>
</g>
<!-- Threadb3b132e0&#45;&gt;Cond602b20 -->
<g id="edge6" class="edge"><title>Threadb3b132e0&#45;&gt;Cond602b20</title>
<path fill="none" stroke="black" stroke-width="3" stroke-dasharray="1,5" d="M366.14,-656.22C419.684,-609.938 527.823,-516.468 594.376,-458.943"/>
<polygon fill="black" stroke="black" points="597.003,-461.299 602.28,-452.111 592.425,-456.003 597.003,-461.299"/>
</g>
</g>
</svg>
