<?xml version="1.0" encoding="UTF-8" standalone="no"?>
<!DOCTYPE svg PUBLIC "-//W3C//DTD SVG 1.1//EN"
 "http://www.w3.org/Graphics/SVG/1.1/DTD/svg11.dtd">
<!-- Generated by graphviz version 2.26.3 (20100126.1600)
 -->
<!-- Title: G Pages: 1 -->
<svg width="684pt" height="1360pt"
 viewBox="0.00 0.00 684.00 1360.00" xmlns="http://www.w3.org/2000/svg" xmlns:xlink="http://www.w3.org/1999/xlink">
<g id="graph1" class="graph" transform="scale(1 1) rotate(0) translate(4 1356)">
<title>G</title>
<polygon fill="white" stroke="white" points="-4,5 -4,-1356 681,-1356 681,5 -4,5"/>
<!-- Thread16bda700 -->
<g id="node1" class="node"><title>Thread16bda700</title>
<ellipse fill="none" stroke="black" cx="95" cy="-720" rx="94.9596" ry="18.3848"/>
<text text-anchor="middle" x="95" y="-716.4" font-family="Times Roman,serif" font-size="14.00">Thread16bda700</text>
</g>
<!-- Mutex602a40 -->
<g id="node3" class="node"><title>Mutex602a40</title>
<polygon fill="none" stroke="black" points="221.994,-190 90.0061,-190 43,-138 269,-138 221.994,-190"/>
<text text-anchor="middle" x="156" y="-160.4" font-family="Times Roman,serif" font-size="14.00">Mutex602a40</text>
</g>
<!-- Thread16bda700&#45;&gt;Mutex602a40 -->
<g id="edge2" class="edge"><title>Thread16bda700&#45;&gt;Mutex602a40</title>
<path fill="none" stroke="green" d="M98.1449,-691.335C108.726,-594.887 142.944,-283.002 153.12,-190.251"/>
<polygon fill="green" stroke="green" points="94.6411,-691.179 97.0296,-701.501 101.599,-691.942 94.6411,-691.179"/>
</g>
<!-- Cond602a80 -->
<g id="node4" class="node"><title>Cond602a80</title>
<polygon fill="none" stroke="black" points="463.859,-746 290.689,-746 246.141,-694 419.311,-694 463.859,-746"/>
<text text-anchor="middle" x="355" y="-716.4" font-family="Times Roman,serif" font-size="14.00">Cond602a80</text>
</g>
<!-- Thread169d8700 -->
<g id="node5" class="node"><title>Thread169d8700</title>
<ellipse fill="none" stroke="black" cx="579" cy="-720" rx="96.8736" ry="18.3848"/>
<text text-anchor="middle" x="579" y="-716.4" font-family="Times Roman,serif" font-size="14.00">Thread169d8700</text>
</g>
<!-- Thread167d72e0 -->
<g id="node6" class="node"><title>Thread167d72e0</title>
<ellipse fill="none" stroke="black" cx="286" cy="-1232" rx="96.1665" ry="18.3848"/>
<text text-anchor="middle" x="286" y="-1228.4" font-family="Times Roman,serif" font-size="14.00">Thread167d72e0</text>
</g>
<!-- Thread167d72e0&#45;&gt;Thread16bda700 -->
<g id="edge4" class="edge"><title>Thread167d72e0&#45;&gt;Thread16bda700</title>
<path fill="none" stroke="black" d="M279.089,-1213.48C250.339,-1136.41 140.092,-840.874 105.468,-748.061"/>
<polygon fill="black" stroke="black" points="108.676,-746.646 101.901,-738.5 102.117,-749.093 108.676,-746.646"/>
</g>
<!-- Thread167d72e0&#45;&gt;Mutex602a40 -->
<g id="edge6" class="edge"><title>Thread167d72e0&#45;&gt;Mutex602a40</title>
<path fill="none" stroke="lightgray" d="M283.744,-1213.46C268.552,-1088.66 181.171,-370.786 160.42,-200.311"/>
<polygon fill="lightgray" stroke="lightgray" points="163.888,-199.838 159.205,-190.334 156.939,-200.683 163.888,-199.838"/>
</g>
<!-- Thread167d72e0&#45;&gt;Cond602a80 -->
<g id="edge8" class="edge"><title>Thread167d72e0&#45;&gt;Cond602a80</title>
<path fill="none" stroke="lightgray" stroke-dasharray="1,5" d="M288.497,-1213.48C298.601,-1138.5 336.567,-856.778 350.139,-756.07"/>
<polygon fill="lightgray" stroke="lightgray" points="353.619,-756.453 351.486,-746.075 346.682,-755.518 353.619,-756.453"/>
</g>
<!-- Thread167d72e0&#45;&gt;Thread169d8700 -->
<g id="edge10" class="edge"><title>Thread167d72e0&#45;&gt;Thread169d8700</title>
<path fill="none" stroke="black" d="M296.601,-1213.48C340.839,-1136.17 510.857,-839.076 563.423,-747.22"/>
<polygon fill="black" stroke="black" points="566.484,-748.918 568.413,-738.5 560.408,-745.441 566.484,-748.918"/>
</g>
</g>
</svg>
