<?xml version="1.0" encoding="UTF-8" standalone="no"?>
<!DOCTYPE svg PUBLIC "-//W3C//DTD SVG 1.1//EN"
 "http://www.w3.org/Graphics/SVG/1.1/DTD/svg11.dtd">
<!-- Generated by graphviz version 2.26.3 (20100126.1600)
 -->
<!-- Title: G Pages: 1 -->
<svg width="520pt" height="1024pt"
 viewBox="0.00 0.00 519.98 1024.00" xmlns="http://www.w3.org/2000/svg" xmlns:xlink="http://www.w3.org/1999/xlink">
<g id="graph1" class="graph" transform="scale(1 1) rotate(0) translate(4 1020)">
<title>G</title>
<polygon fill="white" stroke="white" points="-4,5 -4,-1020 516.985,-1020 516.985,5 -4,5"/>
<!-- Thread16bda700 -->
<g id="node1" class="node"><title>Thread16bda700</title>
<ellipse fill="none" stroke="black" cx="326.985" cy="-544" rx="94.9596" ry="18.3848"/>
<text text-anchor="middle" x="326.985" y="-540.4" font-family="Times Roman,serif" font-size="14.00">Thread16bda700</text>
</g>
<!-- Mutex602a40 -->
<g id="node3" class="node"><title>Mutex602a40</title>
<polygon fill="none" stroke="black" points="182.979,-158 50.9911,-158 3.98495,-106 229.985,-106 182.979,-158"/>
<text text-anchor="middle" x="116.985" y="-128.4" font-family="Times Roman,serif" font-size="14.00">Mutex602a40</text>
</g>
<!-- Thread16bda700&#45;&gt;Mutex602a40 -->
<g id="edge2" class="edge"><title>Thread16bda700&#45;&gt;Mutex602a40</title>
<path fill="none" stroke="lightgray" d="M317.554,-525.497C285.124,-461.873 177.84,-251.392 134.941,-167.229"/>
<polygon fill="lightgray" stroke="lightgray" points="137.936,-165.396 130.276,-158.076 131.699,-168.575 137.936,-165.396"/>
</g>
<!-- Cond602a80 -->
<g id="node5" class="node"><title>Cond602a80</title>
<polygon fill="none" stroke="red" points="511.844,-158 338.674,-158 294.126,-106 467.296,-106 511.844,-158"/>
<text text-anchor="middle" x="402.985" y="-128.4" font-family="Times Roman,serif" font-size="14.00">Cond602a80</text>
</g>
<!-- Thread16bda700&#45;&gt;Cond602a80 -->
<g id="edge4" class="edge"><title>Thread16bda700&#45;&gt;Cond602a80</title>
<path fill="none" stroke="red" d="M330.398,-525.497C342.099,-462.066 380.725,-252.671 396.344,-168.001"/>
<polygon fill="red" stroke="red" points="401.617,-158.711 396.361,-167.911 394.733,-157.441 401.617,-158.711"/>
</g>
<!-- Thread169d8700 -->
<g id="node6" class="node"><title>Thread169d8700</title>
<ellipse fill="none" stroke="black" cx="116.985" cy="-544" rx="96.8736" ry="18.3848"/>
<text text-anchor="middle" x="116.985" y="-540.4" font-family="Times Roman,serif" font-size="14.00">Thread169d8700</text>
</g>
<!-- Thread169d8700&#45;&gt;Mutex602a40 -->
<g id="edge6" class="edge"><title>Thread169d8700&#45;&gt;Mutex602a40</title>
<path fill="none" stroke="green" d="M116.985,-515.192C116.985,-438.701 116.985,-231.347 116.985,-158.076"/>
<polygon fill="green" stroke="green" points="113.485,-515.497 116.985,-525.497 120.485,-515.497 113.485,-515.497"/>
</g>
<!-- Thread167d72e0 -->
<g id="node8" class="node"><title>Thread167d72e0</title>
<ellipse fill="none" stroke="black" cx="221.985" cy="-919" rx="96.1665" ry="18.3848"/>
<text text-anchor="middle" x="221.985" y="-915.4" font-family="Times Roman,serif" font-size="14.00">Thread167d72e0</text>
</g>
<!-- Thread167d72e0&#45;&gt;Thread16bda700 -->
<g id="edge8" class="edge"><title>Thread167d72e0&#45;&gt;Thread16bda700</title>
<path fill="none" stroke="black" d="M227.192,-900.404C244.23,-839.552 298.404,-646.075 318.965,-572.642"/>
<polygon fill="black" stroke="black" points="322.421,-573.282 321.747,-562.709 315.68,-571.394 322.421,-573.282"/>
</g>
<!-- Thread167d72e0&#45;&gt;Mutex602a40 -->
<g id="edge10" class="edge"><title>Thread167d72e0&#45;&gt;Mutex602a40</title>
<path fill="none" stroke="lightgray" d="M206.074,-900.63C163.991,-850.668 50.2973,-706.431 10.985,-563 -29.0584,-416.902 54.9108,-241.02 96.0396,-167.256"/>
<polygon fill="lightgray" stroke="lightgray" points="99.1932,-168.79 101.069,-158.362 93.0998,-165.344 99.1932,-168.79"/>
</g>
<!-- Thread167d72e0&#45;&gt;Cond602a80 -->
<g id="edge12" class="edge"><title>Thread167d72e0&#45;&gt;Cond602a80</title>
<path fill="none" stroke="green" stroke-dasharray="1,5" d="M237.747,-900.6C279.438,-850.565 392.067,-706.16 430.985,-563 469.639,-420.811 432.452,-242.959 413.081,-167.974"/>
<polygon fill="green" stroke="green" points="416.409,-166.868 410.476,-158.091 409.641,-168.653 416.409,-166.868"/>
</g>
<!-- Thread167d72e0&#45;&gt;Thread169d8700 -->
<g id="edge14" class="edge"><title>Thread167d72e0&#45;&gt;Thread169d8700</title>
<path fill="none" stroke="black" d="M216.778,-900.404C199.74,-839.552 145.566,-646.075 125.005,-572.642"/>
<polygon fill="black" stroke="black" points="128.29,-571.394 122.223,-562.709 121.549,-573.282 128.29,-571.394"/>
</g>
</g>
</svg>
