<?xml version="1.0" encoding="UTF-8" standalone="no"?>
<!DOCTYPE svg PUBLIC "-//W3C//DTD SVG 1.1//EN"
 "http://www.w3.org/Graphics/SVG/1.1/DTD/svg11.dtd">
<!-- Generated by graphviz version 2.26.3 (20100126.1600)
 -->
<!-- Title: G Pages: 1 -->
<svg width="250pt" height="250pt"
 viewBox="0.00 0.00 250.00 250.00" xmlns="http://www.w3.org/2000/svg" xmlns:xlink="http://www.w3.org/1999/xlink">
<g id="graph1" class="graph" transform="scale(1 1) rotate(0) translate(4 246)">
<title>G</title>
<polygon fill="white" stroke="white" points="-4,5 -4,-246 247,-246 247,5 -4,5"/>
<!-- Threada5742e0 -->
<g id="node1" class="node"><title>Threada5742e0</title>
<ellipse fill="none" stroke="black" cx="121" cy="-202" rx="89.8026" ry="29.6985"/>
<text text-anchor="middle" x="121" y="-206.4" font-family="Times Roman,serif" font-size="14.00">Threada5742e0</text>
<text text-anchor="middle" x="121" y="-189.4" font-family="Times Roman,serif" font-size="14.00">{root}</text>
</g>
<!-- Mutex602ae0 -->
<g id="node3" class="node"><title>Mutex602ae0</title>
<polygon fill="none" stroke="black" points="191.666,-98 50.334,-98 4.26326e-14,-14 242,-14 191.666,-98"/>
<text text-anchor="middle" x="121" y="-60.4" font-family="Times Roman,serif" font-size="14.00">Mutex602ae0</text>
<text text-anchor="middle" x="121" y="-43.4" font-family="Times Roman,serif" font-size="14.00">request_mutex</text>
</g>
<!-- Threada5742e0&#45;&gt;Mutex602ae0 -->
<g id="edge2" class="edge"><title>Threada5742e0&#45;&gt;Mutex602ae0</title>
<path fill="none" stroke="black" stroke-width="3" stroke-dasharray="1,5" d="M121,-172.455C121,-154.04 121,-129.826 121,-108.249"/>
<polygon fill="black" stroke="black" points="121,-98.2292 125.5,-108.229 122,-103.229 122,-108.229 121,-108.229 120,-108.229 120,-103.229 116.5,-108.229 121,-98.2292 121,-98.2292"/>
</g>
</g>
</svg>
