<?xml version="1.0" encoding="UTF-8" standalone="no"?>
<!DOCTYPE svg PUBLIC "-//W3C//DTD SVG 1.1//EN"
 "http://www.w3.org/Graphics/SVG/1.1/DTD/svg11.dtd">
<!-- Generated by graphviz version 2.26.3 (20100126.1600)
 -->
<!-- Title: G Pages: 1 -->
<svg width="786pt" height="786pt"
 viewBox="0.00 0.00 786.00 786.00" xmlns="http://www.w3.org/2000/svg" xmlns:xlink="http://www.w3.org/1999/xlink">
<g id="graph1" class="graph" transform="scale(1 1) rotate(0) translate(4 782)">
<title>G</title>
<polygon fill="white" stroke="white" points="-4,5 -4,-782 783,-782 783,5 -4,5"/>
<!-- Threada775700 -->
<g id="node1" class="node"><title>Threada775700</title>
<ellipse fill="none" stroke="black" cx="117" cy="-420" rx="116.88" ry="29.6985"/>
<text text-anchor="middle" x="117" y="-424.4" font-family="Times Roman,serif" font-size="14.00">Threada775700</text>
<text text-anchor="middle" x="117" y="-407.4" font-family="Times Roman,serif" font-size="14.00">handle_requests_loop</text>
</g>
<!-- Mutex602ae0 -->
<g id="node3" class="node"><title>Mutex602ae0</title>
<polygon fill="none" stroke="red" points="341.666,-151 200.334,-151 150,-67 392,-67 341.666,-151"/>
<text text-anchor="middle" x="271" y="-113.4" font-family="Times Roman,serif" font-size="14.00">Mutex602ae0</text>
<text text-anchor="middle" x="271" y="-96.4" font-family="Times Roman,serif" font-size="14.00">request_mutex</text>
</g>
<!-- Threada775700&#45;&gt;Mutex602ae0 -->
<g id="edge2" class="edge"><title>Threada775700&#45;&gt;Mutex602ae0</title>
<path fill="none" stroke="red" stroke-width="3" d="M131.627,-390.461C157.818,-337.569 213.019,-226.092 245.54,-160.416"/>
<polygon fill="red" stroke="red" points="248.867,-161.585 250.168,-151.07 242.594,-158.479 248.867,-161.585"/>
</g>
<!-- Threada977700 -->
<g id="node4" class="node"><title>Threada977700</title>
<ellipse fill="none" stroke="black" cx="425" cy="-420" rx="116.88" ry="29.6985"/>
<text text-anchor="middle" x="425" y="-424.4" font-family="Times Roman,serif" font-size="14.00">Threada977700</text>
<text text-anchor="middle" x="425" y="-407.4" font-family="Times Roman,serif" font-size="14.00">handle_requests_loop</text>
</g>
<!-- Threada977700&#45;&gt;Mutex602ae0 -->
<g id="edge4" class="edge"><title>Threada977700&#45;&gt;Mutex602ae0</title>
<path fill="none" stroke="green" stroke-width="3" d="M410.373,-390.461C384.182,-337.569 328.981,-226.092 296.46,-160.416"/>
<polygon fill="green" stroke="green" points="299.406,-158.479 291.832,-151.07 293.133,-161.585 299.406,-158.479"/>
</g>
<!-- Threada5742e0 -->
<g id="node6" class="node"><title>Threada5742e0</title>
<ellipse fill="none" stroke="black" cx="348" cy="-700" rx="89.8026" ry="29.6985"/>
<text text-anchor="middle" x="348" y="-704.4" font-family="Times Roman,serif" font-size="14.00">Threada5742e0</text>
<text text-anchor="middle" x="348" y="-687.4" font-family="Times Roman,serif" font-size="14.00">{root}</text>
</g>
<!-- Threada5742e0&#45;&gt;Threada775700 -->
<g id="edge10" class="edge"><title>Threada5742e0&#45;&gt;Threada775700</title>
<path fill="none" stroke="black" stroke-width="3" stroke-dasharray="1,5" d="M324.365,-671.351C282.279,-620.338 194.399,-513.817 147.702,-457.215"/>
<polygon fill="black" stroke="black" points="141.122,-449.238 150.957,-454.088 145.075,-452.459 148.257,-456.316 147.485,-456.952 146.714,-457.588 143.532,-453.731 144.014,-459.816 141.122,-449.238 141.122,-449.238"/>
</g>
<!-- Threada5742e0&#45;&gt;Mutex602ae0 -->
<g id="edge6" class="edge"><title>Threada5742e0&#45;&gt;Mutex602ae0</title>
<path fill="none" stroke="black" stroke-width="3" stroke-dasharray="1,5" d="M334.909,-670.523C320.898,-625.755 300.768,-537.807 290,-462 274.91,-355.764 267.381,-230.3 266.97,-161.21"/>
<polygon fill="black" stroke="black" points="266.962,-151.026 271.47,-161.023 267.966,-156.025 267.97,-161.025 266.97,-161.026 265.97,-161.027 265.966,-156.027 262.47,-161.029 266.962,-151.026 266.962,-151.026"/>
</g>
<!-- Threada5742e0&#45;&gt;Mutex602ae0 -->
<g id="edge16" class="edge"><title>Threada5742e0&#45;&gt;Mutex602ae0</title>
<path fill="none" stroke="red" stroke-width="3" d="M346.431,-670.152C338.787,-625.27 318.738,-537.598 308,-462 292.91,-355.764 285.381,-230.3 279.265,-161.21"/>
<polygon fill="red" stroke="red" points="282.73,-160.666 278.333,-151.026 275.759,-161.303 282.73,-160.666"/>
</g>
<!-- Threada5742e0&#45;&gt;Threada977700 -->
<g id="edge12" class="edge"><title>Threada5742e0&#45;&gt;Threada977700</title>
<path fill="none" stroke="black" stroke-width="3" stroke-dasharray="1,5" d="M356.095,-670.564C370.046,-619.834 398.62,-515.926 414.232,-459.156"/>
<polygon fill="black" stroke="black" points="416.898,-449.461 418.585,-460.297 416.536,-454.548 415.211,-459.369 414.246,-459.104 413.282,-458.838 414.608,-454.017 409.908,-457.91 416.898,-449.461 416.898,-449.461"/>
</g>
<!-- Cond602b20 -->
<g id="node9" class="node"><title>Cond602b20</title>
<polygon fill="none" stroke="black" points="777.859,-462 604.689,-462 560.141,-378 733.311,-378 777.859,-462"/>
<text text-anchor="middle" x="669" y="-424.4" font-family="Times Roman,serif" font-size="14.00">Cond602b20</text>
<text text-anchor="middle" x="669" y="-407.4" font-family="Times Roman,serif" font-size="14.00">got_request</text>
</g>
<!-- Threada5742e0&#45;&gt;Cond602b20 -->
<g id="edge8" class="edge"><title>Threada5742e0&#45;&gt;Cond602b20</title>
<path fill="none" stroke="black" stroke-width="3" stroke-dasharray="1,5" d="M375.989,-671.871C427.546,-624.333 538.165,-527.55 607.822,-468.77"/>
<polygon fill="black" stroke="black" points="615.687,-462.148 610.935,-472.031 612.506,-466.134 608.681,-469.354 608.037,-468.589 607.393,-467.824 611.218,-464.604 605.139,-465.146 615.687,-462.148 615.687,-462.148"/>
</g>
<!-- Threada5742e0&#45;&gt;Cond602b20 -->
<g id="edge14" class="edge"><title>Threada5742e0&#45;&gt;Cond602b20</title>
<path fill="none" stroke="grey" stroke-width="3" stroke-dasharray="5,2" d="M383.575,-672.643C440.25,-625.789 550.982,-529.523 616.676,-470.285"/>
<polygon fill="grey" stroke="grey" points="616.737,-470.23 618.503,-463.239 625.637,-462.181 623.87,-469.172 616.737,-470.23"/>
</g>
</g>
</svg>
