<?xml version="1.0" encoding="UTF-8" standalone="no"?>
<!DOCTYPE svg PUBLIC "-//W3C//DTD SVG 1.1//EN"
 "http://www.w3.org/Graphics/SVG/1.1/DTD/svg11.dtd">
<!-- Generated by graphviz version 2.26.3 (20100126.1600)
 -->
<!-- Title: G Pages: 1 -->
<svg width="696pt" height="696pt"
 viewBox="0.00 0.00 696.00 696.00" xmlns="http://www.w3.org/2000/svg" xmlns:xlink="http://www.w3.org/1999/xlink">
<g id="graph1" class="graph" transform="scale(1 1) rotate(0) translate(4 692)">
<title>G</title>
<polygon fill="white" stroke="white" points="-4,5 -4,-692 693,-692 693,5 -4,5"/>
<!-- Threadb3f16700 -->
<g id="node1" class="node"><title>Threadb3f16700</title>
<ellipse fill="none" stroke="lightgrey" cx="425" cy="-374" rx="116.88" ry="29.6985"/>
<text text-anchor="middle" x="425" y="-378.4" font-family="Times Roman,serif" font-size="14.00">Threadb3f16700</text>
<text text-anchor="middle" x="425" y="-361.4" font-family="Times Roman,serif" font-size="14.00">handle_requests_loop</text>
</g>
<!-- Cond602b20 -->
<g id="node3" class="node"><title>Cond602b20</title>
<polygon fill="none" stroke="black" points="687.859,-147 514.689,-147 470.141,-63 643.311,-63 687.859,-147"/>
<text text-anchor="middle" x="579" y="-109.4" font-family="Times Roman,serif" font-size="14.00">Cond602b20</text>
<text text-anchor="middle" x="579" y="-92.4" font-family="Times Roman,serif" font-size="14.00">got_request</text>
</g>
<!-- Threadb3f16700&#45;&gt;Cond602b20 -->
<g id="edge2" class="edge"><title>Threadb3f16700&#45;&gt;Cond602b20</title>
<path fill="none" stroke="grey" stroke-width="3" d="M446.851,-335.831C475.426,-285.919 525.319,-198.768 554.943,-147.021"/>
<polygon fill="grey" stroke="grey" points="443.705,-334.283 441.774,-344.7 449.78,-337.761 443.705,-334.283"/>
</g>
<!-- Mutex602ae0 -->
<g id="node5" class="node"><title>Mutex602ae0</title>
<polygon fill="none" stroke="black" points="341.666,-147 200.334,-147 150,-63 392,-63 341.666,-147"/>
<text text-anchor="middle" x="271" y="-109.4" font-family="Times Roman,serif" font-size="14.00">Mutex602ae0</text>
<text text-anchor="middle" x="271" y="-92.4" font-family="Times Roman,serif" font-size="14.00">request_mutex</text>
</g>
<!-- Threadb3f16700&#45;&gt;Mutex602ae0 -->
<g id="edge4" class="edge"><title>Threadb3f16700&#45;&gt;Mutex602ae0</title>
<path fill="none" stroke="grey" stroke-width="3" d="M408.226,-344.7C382.307,-299.425 332.181,-211.868 300.218,-156.037"/>
<polygon fill="grey" stroke="grey" points="303.062,-153.96 295.057,-147.021 296.987,-157.438 303.062,-153.96"/>
</g>
<!-- Threadb3d14700 -->
<g id="node6" class="node"><title>Threadb3d14700</title>
<ellipse fill="none" stroke="lightgrey" cx="117" cy="-374" rx="116.88" ry="29.6985"/>
<text text-anchor="middle" x="117" y="-378.4" font-family="Times Roman,serif" font-size="14.00">Threadb3d14700</text>
<text text-anchor="middle" x="117" y="-361.4" font-family="Times Roman,serif" font-size="14.00">handle_requests_loop</text>
</g>
<!-- Threadb3d14700&#45;&gt;Mutex602ae0 -->
<g id="edge6" class="edge"><title>Threadb3d14700&#45;&gt;Mutex602ae0</title>
<path fill="none" stroke="grey" stroke-width="3" d="M133.774,-344.7C159.693,-299.425 209.819,-211.868 241.782,-156.037"/>
<polygon fill="grey" stroke="grey" points="245.013,-157.438 246.943,-147.021 238.938,-153.96 245.013,-157.438"/>
</g>
<!-- Threadb3b132e0 -->
<g id="node8" class="node"><title>Threadb3b132e0</title>
<ellipse fill="none" stroke="black" cx="271" cy="-613" rx="94.9596" ry="29.6985"/>
<text text-anchor="middle" x="271" y="-617.4" font-family="Times Roman,serif" font-size="14.00">Threadb3b132e0</text>
<text text-anchor="middle" x="271" y="-600.4" font-family="Times Roman,serif" font-size="14.00">{root}</text>
</g>
<!-- Threadb3d14700&#45;&gt;Threadb3b132e0 -->
<g id="edge16" class="edge"><title>Threadb3d14700&#45;&gt;Threadb3b132e0</title>
<path fill="none" stroke="grey" stroke-width="3" d="M140.403,-403.172C171.258,-446.842 224.427,-529.147 252.597,-576.661"/>
<ellipse fill="none" stroke="grey" cx="254.704" cy="-580.246" rx="4.00002" ry="4.00002"/>
</g>
<!-- Threadb3b132e0&#45;&gt;Threadb3f16700 -->
<g id="edge14" class="edge"><title>Threadb3b132e0&#45;&gt;Threadb3f16700</title>
<path fill="none" stroke="grey" stroke-width="3" stroke-dasharray="1,5" d="M289.883,-583.694C317.784,-540.394 370.023,-459.322 400.731,-411.665"/>
<polygon fill="grey" stroke="grey" points="403.729,-413.473 406.203,-403.172 397.845,-409.682 403.729,-413.473"/>
</g>
<!-- Threadb3b132e0&#45;&gt;Cond602b20 -->
<g id="edge10" class="edge"><title>Threadb3b132e0&#45;&gt;Cond602b20</title>
<path fill="none" stroke="black" stroke-width="3" stroke-dasharray="1,5" d="M322.238,-587.966C385.869,-555.844 491.822,-493.395 542,-404 585.452,-326.587 583.489,-219.879 579.95,-157.091"/>
<polygon fill="black" stroke="black" points="583.439,-156.801 579.352,-147.026 576.451,-157.216 583.439,-156.801"/>
</g>
<!-- Threadb3b132e0&#45;&gt;Cond602b20 -->
<g id="edge18" class="edge"><title>Threadb3b132e0&#45;&gt;Cond602b20</title>
<path fill="none" stroke="grey" stroke-dasharray="5,2" d="M330.833,-589.922C399.456,-558.42 508.783,-495.247 560,-404 603.9,-325.789 601.444,-217.675 592.378,-155.164"/>
<ellipse fill="grey" stroke="grey" cx="591.731" cy="-150.979" rx="4.00001" ry="4.00001"/>
</g>
<!-- Threadb3b132e0&#45;&gt;Mutex602ae0 -->
<g id="edge8" class="edge"><title>Threadb3b132e0&#45;&gt;Mutex602ae0</title>
<path fill="none" stroke="black" stroke-width="3" stroke-dasharray="1,5" d="M267.624,-583.492C263.461,-500.392 263.15,-263.577 266.691,-157.502"/>
<polygon fill="black" stroke="black" points="270.194,-157.47 267.058,-147.351 263.199,-157.218 270.194,-157.47"/>
</g>
<!-- Threadb3b132e0&#45;&gt;Mutex602ae0 -->
<g id="edge20" class="edge"><title>Threadb3b132e0&#45;&gt;Mutex602ae0</title>
<path fill="none" stroke="grey" stroke-width="3" d="M274.376,-583.492C278.539,-500.392 278.85,-263.577 275.309,-157.502"/>
<polygon fill="grey" stroke="grey" points="278.801,-157.218 274.942,-147.351 271.806,-157.47 278.801,-157.218"/>
</g>
<!-- Threadb3b132e0&#45;&gt;Threadb3d14700 -->
<g id="edge12" class="edge"><title>Threadb3b132e0&#45;&gt;Threadb3d14700</title>
<path fill="none" stroke="grey" stroke-width="3" stroke-dasharray="1,5" d="M247.84,-584.171C217.404,-541.132 164.972,-460.027 136.469,-412.133"/>
<polygon fill="grey" stroke="grey" points="139.36,-410.145 131.269,-403.305 133.329,-413.698 139.36,-410.145"/>
</g>
</g>
</svg>
