<?xml version="1.0" encoding="UTF-8" standalone="no"?>
<!DOCTYPE svg PUBLIC "-//W3C//DTD SVG 1.1//EN"
 "http://www.w3.org/Graphics/SVG/1.1/DTD/svg11.dtd">
<!-- Generated by graphviz version 2.26.3 (20100126.1600)
 -->
<!-- Title: G Pages: 1 -->
<svg width="398pt" height="788pt"
 viewBox="0.00 0.00 398.00 788.00" xmlns="http://www.w3.org/2000/svg" xmlns:xlink="http://www.w3.org/1999/xlink">
<g id="graph1" class="graph" transform="scale(1 1) rotate(0) translate(4 784)">
<title>G</title>
<polygon fill="white" stroke="white" points="-4,5 -4,-784 395,-784 395,5 -4,5"/>
<!-- Thread2554929600 -->
<g id="node1" class="node"><title>Thread2554929600</title>
<ellipse fill="none" stroke="black" cx="179" cy="-648" rx="109.101" ry="18.3848"/>
<text text-anchor="middle" x="179" y="-644.4" font-family="Times Roman,serif" font-size="14.00">Thread2554929600</text>
</g>
<!-- Thread2557032192 -->
<g id="node3" class="node"><title>Thread2557032192</title>
<polygon fill="none" stroke="black" points="154,-150 7.10543e-14,-150 0,-114 154,-114 154,-150"/>
<text text-anchor="middle" x="77" y="-128.4" font-family="Times Roman,serif" font-size="14.00">Thread2557032192</text>
</g>
<!-- Thread2554929600&#45;&gt;Thread2557032192 -->
<g id="edge2" class="edge"><title>Thread2554929600&#45;&gt;Thread2557032192</title>
<path fill="none" stroke="black" d="M175.31,-629.33C159.937,-551.564 100.936,-253.087 82.5224,-159.937"/>
<polygon fill="black" stroke="black" points="85.952,-159.238 80.5792,-150.106 79.0849,-160.595 85.952,-159.238"/>
</g>
<!-- Thread2559137536 -->
<g id="node5" class="node"><title>Thread2559137536</title>
<ellipse fill="none" stroke="black" cx="281" cy="-132" rx="109.101" ry="18.3848"/>
<text text-anchor="middle" x="281" y="-128.4" font-family="Times Roman,serif" font-size="14.00">Thread2559137536</text>
</g>
<!-- Thread2554929600&#45;&gt;Thread2559137536 -->
<g id="edge4" class="edge"><title>Thread2554929600&#45;&gt;Thread2559137536</title>
<path fill="none" stroke="black" d="M182.69,-629.33C198.029,-551.738 256.8,-254.422 275.353,-160.565"/>
<polygon fill="black" stroke="black" points="278.809,-161.133 277.314,-150.644 271.942,-159.776 278.809,-161.133"/>
</g>
</g>
</svg>
