<?xml version="1.0" encoding="UTF-8" standalone="no"?>
<!DOCTYPE svg PUBLIC "-//W3C//DTD SVG 1.1//EN"
 "http://www.w3.org/Graphics/SVG/1.1/DTD/svg11.dtd">
<!-- Generated by graphviz version 2.26.3 (20100126.1600)
 -->
<!-- Title: G Pages: 1 -->
<svg width="738pt" height="738pt"
 viewBox="0.00 0.00 738.00 738.00" xmlns="http://www.w3.org/2000/svg" xmlns:xlink="http://www.w3.org/1999/xlink">
<g id="graph1" class="graph" transform="scale(1 1) rotate(0) translate(4 734)">
<title>G</title>
<polygon fill="white" stroke="white" points="-4,5 -4,-734 735,-734 735,5 -4,5"/>
<!-- Threadb3d14700 -->
<g id="node1" class="node"><title>Threadb3d14700</title>
<ellipse fill="none" stroke="black" cx="117" cy="-170" rx="116.88" ry="29.6985"/>
<text text-anchor="middle" x="117" y="-174.4" font-family="Times Roman,serif" font-size="14.00">Threadb3d14700</text>
<text text-anchor="middle" x="117" y="-157.4" font-family="Times Roman,serif" font-size="14.00">handle_requests_loop</text>
</g>
<!-- Threadb3b132e0 -->
<g id="node2" class="node"><title>Threadb3b132e0</title>
<ellipse fill="none" stroke="black" cx="373" cy="-608" rx="94.9596" ry="29.6985"/>
<text text-anchor="middle" x="373" y="-612.4" font-family="Times Roman,serif" font-size="14.00">Threadb3b132e0</text>
<text text-anchor="middle" x="373" y="-595.4" font-family="Times Roman,serif" font-size="14.00">{root}</text>
</g>
<!-- Threadb3b132e0&#45;&gt;Threadb3d14700 -->
<g id="edge6" class="edge"><title>Threadb3b132e0&#45;&gt;Threadb3d14700</title>
<path fill="none" stroke="black" stroke-width="3" stroke-dasharray="1,5" d="M356.005,-578.922C311.137,-502.156 189.508,-294.057 139.221,-208.019"/>
<polygon fill="black" stroke="black" points="142.225,-206.222 134.157,-199.354 136.181,-209.754 142.225,-206.222"/>
</g>
<!-- Mutex602ae0 -->
<g id="node4" class="node"><title>Mutex602ae0</title>
<polygon fill="none" stroke="black" points="443.666,-212 302.334,-212 252,-128 494,-128 443.666,-212"/>
<text text-anchor="middle" x="373" y="-174.4" font-family="Times Roman,serif" font-size="14.00">Mutex602ae0</text>
<text text-anchor="middle" x="373" y="-157.4" font-family="Times Roman,serif" font-size="14.00">request_mutex</text>
</g>
<!-- Threadb3b132e0&#45;&gt;Mutex602ae0 -->
<g id="edge2" class="edge"><title>Threadb3b132e0&#45;&gt;Mutex602ae0</title>
<path fill="none" stroke="black" stroke-width="3" stroke-dasharray="1,5" d="M373,-578.239C373,-505.007 373,-315.296 373,-222.573"/>
<polygon fill="black" stroke="black" points="376.5,-222.296 373,-212.296 369.5,-222.296 376.5,-222.296"/>
</g>
<!-- Cond602b20 -->
<g id="node6" class="node"><title>Cond602b20</title>
<polygon fill="none" stroke="black" points="729.859,-212 556.689,-212 512.141,-128 685.311,-128 729.859,-212"/>
<text text-anchor="middle" x="621" y="-174.4" font-family="Times Roman,serif" font-size="14.00">Cond602b20</text>
<text text-anchor="middle" x="621" y="-157.4" font-family="Times Roman,serif" font-size="14.00">got_request</text>
</g>
<!-- Threadb3b132e0&#45;&gt;Cond602b20 -->
<g id="edge4" class="edge"><title>Threadb3b132e0&#45;&gt;Cond602b20</title>
<path fill="none" stroke="black" stroke-width="3" stroke-dasharray="1,5" d="M389.464,-578.922C430.872,-505.791 539.765,-313.472 592.103,-221.037"/>
<polygon fill="black" stroke="black" points="595.257,-222.569 597.138,-212.143 589.165,-219.12 595.257,-222.569"/>
</g>
</g>
</svg>
