<?xml version="1.0" encoding="UTF-8" standalone="no"?>
<!DOCTYPE svg PUBLIC "-//W3C//DTD SVG 1.1//EN"
 "http://www.w3.org/Graphics/SVG/1.1/DTD/svg11.dtd">
<!-- Generated by graphviz version 2.26.3 (20100126.1600)
 -->
<!-- Title: G Pages: 1 -->
<svg width="990pt" height="990pt"
 viewBox="0.00 0.00 990.00 990.00" xmlns="http://www.w3.org/2000/svg" xmlns:xlink="http://www.w3.org/1999/xlink">
<g id="graph1" class="graph" transform="scale(1 1) rotate(0) translate(4 986)">
<title>G</title>
<polygon fill="white" stroke="white" points="-4,5 -4,-986 987,-986 987,5 -4,5"/>
<!-- Mutex602a40 -->
<g id="node1" class="node"><title>Mutex602a40</title>
<polygon fill="none" stroke="black" points="191.666,-271 50.334,-271 4.26326e-14,-187 242,-187 191.666,-271"/>
<text text-anchor="middle" x="121" y="-233.4" font-family="Times Roman,serif" font-size="14.00">Mutex602a40</text>
<text text-anchor="middle" x="121" y="-216.4" font-family="Times Roman,serif" font-size="14.00">request_mutex</text>
</g>
<!-- Cond602a80 -->
<g id="node2" class="node"><title>Cond602a80</title>
<polygon fill="none" stroke="black" points="477.859,-271 304.689,-271 260.141,-187 433.311,-187 477.859,-271"/>
<text text-anchor="middle" x="369" y="-233.4" font-family="Times Roman,serif" font-size="14.00">Cond602a80</text>
<text text-anchor="middle" x="369" y="-216.4" font-family="Times Roman,serif" font-size="14.00">got_request</text>
</g>
<!-- Thread7ae662e0 -->
<g id="node3" class="node"><title>Thread7ae662e0</title>
<ellipse fill="none" stroke="black" cx="491" cy="-818" rx="94.9596" ry="29.6985"/>
<text text-anchor="middle" x="491" y="-822.4" font-family="Times Roman,serif" font-size="14.00">Thread7ae662e0</text>
<text text-anchor="middle" x="491" y="-805.4" font-family="Times Roman,serif" font-size="14.00">{root}</text>
</g>
<!-- Thread7ae662e0&#45;&gt;Mutex602a40 -->
<g id="edge2" class="edge"><title>Thread7ae662e0&#45;&gt;Mutex602a40</title>
<path fill="none" stroke="lightgray" stroke-width="2" d="M472.652,-788.791C413.615,-694.811 228.059,-399.426 152.991,-279.926"/>
<polygon fill="lightgray" stroke="lightgray" points="155.85,-277.897 147.567,-271.291 149.922,-281.621 155.85,-277.897"/>
</g>
<!-- Thread7ae662e0&#45;&gt;Cond602a80 -->
<g id="edge4" class="edge"><title>Thread7ae662e0&#45;&gt;Cond602a80</title>
<path fill="none" stroke="lightgray" stroke-width="2" stroke-dasharray="1,5" d="M484.866,-788.388C465.382,-694.318 404.717,-401.437 379.825,-281.26"/>
<polygon fill="lightgray" stroke="lightgray" points="383.197,-280.284 377.741,-271.201 376.342,-281.704 383.197,-280.284"/>
</g>
<!-- Thread7b269700 -->
<g id="node7" class="node"><title>Thread7b269700</title>
<ellipse fill="none" stroke="black" cx="613" cy="-229" rx="116.88" ry="29.6985"/>
<text text-anchor="middle" x="613" y="-233.4" font-family="Times Roman,serif" font-size="14.00">Thread7b269700</text>
<text text-anchor="middle" x="613" y="-216.4" font-family="Times Roman,serif" font-size="14.00">handle_requests_loop</text>
</g>
<!-- Thread7ae662e0&#45;&gt;Thread7b269700 -->
<g id="edge6" class="edge"><title>Thread7ae662e0&#45;&gt;Thread7b269700</title>
<path fill="none" stroke="black" stroke-width="2" d="M497.134,-788.388C517.332,-690.873 581.782,-379.717 604.763,-268.769"/>
<polygon fill="black" stroke="black" points="608.253,-269.173 606.854,-258.671 601.399,-267.753 608.253,-269.173"/>
</g>
<!-- Thread7b067700 -->
<g id="node9" class="node"><title>Thread7b067700</title>
<ellipse fill="none" stroke="black" cx="865" cy="-229" rx="116.88" ry="29.6985"/>
<text text-anchor="middle" x="865" y="-233.4" font-family="Times Roman,serif" font-size="14.00">Thread7b067700</text>
<text text-anchor="middle" x="865" y="-216.4" font-family="Times Roman,serif" font-size="14.00">handle_requests_loop</text>
</g>
<!-- Thread7ae662e0&#45;&gt;Thread7b067700 -->
<g id="edge8" class="edge"><title>Thread7ae662e0&#45;&gt;Thread7b067700</title>
<path fill="none" stroke="black" stroke-width="2" d="M509.547,-788.791C571.48,-691.255 771.161,-376.784 840.784,-267.137"/>
<polygon fill="black" stroke="black" points="843.936,-268.703 846.341,-258.385 838.026,-264.951 843.936,-268.703"/>
</g>
</g>
</svg>
