<?xml version="1.0" encoding="UTF-8" standalone="no"?>
<!DOCTYPE svg PUBLIC "-//W3C//DTD SVG 1.1//EN"
 "http://www.w3.org/Graphics/SVG/1.1/DTD/svg11.dtd">
<!-- Generated by graphviz version 2.26.3 (20100126.1600)
 -->
<!-- Title: G Pages: 1 -->
<svg width="535pt" height="498pt"
 viewBox="0.00 0.00 534.78 498.00" xmlns="http://www.w3.org/2000/svg" xmlns:xlink="http://www.w3.org/1999/xlink">
<g id="graph1" class="graph" transform="scale(1 1) rotate(0) translate(4 494)">
<title>G</title>
<polygon fill="white" stroke="white" points="-4,5 -4,-494 531.781,-494 531.781,5 -4,5"/>
<!-- Mutex602a40 -->
<g id="node1" class="node"><title>Mutex602a40</title>
<polygon fill="none" stroke="black" points="208.095,-117 66.7625,-117 16.4285,-33 258.428,-33 208.095,-117"/>
<text text-anchor="middle" x="137.428" y="-79.4" font-family="Times Roman,serif" font-size="14.00">Mutex602a40</text>
<text text-anchor="middle" x="137.428" y="-62.4" font-family="Times Roman,serif" font-size="14.00">request_mutex</text>
</g>
<!-- Cond602a80 -->
<g id="node2" class="node"><title>Cond602a80</title>
<polygon fill="none" stroke="red" points="498.288,-117 325.117,-117 280.569,-33 453.74,-33 498.288,-117"/>
<text text-anchor="middle" x="389.428" y="-79.4" font-family="Times Roman,serif" font-size="14.00">Cond602a80</text>
<text text-anchor="middle" x="389.428" y="-62.4" font-family="Times Roman,serif" font-size="14.00">got_request</text>
</g>
<!-- Thread7ae662e0 -->
<g id="node3" class="node"><title>Thread7ae662e0</title>
<ellipse fill="none" stroke="black" cx="263.428" cy="-437" rx="116.88" ry="29.6985"/>
<text text-anchor="middle" x="263.428" y="-441.4" font-family="Times Roman,serif" font-size="14.00">Thread7ae662e0</text>
<text text-anchor="middle" x="263.428" y="-424.4" font-family="Times Roman,serif" font-size="14.00">handle_requests_loop</text>
</g>
<!-- Thread7ae662e0&#45;&gt;Mutex602a40 -->
<g id="edge2" class="edge"><title>Thread7ae662e0&#45;&gt;Mutex602a40</title>
<path fill="none" stroke="green" stroke-width="2" d="M173.065,-412.275C115.775,-391.399 46.1389,-355.196 11.4285,-296 -24.8742,-234.089 35.6794,-161.729 84.7545,-117.131"/>
<polygon fill="green" stroke="green" points="171.916,-415.581 182.51,-415.62 174.253,-408.982 171.916,-415.581"/>
</g>
<!-- Thread7ae662e0&#45;&gt;Cond602a80 -->
<g id="edge4" class="edge"><title>Thread7ae662e0&#45;&gt;Cond602a80</title>
<path fill="none" stroke="lightgray" stroke-width="2" stroke-dasharray="1,5" d="M344.347,-415.62C403.22,-395.359 478.786,-358.491 515.428,-296 549.888,-237.233 497.078,-169.051 449.653,-124.135"/>
<polygon fill="lightgray" stroke="lightgray" points="451.814,-121.365 442.102,-117.131 447.054,-126.498 451.814,-121.365"/>
</g>
<!-- Thread7b269700 -->
<g id="node7" class="node"><title>Thread7b269700</title>
<ellipse fill="none" stroke="black" cx="137.428" cy="-266" rx="116.88" ry="29.6985"/>
<text text-anchor="middle" x="137.428" y="-270.4" font-family="Times Roman,serif" font-size="14.00">Thread7b269700</text>
<text text-anchor="middle" x="137.428" y="-253.4" font-family="Times Roman,serif" font-size="14.00">handle_requests_loop</text>
</g>
<!-- Thread7ae662e0&#45;&gt;Thread7b269700 -->
<g id="edge6" class="edge"><title>Thread7ae662e0&#45;&gt;Thread7b269700</title>
<path fill="none" stroke="black" stroke-width="2" d="M242.054,-407.992C220.785,-379.127 188.059,-334.712 164.878,-303.253"/>
<polygon fill="black" stroke="black" points="167.657,-301.124 158.908,-295.15 162.022,-305.277 167.657,-301.124"/>
</g>
<!-- Thread7b067700 -->
<g id="node9" class="node"><title>Thread7b067700</title>
<ellipse fill="none" stroke="black" cx="389.428" cy="-266" rx="116.88" ry="29.6985"/>
<text text-anchor="middle" x="389.428" y="-270.4" font-family="Times Roman,serif" font-size="14.00">Thread7b067700</text>
<text text-anchor="middle" x="389.428" y="-253.4" font-family="Times Roman,serif" font-size="14.00">handle_requests_loop</text>
</g>
<!-- Thread7ae662e0&#45;&gt;Thread7b067700 -->
<g id="edge8" class="edge"><title>Thread7ae662e0&#45;&gt;Thread7b067700</title>
<path fill="none" stroke="black" stroke-width="2" d="M284.803,-407.992C306.072,-379.127 338.798,-334.712 361.979,-303.253"/>
<polygon fill="black" stroke="black" points="364.835,-305.277 367.949,-295.15 359.2,-301.124 364.835,-305.277"/>
</g>
<!-- Thread7b269700&#45;&gt;Mutex602a40 -->
<g id="edge10" class="edge"><title>Thread7b269700&#45;&gt;Mutex602a40</title>
<path fill="none" stroke="lightgray" stroke-width="2" d="M137.428,-236.156C137.428,-207.031 137.428,-162.114 137.428,-127.092"/>
<polygon fill="lightgray" stroke="lightgray" points="140.929,-127.034 137.428,-117.034 133.929,-127.034 140.929,-127.034"/>
</g>
<!-- Thread7b269700&#45;&gt;Cond602a80 -->
<g id="edge12" class="edge"><title>Thread7b269700&#45;&gt;Cond602a80</title>
<path fill="none" stroke="red" stroke-width="2" d="M174.612,-237.817C214.345,-207.702 278.052,-159.416 325.79,-123.234"/>
<polygon fill="red" stroke="red" points="336.021,-119.871 325.937,-123.122 331.793,-114.293 336.021,-119.871"/>
</g>
<!-- Thread7b067700&#45;&gt;Mutex602a40 -->
<g id="edge14" class="edge"><title>Thread7b067700&#45;&gt;Mutex602a40</title>
<path fill="none" stroke="lightgray" stroke-width="2" d="M352.245,-237.817C312.512,-207.702 248.805,-159.416 201.067,-123.234"/>
<polygon fill="lightgray" stroke="lightgray" points="203.034,-120.333 192.95,-117.082 198.806,-125.912 203.034,-120.333"/>
</g>
<!-- Thread7b067700&#45;&gt;Cond602a80 -->
<g id="edge16" class="edge"><title>Thread7b067700&#45;&gt;Cond602a80</title>
<path fill="none" stroke="red" stroke-width="2" d="M389.428,-236.156C389.428,-207.031 389.428,-162.114 389.428,-127.092"/>
<polygon fill="red" stroke="red" points="392.928,-117.034 389.429,-127.034 385.928,-117.034 392.928,-117.034"/>
</g>
</g>
</svg>
