<?xml version="1.0" encoding="UTF-8" standalone="no"?>
<!DOCTYPE svg PUBLIC "-//W3C//DTD SVG 1.1//EN"
 "http://www.w3.org/Graphics/SVG/1.1/DTD/svg11.dtd">
<!-- Generated by graphviz version 2.26.3 (20100126.1600)
 -->
<!-- Title: G Pages: 1 -->
<svg width="786pt" height="786pt"
 viewBox="0.00 0.00 786.00 786.00" xmlns="http://www.w3.org/2000/svg" xmlns:xlink="http://www.w3.org/1999/xlink">
<g id="graph1" class="graph" transform="scale(1 1) rotate(0) translate(4 782)">
<title>G</title>
<polygon fill="white" stroke="white" points="-4,5 -4,-782 783,-782 783,5 -4,5"/>
<!-- Threada775700 -->
<g id="node1" class="node"><title>Threada775700</title>
<ellipse fill="none" stroke="black" cx="117" cy="-420" rx="116.88" ry="29.6985"/>
<text text-anchor="middle" x="117" y="-424.4" font-family="Times Roman,serif" font-size="14.00">Threada775700</text>
<text text-anchor="middle" x="117" y="-407.4" font-family="Times Roman,serif" font-size="14.00">handle_requests_loop</text>
</g>
<!-- Threada977700 -->
<g id="node2" class="node"><title>Threada977700</title>
<ellipse fill="none" stroke="black" cx="369" cy="-420" rx="116.88" ry="29.6985"/>
<text text-anchor="middle" x="369" y="-424.4" font-family="Times Roman,serif" font-size="14.00">Threada977700</text>
<text text-anchor="middle" x="369" y="-407.4" font-family="Times Roman,serif" font-size="14.00">handle_requests_loop</text>
</g>
<!-- Mutex602ae0 -->
<g id="node4" class="node"><title>Mutex602ae0</title>
<polygon fill="none" stroke="red" points="593.666,-151 452.334,-151 402,-67 644,-67 593.666,-151"/>
<text text-anchor="middle" x="523" y="-113.4" font-family="Times Roman,serif" font-size="14.00">Mutex602ae0</text>
<text text-anchor="middle" x="523" y="-96.4" font-family="Times Roman,serif" font-size="14.00">request_mutex</text>
</g>
<!-- Threada977700&#45;&gt;Mutex602ae0 -->
<g id="edge2" class="edge"><title>Threada977700&#45;&gt;Mutex602ae0</title>
<path fill="none" stroke="green" stroke-width="3" d="M383.627,-390.461C409.818,-337.569 465.019,-226.092 497.54,-160.416"/>
<polygon fill="green" stroke="green" points="500.867,-161.585 502.168,-151.07 494.594,-158.479 500.867,-161.585"/>
</g>
<!-- Threada5742e0 -->
<g id="node5" class="node"><title>Threada5742e0</title>
<ellipse fill="none" stroke="black" cx="523" cy="-700" rx="89.8026" ry="29.6985"/>
<text text-anchor="middle" x="523" y="-704.4" font-family="Times Roman,serif" font-size="14.00">Threada5742e0</text>
<text text-anchor="middle" x="523" y="-687.4" font-family="Times Roman,serif" font-size="14.00">{root}</text>
</g>
<!-- Threada5742e0&#45;&gt;Threada775700 -->
<g id="edge8" class="edge"><title>Threada5742e0&#45;&gt;Threada775700</title>
<path fill="none" stroke="black" stroke-width="3" stroke-dasharray="1,5" d="M484.071,-673.152C409.675,-621.845 247.465,-509.976 165.897,-453.722"/>
<polygon fill="black" stroke="black" points="157.31,-447.8 168.096,-449.773 161.993,-449.815 166.109,-452.654 165.542,-453.477 164.974,-454.3 160.858,-451.462 162.987,-457.181 157.31,-447.8 157.31,-447.8"/>
</g>
<!-- Threada5742e0&#45;&gt;Threada977700 -->
<g id="edge10" class="edge"><title>Threada5742e0&#45;&gt;Threada977700</title>
<path fill="none" stroke="black" stroke-width="3" stroke-dasharray="1,5" d="M506.955,-670.827C479.006,-620.01 421.397,-515.267 390.196,-458.538"/>
<polygon fill="black" stroke="black" points="385.24,-449.528 394.003,-456.121 388.526,-453.427 390.936,-457.808 390.06,-458.29 389.183,-458.772 386.774,-454.391 386.117,-460.459 385.24,-449.528 385.24,-449.528"/>
</g>
<!-- Threada5742e0&#45;&gt;Mutex602ae0 -->
<g id="edge4" class="edge"><title>Threada5742e0&#45;&gt;Mutex602ae0</title>
<path fill="none" stroke="black" stroke-width="3" stroke-dasharray="1,5" d="M519.832,-670.287C515.369,-575.898 515.076,-282.022 518.953,-161.438"/>
<polygon fill="black" stroke="black" points="519.303,-151.345 523.454,-161.495 520.129,-156.376 519.956,-161.373 518.957,-161.339 517.957,-161.304 518.13,-156.307 514.459,-161.183 519.303,-151.345 519.303,-151.345"/>
</g>
<!-- Threada5742e0&#45;&gt;Mutex602ae0 -->
<g id="edge14" class="edge"><title>Threada5742e0&#45;&gt;Mutex602ae0</title>
<path fill="none" stroke="grey" stroke-width="3" d="M526.168,-670.287C530.631,-575.898 530.924,-282.022 527.047,-161.438"/>
<polygon fill="grey" stroke="grey" points="530.541,-161.218 526.697,-151.345 523.545,-161.46 530.541,-161.218"/>
</g>
<!-- Cond602b20 -->
<g id="node8" class="node"><title>Cond602b20</title>
<polygon fill="none" stroke="black" points="777.859,-462 604.689,-462 560.141,-378 733.311,-378 777.859,-462"/>
<text text-anchor="middle" x="669" y="-424.4" font-family="Times Roman,serif" font-size="14.00">Cond602b20</text>
<text text-anchor="middle" x="669" y="-407.4" font-family="Times Roman,serif" font-size="14.00">got_request</text>
</g>
<!-- Threada5742e0&#45;&gt;Cond602b20 -->
<g id="edge6" class="edge"><title>Threada5742e0&#45;&gt;Cond602b20</title>
<path fill="none" stroke="black" stroke-width="3" stroke-dasharray="1,5" d="M534.01,-670.564C555.852,-623.251 604.302,-529.681 636.924,-471.237"/>
<polygon fill="black" stroke="black" points="642.017,-462.171 641.042,-473.093 640.44,-467.02 637.991,-471.379 637.119,-470.889 636.247,-470.4 638.696,-466.04 633.196,-468.685 642.017,-462.171 642.017,-462.171"/>
</g>
<!-- Threada5742e0&#45;&gt;Cond602b20 -->
<g id="edge12" class="edge"><title>Threada5742e0&#45;&gt;Cond602b20</title>
<path fill="none" stroke="grey" stroke-width="3" stroke-dasharray="5,2" d="M542.382,-671.09C569.504,-624.49 618.074,-532.063 646.651,-473.282"/>
<polygon fill="grey" stroke="grey" points="646.706,-473.167 645.707,-466.026 651.916,-462.357 652.914,-469.499 646.706,-473.167"/>
</g>
</g>
</svg>
