<?xml version="1.0" encoding="UTF-8" standalone="no"?>
<!DOCTYPE svg PUBLIC "-//W3C//DTD SVG 1.1//EN"
 "http://www.w3.org/Graphics/SVG/1.1/DTD/svg11.dtd">
<!-- Generated by graphviz version 2.26.3 (20100126.1600)
 -->
<!-- Title: G Pages: 1 -->
<svg width="589pt" height="559pt"
 viewBox="0.00 0.00 589.12 559.00" xmlns="http://www.w3.org/2000/svg" xmlns:xlink="http://www.w3.org/1999/xlink">
<g id="graph1" class="graph" transform="scale(1 1) rotate(0) translate(4 555)">
<title>G</title>
<polygon fill="white" stroke="white" points="-4,5 -4,-555 586.121,-555 586.121,5 -4,5"/>
<!-- Threadb3f16700 -->
<g id="node1" class="node"><title>Threadb3f16700</title>
<ellipse fill="none" stroke="lightgrey" cx="260.121" cy="-509" rx="116.88" ry="29.6985"/>
<text text-anchor="middle" x="260.121" y="-513.4" font-family="Times Roman,serif" font-size="14.00">Threadb3f16700</text>
<text text-anchor="middle" x="260.121" y="-496.4" font-family="Times Roman,serif" font-size="14.00">handle_requests_loop</text>
</g>
<!-- Cond602b20 -->
<g id="node3" class="node"><title>Cond602b20</title>
<polygon fill="none" stroke="black" points="247.98,-267 74.8092,-267 30.2614,-183 203.432,-183 247.98,-267"/>
<text text-anchor="middle" x="139.121" y="-229.4" font-family="Times Roman,serif" font-size="14.00">Cond602b20</text>
<text text-anchor="middle" x="139.121" y="-212.4" font-family="Times Roman,serif" font-size="14.00">got_request</text>
</g>
<!-- Threadb3f16700&#45;&gt;Cond602b20 -->
<g id="edge2" class="edge"><title>Threadb3f16700&#45;&gt;Cond602b20</title>
<path fill="none" stroke="grey" stroke-width="3" d="M243.503,-469.998C220.877,-416.89 180.526,-322.182 157.175,-267.376"/>
<polygon fill="grey" stroke="grey" points="240.374,-471.583 247.514,-479.411 246.814,-468.839 240.374,-471.583"/>
</g>
<!-- Mutex602ae0 -->
<g id="node5" class="node"><title>Mutex602ae0</title>
<polygon fill="none" stroke="black" points="530.787,-100 389.454,-100 339.121,-16 581.121,-16 530.787,-100"/>
<text text-anchor="middle" x="460.121" y="-62.4" font-family="Times Roman,serif" font-size="14.00">Mutex602ae0</text>
<text text-anchor="middle" x="460.121" y="-45.4" font-family="Times Roman,serif" font-size="14.00">request_mutex</text>
</g>
<!-- Threadb3f16700&#45;&gt;Mutex602ae0 -->
<g id="edge4" class="edge"><title>Threadb3f16700&#45;&gt;Mutex602ae0</title>
<path fill="none" stroke="grey" stroke-width="3" d="M213.23,-481.761C122.368,-425.552 -61.7601,-292.774 21.1205,-183 62.0659,-128.768 245.175,-91.0989 361.592,-72.14"/>
<polygon fill="grey" stroke="grey" points="362.28,-75.5745 371.597,-70.53 361.167,-68.6635 362.28,-75.5745"/>
</g>
<!-- Threadb3b132e0 -->
<g id="node8" class="node"><title>Threadb3b132e0</title>
<ellipse fill="none" stroke="black" cx="352.121" cy="-376" rx="94.9596" ry="29.6985"/>
<text text-anchor="middle" x="352.121" y="-380.4" font-family="Times Roman,serif" font-size="14.00">Threadb3b132e0</text>
<text text-anchor="middle" x="352.121" y="-363.4" font-family="Times Roman,serif" font-size="14.00">{root}</text>
</g>
<!-- Threadb3f16700&#45;&gt;Threadb3b132e0 -->
<g id="edge16" class="edge"><title>Threadb3f16700&#45;&gt;Threadb3b132e0</title>
<path fill="none" stroke="grey" stroke-width="3" d="M274.818,-479.483C287.563,-459.231 306.112,-432.27 321.925,-410.945"/>
<ellipse fill="none" stroke="grey" cx="324.337" cy="-407.723" rx="4.00002" ry="4.00002"/>
</g>
<!-- Threadb3d14700 -->
<g id="node6" class="node"><title>Threadb3d14700</title>
<ellipse fill="none" stroke="lightgrey" cx="383.121" cy="-225" rx="116.88" ry="29.6985"/>
<text text-anchor="middle" x="383.121" y="-229.4" font-family="Times Roman,serif" font-size="14.00">Threadb3d14700</text>
<text text-anchor="middle" x="383.121" y="-212.4" font-family="Times Roman,serif" font-size="14.00">handle_requests_loop</text>
</g>
<!-- Threadb3d14700&#45;&gt;Mutex602ae0 -->
<g id="edge6" class="edge"><title>Threadb3d14700&#45;&gt;Mutex602ae0</title>
<path fill="none" stroke="grey" stroke-width="3" d="M396.709,-195.528C407.687,-171.72 423.399,-137.642 436.437,-109.366"/>
<polygon fill="grey" stroke="grey" points="439.736,-110.569 440.745,-100.022 433.379,-107.638 439.736,-110.569"/>
</g>
<!-- Threadb3d14700&#45;&gt;Threadb3b132e0 -->
<g id="edge18" class="edge"><title>Threadb3d14700&#45;&gt;Threadb3b132e0</title>
<path fill="none" stroke="grey" stroke-width="3" d="M382.525,-254.656C379.103,-278.742 372.241,-312.844 365.676,-338.765"/>
<ellipse fill="none" stroke="grey" cx="364.661" cy="-342.657" rx="4.00001" ry="4.00001"/>
</g>
<!-- Threadb3b132e0&#45;&gt;Threadb3f16700 -->
<g id="edge14" class="edge"><title>Threadb3b132e0&#45;&gt;Threadb3f16700</title>
<path fill="none" stroke="grey" stroke-width="3" stroke-dasharray="1,5" d="M337.583,-405.262C325.231,-424.91 307.352,-450.957 291.809,-472.036"/>
<polygon fill="grey" stroke="grey" points="288.937,-470.033 285.762,-480.141 294.547,-474.219 288.937,-470.033"/>
</g>
<!-- Threadb3b132e0&#45;&gt;Cond602b20 -->
<g id="edge10" class="edge"><title>Threadb3b132e0&#45;&gt;Cond602b20</title>
<path fill="none" stroke="black" stroke-width="3" stroke-dasharray="1,5" d="M309.496,-349.525C278.284,-328.461 235.566,-298.428 200.678,-273.134"/>
<polygon fill="black" stroke="black" points="202.594,-270.199 192.448,-267.149 198.477,-275.861 202.594,-270.199"/>
</g>
<!-- Threadb3b132e0&#45;&gt;Cond602b20 -->
<g id="edge20" class="edge"><title>Threadb3b132e0&#45;&gt;Cond602b20</title>
<path fill="none" stroke="grey" stroke-dasharray="5,2" d="M318.417,-348.304C289.684,-326.904 247.526,-296.798 211.276,-271.691"/>
<ellipse fill="grey" stroke="grey" cx="207.872" cy="-269.339" rx="4.00002" ry="4.00002"/>
</g>
<!-- Threadb3b132e0&#45;&gt;Mutex602ae0 -->
<g id="edge22" class="edge"><title>Threadb3b132e0&#45;&gt;Mutex602ae0</title>
<path fill="none" stroke="grey" stroke-width="3" d="M404.886,-351.371C438.711,-333.578 479.818,-305.811 500.121,-267 526.247,-217.055 504.401,-153.176 484.002,-109.26"/>
<polygon fill="grey" stroke="grey" points="487.148,-107.727 479.688,-100.204 480.829,-110.737 487.148,-107.727"/>
</g>
<!-- Threadb3b132e0&#45;&gt;Mutex602ae0 -->
<g id="edge8" class="edge"><title>Threadb3b132e0&#45;&gt;Mutex602ae0</title>
<path fill="none" stroke="black" stroke-width="3" stroke-dasharray="1,5" d="M415.502,-353.736C452.931,-336.079 496.895,-307.575 518.121,-267 544.302,-216.95 522.309,-152.909 498.139,-108.985"/>
<polygon fill="black" stroke="black" points="501.124,-107.154 493.127,-100.204 495.044,-110.624 501.124,-107.154"/>
</g>
<!-- Threadb3b132e0&#45;&gt;Threadb3d14700 -->
<g id="edge12" class="edge"><title>Threadb3b132e0&#45;&gt;Threadb3d14700</title>
<path fill="none" stroke="grey" stroke-width="3" stroke-dasharray="1,5" d="M352.741,-346.167C356.082,-322.721 362.66,-289.864 369.051,-264.279"/>
<polygon fill="grey" stroke="grey" points="372.461,-265.071 371.578,-254.513 365.684,-263.318 372.461,-265.071"/>
</g>
</g>
</svg>
