<?xml version="1.0" encoding="UTF-8" standalone="no"?>
<!DOCTYPE svg PUBLIC "-//W3C//DTD SVG 1.1//EN"
 "http://www.w3.org/Graphics/SVG/1.1/DTD/svg11.dtd">
<!-- Generated by graphviz version 2.26.3 (20100126.1600)
 -->
<!-- Title: G Pages: 1 -->
<svg width="470pt" height="932pt"
 viewBox="0.00 0.00 470.00 932.00" xmlns="http://www.w3.org/2000/svg" xmlns:xlink="http://www.w3.org/1999/xlink">
<g id="graph1" class="graph" transform="scale(1 1) rotate(0) translate(4 928)">
<title>G</title>
<polygon fill="white" stroke="white" points="-4,5 -4,-928 467,-928 467,5 -4,5"/>
<!-- Thread16bda700 -->
<g id="node1" class="node"><title>Thread16bda700</title>
<ellipse fill="none" stroke="lightgray" cx="128" cy="-494" rx="94.9596" ry="18.3848"/>
<text text-anchor="middle" x="128" y="-490.4" font-family="Times Roman,serif" font-size="14.00">Thread16bda700</text>
</g>
<!-- Mutex602a40 -->
<g id="node3" class="node"><title>Mutex602a40</title>
<polygon fill="none" stroke="black" points="178.994,-146 47.0061,-146 4.26326e-14,-94 226,-94 178.994,-146"/>
<text text-anchor="middle" x="113" y="-116.4" font-family="Times Roman,serif" font-size="14.00">Mutex602a40</text>
</g>
<!-- Thread16bda700&#45;&gt;Mutex602a40 -->
<g id="edge2" class="edge"><title>Thread16bda700&#45;&gt;Mutex602a40</title>
<path fill="none" stroke="lightgray" d="M127.256,-475.453C124.905,-416.822 117.602,-234.735 114.461,-156.418"/>
<polygon fill="lightgray" stroke="lightgray" points="117.944,-155.931 114.046,-146.079 110.95,-156.211 117.944,-155.931"/>
</g>
<!-- Cond602a80 -->
<g id="node5" class="node"><title>Cond602a80</title>
<polygon fill="none" stroke="black" points="461.859,-146 288.689,-146 244.141,-94 417.311,-94 461.859,-146"/>
<text text-anchor="middle" x="353" y="-116.4" font-family="Times Roman,serif" font-size="14.00">Cond602a80</text>
</g>
<!-- Thread16bda700&#45;&gt;Cond602a80 -->
<g id="edge4" class="edge"><title>Thread16bda700&#45;&gt;Cond602a80</title>
<path fill="none" stroke="green" d="M144.357,-466.811C186.122,-397.389 296.286,-214.271 337.311,-146.079"/>
<polygon fill="green" stroke="green" points="141.314,-465.08 139.158,-475.453 147.312,-468.689 141.314,-465.08"/>
</g>
<!-- Thread169d8700 -->
<g id="node6" class="node"><title>Thread169d8700</title>
<ellipse fill="none" stroke="lightgray" cx="338" cy="-494" rx="96.8736" ry="18.3848"/>
<text text-anchor="middle" x="338" y="-490.4" font-family="Times Roman,serif" font-size="14.00">Thread169d8700</text>
</g>
<!-- Thread169d8700&#45;&gt;Mutex602a40 -->
<g id="edge6" class="edge"><title>Thread169d8700&#45;&gt;Mutex602a40</title>
<path fill="none" stroke="lightgray" d="M326.842,-475.453C291.353,-416.462 180.678,-232.496 134.049,-154.988"/>
<polygon fill="lightgray" stroke="lightgray" points="136.843,-152.844 128.689,-146.079 130.845,-156.452 136.843,-152.844"/>
</g>
<!-- Thread169d8700&#45;&gt;Cond602a80 -->
<g id="edge8" class="edge"><title>Thread169d8700&#45;&gt;Cond602a80</title>
<path fill="none" stroke="red" d="M338.744,-475.453C341.095,-416.822 348.398,-234.735 351.539,-156.418"/>
<polygon fill="red" stroke="red" points="355.451,-146.219 351.553,-156.071 348.457,-145.939 355.451,-146.219"/>
</g>
<!-- Thread167d72e0 -->
<g id="node9" class="node"><title>Thread167d72e0</title>
<ellipse fill="none" stroke="black" cx="128" cy="-836" rx="96.1665" ry="18.3848"/>
<text text-anchor="middle" x="128" y="-832.4" font-family="Times Roman,serif" font-size="14.00">Thread167d72e0</text>
</g>
<!-- Thread167d72e0&#45;&gt;Thread16bda700 -->
<g id="edge10" class="edge"><title>Thread167d72e0&#45;&gt;Thread16bda700</title>
<path fill="none" stroke="black" d="M124.699,-817.125C120.296,-759.901 120.109,-588.179 124.136,-521.187"/>
<ellipse fill="none" stroke="black" cx="124.433" cy="-516.807" rx="4" ry="4"/>
</g>
<!-- Thread167d72e0&#45;&gt;Thread16bda700 -->
<g id="edge12" class="edge"><title>Thread167d72e0&#45;&gt;Thread16bda700</title>
<path fill="none" stroke="black" d="M131.301,-817.125C135.668,-760.368 135.888,-590.975 131.962,-522.848"/>
<polygon fill="black" stroke="black" points="135.451,-522.562 131.296,-512.816 128.466,-523.026 135.451,-522.562"/>
</g>
<!-- Thread167d72e0&#45;&gt;Mutex602a40 -->
<g id="edge14" class="edge"><title>Thread167d72e0&#45;&gt;Mutex602a40</title>
<path fill="none" stroke="lightgray" d="M119.648,-817.213C98.4248,-768.321 42.7794,-632.598 24,-513 3.06416,-379.669 64.2299,-224.099 95.6414,-155.534"/>
<polygon fill="lightgray" stroke="lightgray" points="98.8235,-156.991 99.8645,-146.447 92.4756,-154.041 98.8235,-156.991"/>
</g>
<!-- Thread167d72e0&#45;&gt;Cond602a80 -->
<g id="edge16" class="edge"><title>Thread167d72e0&#45;&gt;Cond602a80</title>
<path fill="none" stroke="lightgray" stroke-dasharray="1,5" d="M156.751,-818.217C222.809,-775.434 384.308,-659.372 444,-513 495.506,-386.702 415.976,-225.116 374.976,-155.031"/>
<polygon fill="lightgray" stroke="lightgray" points="377.82,-152.964 369.702,-146.155 371.802,-156.54 377.82,-152.964"/>
</g>
<!-- Thread167d72e0&#45;&gt;Thread169d8700 -->
<g id="edge18" class="edge"><title>Thread167d72e0&#45;&gt;Thread169d8700</title>
<path fill="none" stroke="black" d="M139.291,-817.613C174.115,-760.898 279.994,-588.467 321.272,-521.243"/>
<polygon fill="black" stroke="black" points="324.404,-522.831 326.654,-512.478 318.438,-519.169 324.404,-522.831"/>
</g>
</g>
</svg>
