<?xml version="1.0" encoding="UTF-8" standalone="no"?>
<!DOCTYPE svg PUBLIC "-//W3C//DTD SVG 1.1//EN"
 "http://www.w3.org/Graphics/SVG/1.1/DTD/svg11.dtd">
<!-- Generated by graphviz version 2.26.3 (20100126.1600)
 -->
<!-- Title: G Pages: 1 -->
<svg width="738pt" height="738pt"
 viewBox="0.00 0.00 738.00 738.00" xmlns="http://www.w3.org/2000/svg" xmlns:xlink="http://www.w3.org/1999/xlink">
<g id="graph1" class="graph" transform="scale(1 1) rotate(0) translate(4 734)">
<title>G</title>
<polygon fill="white" stroke="white" points="-4,5 -4,-734 735,-734 735,5 -4,5"/>
<!-- Mutex602a40 -->
<g id="node1" class="node"><title>Mutex602a40</title>
<polygon fill="none" stroke="black" points="191.666,-602 50.334,-602 4.26326e-14,-518 242,-518 191.666,-602"/>
<text text-anchor="middle" x="121" y="-564.4" font-family="Times Roman,serif" font-size="14.00">Mutex602a40</text>
<text text-anchor="middle" x="121" y="-547.4" font-family="Times Roman,serif" font-size="14.00">request_mutex</text>
</g>
<!-- Cond602a80 -->
<g id="node2" class="node"><title>Cond602a80</title>
<polygon fill="none" stroke="black" points="477.859,-602 304.689,-602 260.141,-518 433.311,-518 477.859,-602"/>
<text text-anchor="middle" x="369" y="-564.4" font-family="Times Roman,serif" font-size="14.00">Cond602a80</text>
<text text-anchor="middle" x="369" y="-547.4" font-family="Times Roman,serif" font-size="14.00">got_request</text>
</g>
<!-- Thread7ae662e0 -->
<g id="node3" class="node"><title>Thread7ae662e0</title>
<ellipse fill="none" stroke="black" cx="613" cy="-560" rx="116.88" ry="29.6985"/>
<text text-anchor="middle" x="613" y="-564.4" font-family="Times Roman,serif" font-size="14.00">Thread7ae662e0</text>
<text text-anchor="middle" x="613" y="-547.4" font-family="Times Roman,serif" font-size="14.00">handle_requests_loop</text>
</g>
<!-- Thread7b067700 -->
<g id="node5" class="node"><title>Thread7b067700</title>
<ellipse fill="none" stroke="black" cx="613" cy="-122" rx="116.88" ry="29.6985"/>
<text text-anchor="middle" x="613" y="-126.4" font-family="Times Roman,serif" font-size="14.00">Thread7b067700</text>
<text text-anchor="middle" x="613" y="-109.4" font-family="Times Roman,serif" font-size="14.00">handle_requests_loop</text>
</g>
<!-- Thread7ae662e0&#45;&gt;Thread7b067700 -->
<g id="edge2" class="edge"><title>Thread7ae662e0&#45;&gt;Thread7b067700</title>
<path fill="none" stroke="black" stroke-width="2" d="M613,-530.239C613,-453.44 613,-248.543 613,-161.741"/>
<polygon fill="black" stroke="black" points="616.5,-161.514 613,-151.514 609.5,-161.514 616.5,-161.514"/>
</g>
</g>
</svg>
