<?xml version="1.0" encoding="UTF-8" standalone="no"?>
<!DOCTYPE svg PUBLIC "-//W3C//DTD SVG 1.1//EN"
 "http://www.w3.org/Graphics/SVG/1.1/DTD/svg11.dtd">
<!-- Generated by graphviz version 2.26.3 (20100126.1600)
 -->
<!-- Title: G Pages: 1 -->
<svg width="588pt" height="1168pt"
 viewBox="0.00 0.00 588.00 1168.00" xmlns="http://www.w3.org/2000/svg" xmlns:xlink="http://www.w3.org/1999/xlink">
<g id="graph1" class="graph" transform="scale(1 1) rotate(0) translate(4 1164)">
<title>G</title>
<polygon fill="white" stroke="white" points="-4,5 -4,-1164 585,-1164 585,5 -4,5"/>
<!-- Thread16bda700 -->
<g id="node1" class="node"><title>Thread16bda700</title>
<ellipse fill="none" stroke="black" cx="235" cy="-621" rx="94.9596" ry="18.3848"/>
<text text-anchor="middle" x="235" y="-617.4" font-family="Times Roman,serif" font-size="14.00">Thread16bda700</text>
</g>
<!-- Mutex602a40 -->
<g id="node3" class="node"><title>Mutex602a40</title>
<polygon fill="none" stroke="black" points="178.994,-177 47.0061,-177 4.26326e-14,-125 226,-125 178.994,-177"/>
<text text-anchor="middle" x="113" y="-147.4" font-family="Times Roman,serif" font-size="14.00">Mutex602a40</text>
</g>
<!-- Thread16bda700&#45;&gt;Mutex602a40 -->
<g id="edge2" class="edge"><title>Thread16bda700&#45;&gt;Mutex602a40</title>
<path fill="none" stroke="lightgray" d="M230.142,-602.285C211.838,-531.771 146.838,-281.359 122.389,-187.172"/>
<polygon fill="lightgray" stroke="lightgray" points="125.716,-186.056 119.815,-177.256 118.94,-187.815 125.716,-186.056"/>
</g>
<!-- Cond602a80 -->
<g id="node5" class="node"><title>Cond602a80</title>
<polygon fill="none" stroke="red" points="464.859,-177 291.689,-177 247.141,-125 420.311,-125 464.859,-177"/>
<text text-anchor="middle" x="356" y="-147.4" font-family="Times Roman,serif" font-size="14.00">Cond602a80</text>
</g>
<!-- Thread16bda700&#45;&gt;Cond602a80 -->
<g id="edge4" class="edge"><title>Thread16bda700&#45;&gt;Cond602a80</title>
<path fill="none" stroke="red" d="M239.818,-602.285C257.972,-531.771 322.44,-281.359 346.688,-187.172"/>
<polygon fill="red" stroke="red" points="352.63,-178.129 346.747,-186.94 345.851,-176.384 352.63,-178.129"/>
</g>
<!-- Thread169d8700 -->
<g id="node6" class="node"><title>Thread169d8700</title>
<ellipse fill="none" stroke="black" cx="483" cy="-621" rx="96.8736" ry="18.3848"/>
<text text-anchor="middle" x="483" y="-617.4" font-family="Times Roman,serif" font-size="14.00">Thread169d8700</text>
</g>
<!-- Thread167d72e0 -->
<g id="node7" class="node"><title>Thread167d72e0</title>
<ellipse fill="none" stroke="black" cx="296" cy="-1050" rx="96.1665" ry="18.3848"/>
<text text-anchor="middle" x="296" y="-1046.4" font-family="Times Roman,serif" font-size="14.00">Thread167d72e0</text>
</g>
<!-- Thread167d72e0&#45;&gt;Thread16bda700 -->
<g id="edge6" class="edge"><title>Thread167d72e0&#45;&gt;Thread16bda700</title>
<path fill="none" stroke="black" d="M293.34,-1031.29C283.727,-963.689 250.75,-731.768 239.109,-649.899"/>
<polygon fill="black" stroke="black" points="242.547,-649.216 237.674,-639.808 235.617,-650.201 242.547,-649.216"/>
</g>
<!-- Thread167d72e0&#45;&gt;Mutex602a40 -->
<g id="edge8" class="edge"><title>Thread167d72e0&#45;&gt;Mutex602a40</title>
<path fill="none" stroke="lightgray" d="M285.839,-1031.53C255.367,-975.032 164.781,-798.726 131,-640 95.67,-473.998 104.52,-269.283 110.111,-187.374"/>
<polygon fill="lightgray" stroke="lightgray" points="113.624,-187.322 110.84,-177.099 106.641,-186.826 113.624,-187.322"/>
</g>
<!-- Thread167d72e0&#45;&gt;Cond602a80 -->
<g id="edge10" class="edge"><title>Thread167d72e0&#45;&gt;Cond602a80</title>
<path fill="none" stroke="green" stroke-dasharray="1,5" d="M298.439,-1031.24C305.883,-973.205 328.445,-791.363 339,-640 350.792,-470.906 354.53,-268.322 355.605,-187.189"/>
<polygon fill="green" stroke="green" points="359.107,-187.053 355.734,-177.009 352.107,-186.964 359.107,-187.053"/>
</g>
<!-- Thread167d72e0&#45;&gt;Thread169d8700 -->
<g id="edge12" class="edge"><title>Thread167d72e0&#45;&gt;Thread169d8700</title>
<path fill="none" stroke="black" d="M304.155,-1031.29C333.683,-963.552 435.13,-730.82 470.621,-649.4"/>
<polygon fill="black" stroke="black" points="474.014,-650.373 474.802,-639.808 467.597,-647.576 474.014,-650.373"/>
</g>
</g>
</svg>
