<?xml version="1.0" encoding="UTF-8" standalone="no"?>
<!DOCTYPE svg PUBLIC "-//W3C//DTD SVG 1.1//EN"
 "http://www.w3.org/Graphics/SVG/1.1/DTD/svg11.dtd">
<!-- Generated by graphviz version 2.26.3 (20100126.1600)
 -->
<!-- Title: G Pages: 1 -->
<svg width="579pt" height="562pt"
 viewBox="0.00 0.00 578.98 562.00" xmlns="http://www.w3.org/2000/svg" xmlns:xlink="http://www.w3.org/1999/xlink">
<g id="graph1" class="graph" transform="scale(1 1) rotate(0) translate(4 558)">
<title>G</title>
<polygon fill="white" stroke="white" points="-4,5 -4,-558 575.981,-558 575.981,5 -4,5"/>
<!-- Mutex602a40 -->
<g id="node1" class="node"><title>Mutex602a40</title>
<polygon fill="none" stroke="black" points="208.647,-126 67.3148,-126 16.9808,-42 258.981,-42 208.647,-126"/>
<text text-anchor="middle" x="137.981" y="-88.4" font-family="Times Roman,serif" font-size="14.00">Mutex602a40</text>
<text text-anchor="middle" x="137.981" y="-71.4" font-family="Times Roman,serif" font-size="14.00">request_mutex</text>
</g>
<!-- Cond602a80 -->
<g id="node2" class="node"><title>Cond602a80</title>
<polygon fill="none" stroke="red" points="570.84,-126 397.669,-126 353.122,-42 526.292,-42 570.84,-126"/>
<text text-anchor="middle" x="461.981" y="-88.4" font-family="Times Roman,serif" font-size="14.00">Cond602a80</text>
<text text-anchor="middle" x="461.981" y="-71.4" font-family="Times Roman,serif" font-size="14.00">got_request</text>
</g>
<!-- Thread7ae662e0 -->
<g id="node3" class="node"><title>Thread7ae662e0</title>
<ellipse fill="none" stroke="black" cx="263.981" cy="-494" rx="94.9596" ry="29.6985"/>
<text text-anchor="middle" x="263.981" y="-498.4" font-family="Times Roman,serif" font-size="14.00">Thread7ae662e0</text>
<text text-anchor="middle" x="263.981" y="-481.4" font-family="Times Roman,serif" font-size="14.00">{root}</text>
</g>
<!-- Thread7ae662e0&#45;&gt;Mutex602a40 -->
<g id="edge2" class="edge"><title>Thread7ae662e0&#45;&gt;Mutex602a40</title>
<path fill="none" stroke="green" stroke-width="2" d="M189.331,-468.604C129.408,-443.8 49.3305,-399.641 11.9808,-331 -26.6734,-259.962 39.6697,-175.787 89.8481,-126.311"/>
<polygon fill="green" stroke="green" points="188.183,-471.915 198.765,-472.419 190.807,-465.425 188.183,-471.915"/>
</g>
<!-- Thread7ae662e0&#45;&gt;Cond602a80 -->
<g id="edge4" class="edge"><title>Thread7ae662e0&#45;&gt;Cond602a80</title>
<path fill="none" stroke="lightgray" stroke-width="2" stroke-dasharray="1,5" d="M329.196,-472.419C389.863,-448.455 476.633,-403.313 515.981,-331 549.725,-268.985 519.75,-187.393 492.804,-135.306"/>
<polygon fill="lightgray" stroke="lightgray" points="495.779,-133.444 487.998,-126.253 489.596,-136.727 495.779,-133.444"/>
</g>
<!-- Thread7b269700 -->
<g id="node7" class="node"><title>Thread7b269700</title>
<ellipse fill="none" stroke="black" cx="389.981" cy="-301" rx="116.88" ry="29.6985"/>
<text text-anchor="middle" x="389.981" y="-305.4" font-family="Times Roman,serif" font-size="14.00">Thread7b269700</text>
<text text-anchor="middle" x="389.981" y="-288.4" font-family="Times Roman,serif" font-size="14.00">handle_requests_loop</text>
</g>
<!-- Thread7ae662e0&#45;&gt;Thread7b269700 -->
<g id="edge6" class="edge"><title>Thread7ae662e0&#45;&gt;Thread7b269700</title>
<path fill="none" stroke="black" stroke-width="2" d="M283.117,-464.687C305.106,-431.007 341.246,-375.649 365.326,-338.765"/>
<polygon fill="black" stroke="black" points="368.335,-340.558 370.871,-330.272 362.473,-336.732 368.335,-340.558"/>
</g>
<!-- Thread7b067700 -->
<g id="node9" class="node"><title>Thread7b067700</title>
<ellipse fill="none" stroke="black" cx="137.981" cy="-301" rx="116.88" ry="29.6985"/>
<text text-anchor="middle" x="137.981" y="-305.4" font-family="Times Roman,serif" font-size="14.00">Thread7b067700</text>
<text text-anchor="middle" x="137.981" y="-288.4" font-family="Times Roman,serif" font-size="14.00">handle_requests_loop</text>
</g>
<!-- Thread7ae662e0&#45;&gt;Thread7b067700 -->
<g id="edge8" class="edge"><title>Thread7ae662e0&#45;&gt;Thread7b067700</title>
<path fill="none" stroke="black" stroke-width="2" d="M244.844,-464.687C222.856,-431.007 186.715,-375.649 162.636,-338.765"/>
<polygon fill="black" stroke="black" points="165.488,-336.732 157.091,-330.272 159.627,-340.558 165.488,-336.732"/>
</g>
<!-- Thread7b269700&#45;&gt;Mutex602a40 -->
<g id="edge10" class="edge"><title>Thread7b269700&#45;&gt;Mutex602a40</title>
<path fill="none" stroke="lightgray" stroke-width="2" d="M357.036,-272.631C315.879,-237.19 244.792,-175.976 194.784,-132.914"/>
<polygon fill="lightgray" stroke="lightgray" points="196.809,-130.039 186.947,-126.166 192.241,-135.343 196.809,-130.039"/>
</g>
<!-- Thread7b269700&#45;&gt;Cond602a80 -->
<g id="edge12" class="edge"><title>Thread7b269700&#45;&gt;Cond602a80</title>
<path fill="none" stroke="red" stroke-width="2" d="M399.841,-271.282C411.382,-236.499 430.699,-178.279 444.737,-135.971"/>
<polygon fill="red" stroke="red" points="448.088,-136.986 447.915,-126.392 441.444,-134.781 448.088,-136.986"/>
</g>
<!-- Thread7b067700&#45;&gt;Mutex602a40 -->
<g id="edge14" class="edge"><title>Thread7b067700&#45;&gt;Mutex602a40</title>
<path fill="none" stroke="red" stroke-width="2" d="M137.981,-271.282C137.981,-236.645 137.981,-178.769 137.981,-136.506"/>
<polygon fill="red" stroke="red" points="141.481,-136.392 137.981,-126.392 134.481,-136.392 141.481,-136.392"/>
</g>
</g>
</svg>
