<?xml version="1.0" encoding="UTF-8" standalone="no"?>
<!DOCTYPE svg PUBLIC "-//W3C//DTD SVG 1.1//EN"
 "http://www.w3.org/Graphics/SVG/1.1/DTD/svg11.dtd">
<!-- Generated by graphviz version 2.26.3 (20100126.1600)
 -->
<!-- Title: G Pages: 1 -->
<svg width="696pt" height="696pt"
 viewBox="0.00 0.00 696.00 696.00" xmlns="http://www.w3.org/2000/svg" xmlns:xlink="http://www.w3.org/1999/xlink">
<g id="graph1" class="graph" transform="scale(1 1) rotate(0) translate(4 692)">
<title>G</title>
<polygon fill="white" stroke="white" points="-4,5 -4,-692 693,-692 693,5 -4,5"/>
<!-- Threadb3f16700 -->
<g id="node1" class="node"><title>Threadb3f16700</title>
<ellipse fill="none" stroke="lightgrey" cx="263" cy="-374" rx="116.88" ry="29.6985"/>
<text text-anchor="middle" x="263" y="-378.4" font-family="Times Roman,serif" font-size="14.00">Threadb3f16700</text>
<text text-anchor="middle" x="263" y="-361.4" font-family="Times Roman,serif" font-size="14.00">handle_requests_loop</text>
</g>
<!-- Cond602b20 -->
<g id="node3" class="node"><title>Cond602b20</title>
<polygon fill="none" stroke="black" points="217.859,-147 44.6886,-147 0.140918,-63 173.311,-63 217.859,-147"/>
<text text-anchor="middle" x="109" y="-109.4" font-family="Times Roman,serif" font-size="14.00">Cond602b20</text>
<text text-anchor="middle" x="109" y="-92.4" font-family="Times Roman,serif" font-size="14.00">got_request</text>
</g>
<!-- Threadb3f16700&#45;&gt;Cond602b20 -->
<g id="edge2" class="edge"><title>Threadb3f16700&#45;&gt;Cond602b20</title>
<path fill="none" stroke="grey" stroke-width="3" d="M241.149,-335.831C212.574,-285.919 162.681,-198.768 133.057,-147.021"/>
<polygon fill="grey" stroke="grey" points="238.22,-337.761 246.226,-344.7 244.295,-334.283 238.22,-337.761"/>
</g>
<!-- Mutex602ae0 -->
<g id="node5" class="node"><title>Mutex602ae0</title>
<polygon fill="none" stroke="black" points="487.666,-147 346.334,-147 296,-63 538,-63 487.666,-147"/>
<text text-anchor="middle" x="417" y="-109.4" font-family="Times Roman,serif" font-size="14.00">Mutex602ae0</text>
<text text-anchor="middle" x="417" y="-92.4" font-family="Times Roman,serif" font-size="14.00">request_mutex</text>
</g>
<!-- Threadb3f16700&#45;&gt;Mutex602ae0 -->
<g id="edge4" class="edge"><title>Threadb3f16700&#45;&gt;Mutex602ae0</title>
<path fill="none" stroke="grey" stroke-width="3" d="M279.774,-344.7C305.693,-299.425 355.819,-211.868 387.782,-156.037"/>
<polygon fill="grey" stroke="grey" points="391.013,-157.438 392.943,-147.021 384.938,-153.96 391.013,-157.438"/>
</g>
<!-- Threadb3d14700 -->
<g id="node6" class="node"><title>Threadb3d14700</title>
<ellipse fill="none" stroke="black" cx="571" cy="-374" rx="116.88" ry="29.6985"/>
<text text-anchor="middle" x="571" y="-378.4" font-family="Times Roman,serif" font-size="14.00">Threadb3d14700</text>
<text text-anchor="middle" x="571" y="-361.4" font-family="Times Roman,serif" font-size="14.00">handle_requests_loop</text>
</g>
<!-- Threadb3d14700&#45;&gt;Mutex602ae0 -->
<g id="edge6" class="edge"><title>Threadb3d14700&#45;&gt;Mutex602ae0</title>
<path fill="none" stroke="green" stroke-width="3" d="M554.226,-344.7C528.307,-299.425 478.181,-211.868 446.218,-156.037"/>
<polygon fill="green" stroke="green" points="449.062,-153.96 441.057,-147.021 442.987,-157.438 449.062,-153.96"/>
</g>
<!-- Threadb3b132e0 -->
<g id="node8" class="node"><title>Threadb3b132e0</title>
<ellipse fill="none" stroke="black" cx="417" cy="-613" rx="94.9596" ry="29.6985"/>
<text text-anchor="middle" x="417" y="-617.4" font-family="Times Roman,serif" font-size="14.00">Threadb3b132e0</text>
<text text-anchor="middle" x="417" y="-600.4" font-family="Times Roman,serif" font-size="14.00">{root}</text>
</g>
<!-- Threadb3b132e0&#45;&gt;Threadb3f16700 -->
<g id="edge14" class="edge"><title>Threadb3b132e0&#45;&gt;Threadb3f16700</title>
<path fill="none" stroke="grey" stroke-width="3" stroke-dasharray="1,5" d="M398.117,-583.694C370.216,-540.394 317.977,-459.322 287.269,-411.665"/>
<polygon fill="grey" stroke="grey" points="290.155,-409.682 281.797,-403.172 284.271,-413.473 290.155,-409.682"/>
</g>
<!-- Threadb3b132e0&#45;&gt;Cond602b20 -->
<g id="edge10" class="edge"><title>Threadb3b132e0&#45;&gt;Cond602b20</title>
<path fill="none" stroke="black" stroke-width="3" stroke-dasharray="1,5" d="M357.167,-589.922C288.544,-558.42 179.217,-495.247 128,-404 84.5481,-326.587 86.5109,-219.879 95.3466,-157.091"/>
<polygon fill="black" stroke="black" points="98.8339,-157.439 96.8795,-147.026 91.9137,-156.385 98.8339,-157.439"/>
</g>
<!-- Threadb3b132e0&#45;&gt;Cond602b20 -->
<g id="edge18" class="edge"><title>Threadb3b132e0&#45;&gt;Cond602b20</title>
<path fill="none" stroke="grey" stroke-dasharray="5,2" d="M365.762,-587.966C302.131,-555.844 196.178,-493.395 146,-404 102.548,-326.587 104.511,-219.879 108.05,-157.091"/>
<polygon fill="grey" stroke="grey" points="111.549,-157.216 108.648,-147.026 104.561,-156.801 111.549,-157.216"/>
</g>
<!-- Threadb3b132e0&#45;&gt;Mutex602ae0 -->
<g id="edge8" class="edge"><title>Threadb3b132e0&#45;&gt;Mutex602ae0</title>
<path fill="none" stroke="black" stroke-width="3" stroke-dasharray="1,5" d="M413.624,-583.492C409.461,-500.392 409.15,-263.577 412.691,-157.502"/>
<polygon fill="black" stroke="black" points="416.194,-157.47 413.058,-147.351 409.199,-157.218 416.194,-157.47"/>
</g>
<!-- Threadb3b132e0&#45;&gt;Mutex602ae0 -->
<g id="edge20" class="edge"><title>Threadb3b132e0&#45;&gt;Mutex602ae0</title>
<path fill="none" stroke="grey" stroke-width="3" d="M420.376,-583.492C424.539,-500.392 424.85,-263.577 421.309,-157.502"/>
<polygon fill="grey" stroke="grey" points="424.801,-157.218 420.942,-147.351 417.806,-157.47 424.801,-157.218"/>
</g>
<!-- Threadb3b132e0&#45;&gt;Threadb3d14700 -->
<g id="edge12" class="edge"><title>Threadb3b132e0&#45;&gt;Threadb3d14700</title>
<path fill="none" stroke="black" stroke-width="3" stroke-dasharray="1,5" d="M431.269,-583.694C456.539,-540.304 508.787,-458.985 541.858,-411.369"/>
<polygon fill="black" stroke="black" points="544.729,-413.371 547.597,-403.172 538.994,-409.356 544.729,-413.371"/>
</g>
<!-- Threadb3b132e0&#45;&gt;Threadb3d14700 -->
<g id="edge16" class="edge"><title>Threadb3b132e0&#45;&gt;Threadb3d14700</title>
<path fill="none" stroke="red" stroke-width="3" d="M440.16,-584.171C470.976,-540.595 524.34,-457.998 552.586,-410.356"/>
<ellipse fill="none" stroke="red" cx="554.704" cy="-406.753" rx="4.00002" ry="4.00002"/>
</g>
</g>
</svg>
