<?xml version="1.0" encoding="UTF-8" standalone="no"?>
<!DOCTYPE svg PUBLIC "-//W3C//DTD SVG 1.1//EN"
 "http://www.w3.org/Graphics/SVG/1.1/DTD/svg11.dtd">
<!-- Generated by graphviz version 2.26.3 (20100126.1600)
 -->
<!-- Title: G Pages: 1 -->
<svg width="524pt" height="1040pt"
 viewBox="0.00 0.00 524.00 1040.00" xmlns="http://www.w3.org/2000/svg" xmlns:xlink="http://www.w3.org/1999/xlink">
<g id="graph1" class="graph" transform="scale(1 1) rotate(0) translate(4 1036)">
<title>G</title>
<polygon fill="white" stroke="white" points="-4,5 -4,-1036 521,-1036 521,5 -4,5"/>
<!-- Mutex602a40 -->
<g id="node1" class="node"><title>Mutex602a40</title>
<polygon fill="none" stroke="red" points="178.994,-218 47.0061,-218 4.26326e-14,-166 226,-166 178.994,-218"/>
<text text-anchor="middle" x="113" y="-188.4" font-family="Times Roman,serif" font-size="14.00">Mutex602a40</text>
</g>
<!-- Cond602a80 -->
<g id="node2" class="node"><title>Cond602a80</title>
<polygon fill="none" stroke="black" points="515.859,-866 342.689,-866 298.141,-814 471.311,-814 515.859,-866"/>
<text text-anchor="middle" x="407" y="-836.4" font-family="Times Roman,serif" font-size="14.00">Cond602a80</text>
</g>
<!-- Thread169d8700 -->
<g id="node3" class="node"><title>Thread169d8700</title>
<polygon fill="none" stroke="black" points="380,-210 244,-210 244,-174 380,-174 380,-210"/>
<text text-anchor="middle" x="312" y="-188.4" font-family="Times Roman,serif" font-size="14.00">Thread169d8700</text>
</g>
<!-- Thread167d72e0 -->
<g id="node4" class="node"><title>Thread167d72e0</title>
<polygon fill="none" stroke="black" points="280,-858 144,-858 144,-822 280,-822 280,-858"/>
<text text-anchor="middle" x="212" y="-836.4" font-family="Times Roman,serif" font-size="14.00">Thread167d72e0</text>
</g>
<!-- Thread167d72e0&#45;&gt;Mutex602a40 -->
<g id="edge2" class="edge"><title>Thread167d72e0&#45;&gt;Mutex602a40</title>
<path fill="none" stroke="black" d="M209.249,-821.992C195.82,-734.093 137.054,-349.443 118.579,-228.52"/>
<polygon fill="black" stroke="black" points="121.989,-227.664 117.019,-218.308 115.07,-228.722 121.989,-227.664"/>
</g>
<!-- Thread167d72e0&#45;&gt;Thread169d8700 -->
<g id="edge4" class="edge"><title>Thread167d72e0&#45;&gt;Thread169d8700</title>
<path fill="none" stroke="black" d="M214.779,-821.992C228.669,-731.984 290.577,-330.818 307.636,-220.281"/>
<polygon fill="black" stroke="black" points="311.121,-220.644 309.187,-210.228 304.203,-219.577 311.121,-220.644"/>
</g>
</g>
</svg>
