<?xml version="1.0" encoding="UTF-8" standalone="no"?>
<!DOCTYPE svg PUBLIC "-//W3C//DTD SVG 1.1//EN"
 "http://www.w3.org/Graphics/SVG/1.1/DTD/svg11.dtd">
<!-- Generated by graphviz version 2.26.3 (20100126.1600)
 -->
<!-- Title: G Pages: 1 -->
<svg width="752pt" height="730pt"
 viewBox="0.00 0.00 752.10 730.00" xmlns="http://www.w3.org/2000/svg" xmlns:xlink="http://www.w3.org/1999/xlink">
<g id="graph1" class="graph" transform="scale(1 1) rotate(0) translate(4 726)">
<title>G</title>
<polygon fill="white" stroke="white" points="-4,5 -4,-726 749.101,-726 749.101,5 -4,5"/>
<!-- Mutex602a40 -->
<g id="node1" class="node"><title>Mutex602a40</title>
<polygon fill="none" stroke="black" points="445.767,-143 304.435,-143 254.101,-59 496.101,-59 445.767,-143"/>
<text text-anchor="middle" x="375.101" y="-105.4" font-family="Times Roman,serif" font-size="14.00">Mutex602a40</text>
<text text-anchor="middle" x="375.101" y="-88.4" font-family="Times Roman,serif" font-size="14.00">request_mutex</text>
</g>
<!-- Cond602a80 -->
<g id="node2" class="node"><title>Cond602a80</title>
<polygon fill="none" stroke="black" points="239.96,-432 66.7899,-432 22.2421,-348 195.413,-348 239.96,-432"/>
<text text-anchor="middle" x="131.101" y="-394.4" font-family="Times Roman,serif" font-size="14.00">Cond602a80</text>
<text text-anchor="middle" x="131.101" y="-377.4" font-family="Times Roman,serif" font-size="14.00">got_request</text>
</g>
<!-- Thread7ae662e0 -->
<g id="node3" class="node"><title>Thread7ae662e0</title>
<ellipse fill="none" stroke="black" cx="253.101" cy="-650" rx="94.9596" ry="29.6985"/>
<text text-anchor="middle" x="253.101" y="-654.4" font-family="Times Roman,serif" font-size="14.00">Thread7ae662e0</text>
<text text-anchor="middle" x="253.101" y="-637.4" font-family="Times Roman,serif" font-size="14.00">{root}</text>
</g>
<!-- Thread7ae662e0&#45;&gt;Mutex602a40 -->
<g id="edge2" class="edge"><title>Thread7ae662e0&#45;&gt;Mutex602a40</title>
<path fill="none" stroke="red" stroke-width="2" d="M205.012,-624.515C118.931,-575.311 -47.1177,-461.99 13.1012,-348 70.3649,-239.604 198.953,-169.809 286.395,-132.964"/>
<polygon fill="red" stroke="red" points="287.889,-136.133 295.784,-129.067 285.206,-129.668 287.889,-136.133"/>
</g>
<!-- Thread7ae662e0&#45;&gt;Cond602a80 -->
<g id="edge4" class="edge"><title>Thread7ae662e0&#45;&gt;Cond602a80</title>
<path fill="none" stroke="lightgray" stroke-width="2" stroke-dasharray="1,5" d="M239.343,-620.68C218.944,-577.207 180.384,-495.029 155.223,-441.408"/>
<polygon fill="lightgray" stroke="lightgray" points="158.259,-439.639 150.843,-432.073 151.922,-442.612 158.259,-439.639"/>
</g>
<!-- Thread7b269700 -->
<g id="node7" class="node"><title>Thread7b269700</title>
<ellipse fill="none" stroke="black" cx="375.101" cy="-390" rx="116.88" ry="29.6985"/>
<text text-anchor="middle" x="375.101" y="-394.4" font-family="Times Roman,serif" font-size="14.00">Thread7b269700</text>
<text text-anchor="middle" x="375.101" y="-377.4" font-family="Times Roman,serif" font-size="14.00">handle_requests_loop</text>
</g>
<!-- Thread7ae662e0&#45;&gt;Thread7b269700 -->
<g id="edge6" class="edge"><title>Thread7ae662e0&#45;&gt;Thread7b269700</title>
<path fill="none" stroke="black" stroke-width="2" d="M266.859,-620.68C288.917,-573.671 332.211,-481.405 356.835,-428.928"/>
<polygon fill="black" stroke="black" points="360.127,-430.151 361.207,-419.612 353.79,-427.178 360.127,-430.151"/>
</g>
<!-- Thread7b067700 -->
<g id="node9" class="node"><title>Thread7b067700</title>
<ellipse fill="none" stroke="black" cx="627.101" cy="-390" rx="116.88" ry="29.6985"/>
<text text-anchor="middle" x="627.101" y="-394.4" font-family="Times Roman,serif" font-size="14.00">Thread7b067700</text>
<text text-anchor="middle" x="627.101" y="-377.4" font-family="Times Roman,serif" font-size="14.00">handle_requests_loop</text>
</g>
<!-- Thread7ae662e0&#45;&gt;Thread7b067700 -->
<g id="edge8" class="edge"><title>Thread7ae662e0&#45;&gt;Thread7b067700</title>
<path fill="none" stroke="black" stroke-width="2" d="M292.067,-622.911C360.884,-575.071 503.738,-475.761 578.734,-423.624"/>
<polygon fill="black" stroke="black" points="580.882,-426.394 587.095,-417.812 576.886,-420.646 580.882,-426.394"/>
</g>
<!-- Thread7b269700&#45;&gt;Mutex602a40 -->
<g id="edge10" class="edge"><title>Thread7b269700&#45;&gt;Mutex602a40</title>
<path fill="none" stroke="lightgray" stroke-width="2" d="M375.101,-360.43C375.101,-311.745 375.101,-214.076 375.101,-153.448"/>
<polygon fill="lightgray" stroke="lightgray" points="378.601,-153.314 375.101,-143.314 371.601,-153.314 378.601,-153.314"/>
</g>
<!-- Thread7b067700&#45;&gt;Mutex602a40 -->
<g id="edge12" class="edge"><title>Thread7b067700&#45;&gt;Mutex602a40</title>
<path fill="none" stroke="red" stroke-width="2" d="M601.785,-360.966C558.815,-311.688 471.14,-211.139 418.308,-150.551"/>
<polygon fill="red" stroke="red" points="420.937,-148.24 411.727,-143.003 415.661,-152.841 420.937,-148.24"/>
</g>
</g>
</svg>
