<?xml version="1.0" encoding="UTF-8" standalone="no"?>
<!DOCTYPE svg PUBLIC "-//W3C//DTD SVG 1.1//EN"
 "http://www.w3.org/Graphics/SVG/1.1/DTD/svg11.dtd">
<!-- Generated by graphviz version 2.26.3 (20100126.1600)
 -->
<!-- Title: G Pages: 1 -->
<svg width="486pt" height="486pt"
 viewBox="0.00 0.00 486.00 486.00" xmlns="http://www.w3.org/2000/svg" xmlns:xlink="http://www.w3.org/1999/xlink">
<g id="graph1" class="graph" transform="scale(1 1) rotate(0) translate(4 482)">
<title>G</title>
<polygon fill="white" stroke="white" points="-4,5 -4,-482 483,-482 483,5 -4,5"/>
<!-- Threada5742e0 -->
<g id="node1" class="node"><title>Threada5742e0</title>
<ellipse fill="none" stroke="black" cx="245" cy="-398" rx="89.8026" ry="29.6985"/>
<text text-anchor="middle" x="245" y="-402.4" font-family="Times Roman,serif" font-size="14.00">Threada5742e0</text>
<text text-anchor="middle" x="245" y="-385.4" font-family="Times Roman,serif" font-size="14.00">{root}</text>
</g>
<!-- Mutex602ae0 -->
<g id="node3" class="node"><title>Mutex602ae0</title>
<polygon fill="none" stroke="black" points="191.666,-154 50.334,-154 4.26326e-14,-70 242,-70 191.666,-154"/>
<text text-anchor="middle" x="121" y="-116.4" font-family="Times Roman,serif" font-size="14.00">Mutex602ae0</text>
<text text-anchor="middle" x="121" y="-99.4" font-family="Times Roman,serif" font-size="14.00">request_mutex</text>
</g>
<!-- Threada5742e0&#45;&gt;Mutex602ae0 -->
<g id="edge2" class="edge"><title>Threada5742e0&#45;&gt;Mutex602ae0</title>
<path fill="none" stroke="black" stroke-width="3" stroke-dasharray="1,5" d="M232.313,-368.737C211.396,-320.493 169.406,-223.645 143.4,-163.665"/>
<polygon fill="black" stroke="black" points="139.369,-154.368 147.476,-161.753 142.276,-158.558 144.265,-163.145 143.347,-163.543 142.43,-163.941 140.441,-159.353 139.219,-165.333 139.369,-154.368 139.369,-154.368"/>
</g>
<!-- Cond602b20 -->
<g id="node5" class="node"><title>Cond602b20</title>
<polygon fill="none" stroke="black" points="477.859,-154 304.689,-154 260.141,-70 433.311,-70 477.859,-154"/>
<text text-anchor="middle" x="369" y="-116.4" font-family="Times Roman,serif" font-size="14.00">Cond602b20</text>
<text text-anchor="middle" x="369" y="-99.4" font-family="Times Roman,serif" font-size="14.00">got_request</text>
</g>
<!-- Threada5742e0&#45;&gt;Cond602b20 -->
<g id="edge4" class="edge"><title>Threada5742e0&#45;&gt;Cond602b20</title>
<path fill="none" stroke="black" stroke-width="3" stroke-dasharray="1,5" d="M257.687,-368.737C278.604,-320.493 320.594,-223.645 346.6,-163.665"/>
<polygon fill="black" stroke="black" points="350.631,-154.368 350.781,-165.333 349.559,-159.353 347.57,-163.941 346.653,-163.543 345.735,-163.145 347.724,-158.558 342.524,-161.753 350.631,-154.368 350.631,-154.368"/>
</g>
</g>
</svg>
