<?xml version="1.0" encoding="UTF-8" standalone="no"?>
<!DOCTYPE svg PUBLIC "-//W3C//DTD SVG 1.1//EN"
 "http://www.w3.org/Graphics/SVG/1.1/DTD/svg11.dtd">
<!-- Generated by graphviz version 2.26.3 (20100126.1600)
 -->
<!-- Title: G Pages: 1 -->
<svg width="644pt" height="644pt"
 viewBox="0.00 0.00 644.00 644.00" xmlns="http://www.w3.org/2000/svg" xmlns:xlink="http://www.w3.org/1999/xlink">
<g id="graph1" class="graph" transform="scale(1 1) rotate(0) translate(4 640)">
<title>G</title>
<polygon fill="white" stroke="white" points="-4,5 -4,-640 641,-640 641,5 -4,5"/>
<!-- Threada775700 -->
<g id="node1" class="node"><title>Threada775700</title>
<ellipse fill="none" stroke="black" cx="186" cy="-346" rx="116.88" ry="29.6985"/>
<text text-anchor="middle" x="186" y="-350.4" font-family="Times Roman,serif" font-size="14.00">Threada775700</text>
<text text-anchor="middle" x="186" y="-333.4" font-family="Times Roman,serif" font-size="14.00">handle_requests_loop</text>
</g>
<!-- Cond602b20 -->
<g id="node3" class="node"><title>Cond602b20</title>
<polygon fill="none" stroke="red" points="217.859,-139 44.6886,-139 0.140918,-55 173.311,-55 217.859,-139"/>
<text text-anchor="middle" x="109" y="-101.4" font-family="Times Roman,serif" font-size="14.00">Cond602b20</text>
<text text-anchor="middle" x="109" y="-84.4" font-family="Times Roman,serif" font-size="14.00">got_request</text>
</g>
<!-- Threada775700&#45;&gt;Cond602b20 -->
<g id="edge2" class="edge"><title>Threada775700&#45;&gt;Cond602b20</title>
<path fill="none" stroke="red" stroke-width="3" d="M176.865,-316.459C164.289,-275.79 141.42,-201.84 125.733,-151.111"/>
<polygon fill="none" stroke="red" points="125.653,-150.851 120.059,-146.301 122.108,-139.387 127.702,-143.938 125.653,-150.851"/>
</g>
<!-- Mutex602ae0 -->
<g id="node5" class="node"><title>Mutex602ae0</title>
<polygon fill="none" stroke="black" points="585.666,-139 444.334,-139 394,-55 636,-55 585.666,-139"/>
<text text-anchor="middle" x="515" y="-101.4" font-family="Times Roman,serif" font-size="14.00">Mutex602ae0</text>
<text text-anchor="middle" x="515" y="-84.4" font-family="Times Roman,serif" font-size="14.00">request_mutex</text>
</g>
<!-- Threada775700&#45;&gt;Mutex602ae0 -->
<g id="edge4" class="edge"><title>Threada775700&#45;&gt;Mutex602ae0</title>
<path fill="none" stroke="grey" stroke-width="3" d="M231.186,-311.802C290.663,-266.787 395.178,-187.686 459.427,-139.06"/>
<polygon fill="grey" stroke="grey" points="228.963,-309.095 223.101,-317.921 233.187,-314.676 228.963,-309.095"/>
</g>
<!-- Threada977700 -->
<g id="node6" class="node"><title>Threada977700</title>
<ellipse fill="none" stroke="black" cx="438" cy="-346" rx="116.88" ry="29.6985"/>
<text text-anchor="middle" x="438" y="-350.4" font-family="Times Roman,serif" font-size="14.00">Threada977700</text>
<text text-anchor="middle" x="438" y="-333.4" font-family="Times Roman,serif" font-size="14.00">handle_requests_loop</text>
</g>
<!-- Threada977700&#45;&gt;Cond602b20 -->
<g id="edge6" class="edge"><title>Threada977700&#45;&gt;Cond602b20</title>
<path fill="none" stroke="red" stroke-width="3" d="M400.899,-317.921C345.96,-276.34 242.171,-197.789 174.314,-146.432"/>
<polygon fill="none" stroke="red" points="174.142,-146.302 166.944,-145.871 164.573,-139.06 171.772,-139.492 174.142,-146.302"/>
</g>
<!-- Threada977700&#45;&gt;Mutex602ae0 -->
<g id="edge8" class="edge"><title>Threada977700&#45;&gt;Mutex602ae0</title>
<path fill="none" stroke="grey" stroke-width="3" d="M450.171,-306.641C464.269,-261.052 487.408,-186.226 501.892,-139.387"/>
<polygon fill="grey" stroke="grey" points="446.746,-305.871 447.135,-316.459 453.433,-307.939 446.746,-305.871"/>
</g>
<!-- Threada5742e0 -->
<g id="node9" class="node"><title>Threada5742e0</title>
<ellipse fill="none" stroke="black" cx="312" cy="-567" rx="89.8026" ry="29.6985"/>
<text text-anchor="middle" x="312" y="-571.4" font-family="Times Roman,serif" font-size="14.00">Threada5742e0</text>
<text text-anchor="middle" x="312" y="-554.4" font-family="Times Roman,serif" font-size="14.00">{root}</text>
</g>
<!-- Threada5742e0&#45;&gt;Threada775700 -->
<g id="edge14" class="edge"><title>Threada5742e0&#45;&gt;Threada775700</title>
<path fill="none" stroke="black" stroke-width="3" stroke-dasharray="1,5" d="M295.268,-537.653C272.769,-498.191 232.724,-427.953 207.864,-384.348"/>
<polygon fill="black" stroke="black" points="202.801,-375.468 211.663,-381.927 206.146,-379.317 208.623,-383.66 207.754,-384.156 206.885,-384.651 204.409,-380.307 203.845,-386.385 202.801,-375.468 202.801,-375.468"/>
</g>
<!-- Threada5742e0&#45;&gt;Cond602b20 -->
<g id="edge12" class="edge"><title>Threada5742e0&#45;&gt;Cond602b20</title>
<path fill="none" stroke="black" stroke-width="3" stroke-dasharray="1,5" d="M252.642,-544.731C189.167,-515.879 92.3413,-459.208 51,-376 14.4432,-302.422 46.4671,-206.058 75.6316,-147.983"/>
<polygon fill="black" stroke="black" points="80.2769,-139 79.6805,-149.95 78.8683,-143.901 76.5716,-148.342 75.6833,-147.883 74.7951,-147.423 77.0918,-142.982 71.6862,-145.816 80.2769,-139 80.2769,-139"/>
</g>
<!-- Threada5742e0&#45;&gt;Cond602b20 -->
<g id="edge18" class="edge"><title>Threada5742e0&#45;&gt;Cond602b20</title>
<path fill="none" stroke="green" stroke-width="3" stroke-dasharray="5,2" d="M260.979,-542.505C202.339,-513.016 109.303,-457.119 69,-376 32.8945,-303.33 63.6869,-208.434 87.7308,-150.151"/>
<polygon fill="green" stroke="green" points="87.7694,-150.059 86.4123,-142.977 92.4277,-139 93.7849,-146.082 87.7694,-150.059"/>
</g>
<!-- Threada5742e0&#45;&gt;Mutex602ae0 -->
<g id="edge10" class="edge"><title>Threada5742e0&#45;&gt;Mutex602ae0</title>
<path fill="none" stroke="black" stroke-width="3" stroke-dasharray="1,5" d="M363.021,-542.505C421.661,-513.016 514.697,-457.119 555,-376 591.482,-302.573 559.664,-206.454 535.52,-148.342"/>
<polygon fill="black" stroke="black" points="531.572,-139 539.61,-146.46 534.44,-143.216 536.386,-147.822 535.465,-148.211 534.544,-148.601 532.598,-143.995 531.32,-149.963 531.572,-139 531.572,-139"/>
</g>
<!-- Threada5742e0&#45;&gt;Mutex602ae0 -->
<g id="edge20" class="edge"><title>Threada5742e0&#45;&gt;Mutex602ae0</title>
<path fill="none" stroke="grey" stroke-width="3" d="M371.358,-544.731C434.833,-515.879 531.659,-459.208 573,-376 609.557,-302.422 577.533,-206.058 548.368,-147.983"/>
<polygon fill="grey" stroke="grey" points="551.426,-146.275 543.723,-139 545.208,-149.49 551.426,-146.275"/>
</g>
<!-- Threada5742e0&#45;&gt;Threada977700 -->
<g id="edge16" class="edge"><title>Threada5742e0&#45;&gt;Threada977700</title>
<path fill="none" stroke="black" stroke-width="3" stroke-dasharray="1,5" d="M328.732,-537.653C351.231,-498.191 391.276,-427.953 416.136,-384.348"/>
<polygon fill="black" stroke="black" points="421.199,-375.468 420.155,-386.385 419.591,-380.307 417.115,-384.651 416.246,-384.156 415.377,-383.66 417.854,-379.317 412.337,-381.927 421.199,-375.468 421.199,-375.468"/>
</g>
</g>
</svg>
