<?xml version="1.0" encoding="UTF-8" standalone="no"?>
<!DOCTYPE svg PUBLIC "-//W3C//DTD SVG 1.1//EN"
 "http://www.w3.org/Graphics/SVG/1.1/DTD/svg11.dtd">
<!-- Generated by graphviz version 2.26.3 (20100126.1600)
 -->
<!-- Title: G Pages: 1 -->
<svg width="990pt" height="990pt"
 viewBox="0.00 0.00 990.00 990.00" xmlns="http://www.w3.org/2000/svg" xmlns:xlink="http://www.w3.org/1999/xlink">
<g id="graph1" class="graph" transform="scale(1 1) rotate(0) translate(4 986)">
<title>G</title>
<polygon fill="white" stroke="white" points="-4,5 -4,-986 987,-986 987,5 -4,5"/>
<!-- Threadb3f16700 -->
<g id="node1" class="node"><title>Threadb3f16700</title>
<ellipse fill="none" stroke="black" cx="117" cy="-229" rx="116.88" ry="29.6985"/>
<text text-anchor="middle" x="117" y="-233.4" font-family="Times Roman,serif" font-size="14.00">Threadb3f16700</text>
<text text-anchor="middle" x="117" y="-216.4" font-family="Times Roman,serif" font-size="14.00">handle_requests_loop</text>
</g>
<!-- Threadb3d14700 -->
<g id="node2" class="node"><title>Threadb3d14700</title>
<ellipse fill="none" stroke="black" cx="369" cy="-229" rx="116.88" ry="29.6985"/>
<text text-anchor="middle" x="369" y="-233.4" font-family="Times Roman,serif" font-size="14.00">Threadb3d14700</text>
<text text-anchor="middle" x="369" y="-216.4" font-family="Times Roman,serif" font-size="14.00">handle_requests_loop</text>
</g>
<!-- Threadb3b132e0 -->
<g id="node3" class="node"><title>Threadb3b132e0</title>
<ellipse fill="none" stroke="black" cx="497" cy="-818" rx="94.9596" ry="29.6985"/>
<text text-anchor="middle" x="497" y="-822.4" font-family="Times Roman,serif" font-size="14.00">Threadb3b132e0</text>
<text text-anchor="middle" x="497" y="-805.4" font-family="Times Roman,serif" font-size="14.00">{root}</text>
</g>
<!-- Threadb3b132e0&#45;&gt;Threadb3f16700 -->
<g id="edge8" class="edge"><title>Threadb3b132e0&#45;&gt;Threadb3f16700</title>
<path fill="none" stroke="black" stroke-width="3" stroke-dasharray="1,5" d="M478.156,-788.791C415.166,-691.157 211.937,-376.152 141.392,-266.808"/>
<polygon fill="black" stroke="black" points="144.32,-264.89 135.958,-258.385 138.438,-268.685 144.32,-264.89"/>
</g>
<!-- Threadb3b132e0&#45;&gt;Threadb3d14700 -->
<g id="edge6" class="edge"><title>Threadb3b132e0&#45;&gt;Threadb3d14700</title>
<path fill="none" stroke="black" stroke-width="3" stroke-dasharray="1,5" d="M490.565,-788.388C469.373,-690.873 401.753,-379.717 377.643,-268.769"/>
<polygon fill="black" stroke="black" points="380.992,-267.7 375.448,-258.671 374.152,-269.186 380.992,-267.7"/>
</g>
<!-- Mutex602ae0 -->
<g id="node5" class="node"><title>Mutex602ae0</title>
<polygon fill="none" stroke="black" points="695.666,-271 554.334,-271 504,-187 746,-187 695.666,-271"/>
<text text-anchor="middle" x="625" y="-233.4" font-family="Times Roman,serif" font-size="14.00">Mutex602ae0</text>
<text text-anchor="middle" x="625" y="-216.4" font-family="Times Roman,serif" font-size="14.00">request_mutex</text>
</g>
<!-- Threadb3b132e0&#45;&gt;Mutex602ae0 -->
<g id="edge2" class="edge"><title>Threadb3b132e0&#45;&gt;Mutex602ae0</title>
<path fill="none" stroke="black" stroke-width="3" stroke-dasharray="1,5" d="M503.435,-788.388C523.878,-694.318 587.526,-401.437 613.643,-281.26"/>
<polygon fill="black" stroke="black" points="617.125,-281.717 615.829,-271.201 610.285,-280.23 617.125,-281.717"/>
</g>
<!-- Cond602b20 -->
<g id="node7" class="node"><title>Cond602b20</title>
<polygon fill="none" stroke="black" points="981.859,-271 808.689,-271 764.141,-187 937.311,-187 981.859,-271"/>
<text text-anchor="middle" x="873" y="-233.4" font-family="Times Roman,serif" font-size="14.00">Cond602b20</text>
<text text-anchor="middle" x="873" y="-216.4" font-family="Times Roman,serif" font-size="14.00">got_request</text>
</g>
<!-- Threadb3b132e0&#45;&gt;Cond602b20 -->
<g id="edge4" class="edge"><title>Threadb3b132e0&#45;&gt;Cond602b20</title>
<path fill="none" stroke="black" stroke-width="3" stroke-dasharray="1,5" d="M515.646,-788.791C575.64,-694.811 764.205,-399.426 840.49,-279.926"/>
<polygon fill="black" stroke="black" points="843.572,-281.603 846.003,-271.291 837.672,-277.837 843.572,-281.603"/>
</g>
</g>
</svg>
