<?xml version="1.0" encoding="UTF-8" standalone="no"?>
<!DOCTYPE svg PUBLIC "-//W3C//DTD SVG 1.1//EN"
 "http://www.w3.org/Graphics/SVG/1.1/DTD/svg11.dtd">
<!-- Generated by graphviz version 2.26.3 (20100126.1600)
 -->
<!-- Title: G Pages: 1 -->
<svg width="662pt" height="662pt"
 viewBox="0.00 0.00 662.00 662.00" xmlns="http://www.w3.org/2000/svg" xmlns:xlink="http://www.w3.org/1999/xlink">
<g id="graph1" class="graph" transform="scale(1 1) rotate(0) translate(4 658)">
<title>G</title>
<polygon fill="white" stroke="white" points="-4,5 -4,-658 659,-658 659,5 -4,5"/>
<!-- Threadb3f16700 -->
<g id="node1" class="node"><title>Threadb3f16700</title>
<ellipse fill="none" stroke="black" cx="229" cy="-355" rx="116.88" ry="29.6985"/>
<text text-anchor="middle" x="229" y="-359.4" font-family="Times Roman,serif" font-size="14.00">Threadb3f16700</text>
<text text-anchor="middle" x="229" y="-342.4" font-family="Times Roman,serif" font-size="14.00">handle_requests_loop</text>
</g>
<!-- Cond602b20 -->
<g id="node3" class="node"><title>Cond602b20</title>
<polygon fill="none" stroke="black" points="217.859,-142 44.6886,-142 0.140918,-58 173.311,-58 217.859,-142"/>
<text text-anchor="middle" x="109" y="-104.4" font-family="Times Roman,serif" font-size="14.00">Cond602b20</text>
<text text-anchor="middle" x="109" y="-87.4" font-family="Times Roman,serif" font-size="14.00">got_request</text>
</g>
<!-- Threadb3f16700&#45;&gt;Cond602b20 -->
<g id="edge2" class="edge"><title>Threadb3f16700&#45;&gt;Cond602b20</title>
<path fill="none" stroke="red" stroke-width="3" d="M215.117,-325.499C193.894,-280.4 153.287,-194.109 128.923,-142.336"/>
</g>
<!-- Mutex602ae0 -->
<g id="node5" class="node"><title>Mutex602ae0</title>
<polygon fill="none" stroke="black" points="453.666,-142 312.334,-142 262,-58 504,-58 453.666,-142"/>
<text text-anchor="middle" x="383" y="-104.4" font-family="Times Roman,serif" font-size="14.00">Mutex602ae0</text>
<text text-anchor="middle" x="383" y="-87.4" font-family="Times Roman,serif" font-size="14.00">request_mutex</text>
</g>
<!-- Threadb3f16700&#45;&gt;Mutex602ae0 -->
<g id="edge4" class="edge"><title>Threadb3f16700&#45;&gt;Mutex602ae0</title>
<path fill="none" stroke="grey" stroke-width="3" d="M251.867,-317.135C280.088,-270.406 327.942,-191.168 357.376,-142.43"/>
<polygon fill="grey" stroke="grey" points="248.839,-315.379 246.666,-325.748 254.831,-318.998 248.839,-315.379"/>
</g>
<!-- Threadb3d14700 -->
<g id="node6" class="node"><title>Threadb3d14700</title>
<ellipse fill="none" stroke="black" cx="537" cy="-355" rx="116.88" ry="29.6985"/>
<text text-anchor="middle" x="537" y="-359.4" font-family="Times Roman,serif" font-size="14.00">Threadb3d14700</text>
<text text-anchor="middle" x="537" y="-342.4" font-family="Times Roman,serif" font-size="14.00">handle_requests_loop</text>
</g>
<!-- Threadb3b132e0 -->
<g id="node7" class="node"><title>Threadb3b132e0</title>
<ellipse fill="none" stroke="black" cx="383" cy="-583" rx="94.9596" ry="29.6985"/>
<text text-anchor="middle" x="383" y="-587.4" font-family="Times Roman,serif" font-size="14.00">Threadb3b132e0</text>
<text text-anchor="middle" x="383" y="-570.4" font-family="Times Roman,serif" font-size="14.00">{root}</text>
</g>
<!-- Threadb3b132e0&#45;&gt;Threadb3f16700 -->
<g id="edge12" class="edge"><title>Threadb3b132e0&#45;&gt;Threadb3f16700</title>
<path fill="none" stroke="black" stroke-width="3" stroke-dasharray="1,5" d="M363.496,-554.124C335.819,-513.147 285.116,-438.081 254.492,-392.741"/>
<polygon fill="black" stroke="black" points="257.33,-390.69 248.832,-384.362 251.529,-394.608 257.33,-390.69"/>
</g>
<!-- Threadb3b132e0&#45;&gt;Cond602b20 -->
<g id="edge8" class="edge"><title>Threadb3b132e0&#45;&gt;Cond602b20</title>
<path fill="none" stroke="black" stroke-width="3" stroke-dasharray="1,5" d="M322.486,-560.255C254.881,-531.169 148.911,-473.696 103,-385 64.9344,-311.461 79.1909,-212.303 93.6357,-152.43"/>
<polygon fill="black" stroke="black" points="97.1018,-152.997 96.1344,-142.446 90.3112,-151.297 97.1018,-152.997"/>
</g>
<!-- Threadb3b132e0&#45;&gt;Mutex602ae0 -->
<g id="edge6" class="edge"><title>Threadb3b132e0&#45;&gt;Mutex602ae0</title>
<path fill="none" stroke="black" stroke-width="3" stroke-dasharray="1,5" d="M379.55,-553.513C375.487,-473.812 375.176,-253.291 378.618,-152.044"/>
<polygon fill="black" stroke="black" points="382.115,-152.167 378.985,-142.045 375.12,-151.91 382.115,-152.167"/>
</g>
<!-- Threadb3b132e0&#45;&gt;Mutex602ae0 -->
<g id="edge14" class="edge"><title>Threadb3b132e0&#45;&gt;Mutex602ae0</title>
<path fill="none" stroke="green" stroke-width="3" d="M386.913,-543.454C390.662,-453.518 390.695,-234.324 387.015,-142.045"/>
<polygon fill="green" stroke="green" points="383.413,-543.363 386.45,-553.513 390.406,-543.685 383.413,-543.363"/>
</g>
<!-- Threadb3b132e0&#45;&gt;Threadb3d14700 -->
<g id="edge10" class="edge"><title>Threadb3b132e0&#45;&gt;Threadb3d14700</title>
<path fill="none" stroke="black" stroke-width="3" stroke-dasharray="1,5" d="M402.504,-554.124C430.181,-513.147 480.884,-438.081 511.508,-392.741"/>
<polygon fill="black" stroke="black" points="514.471,-394.608 517.168,-384.362 508.67,-390.69 514.471,-394.608"/>
</g>
</g>
</svg>
