<?xml version="1.0" encoding="UTF-8" standalone="no"?>
<!DOCTYPE svg PUBLIC "-//W3C//DTD SVG 1.1//EN"
 "http://www.w3.org/Graphics/SVG/1.1/DTD/svg11.dtd">
<!-- Generated by graphviz version 2.26.3 (20100126.1600)
 -->
<!-- Title: G Pages: 1 -->
<svg width="644pt" height="644pt"
 viewBox="0.00 0.00 644.00 644.00" xmlns="http://www.w3.org/2000/svg" xmlns:xlink="http://www.w3.org/1999/xlink">
<g id="graph1" class="graph" transform="scale(1 1) rotate(0) translate(4 640)">
<title>G</title>
<polygon fill="white" stroke="white" points="-4,5 -4,-640 641,-640 641,5 -4,5"/>
<!-- Threada775700 -->
<g id="node1" class="node"><title>Threada775700</title>
<ellipse fill="none" stroke="lightgrey" cx="186" cy="-346" rx="116.88" ry="29.6985"/>
<text text-anchor="middle" x="186" y="-350.4" font-family="Times Roman,serif" font-size="14.00">Threada775700</text>
<text text-anchor="middle" x="186" y="-333.4" font-family="Times Roman,serif" font-size="14.00">handle_requests_loop</text>
</g>
<!-- Cond602b20 -->
<g id="node3" class="node"><title>Cond602b20</title>
<polygon fill="none" stroke="red" points="217.859,-139 44.6886,-139 0.140918,-55 173.311,-55 217.859,-139"/>
<text text-anchor="middle" x="109" y="-101.4" font-family="Times Roman,serif" font-size="14.00">Cond602b20</text>
<text text-anchor="middle" x="109" y="-84.4" font-family="Times Roman,serif" font-size="14.00">got_request</text>
</g>
<!-- Threada775700&#45;&gt;Cond602b20 -->
<g id="edge2" class="edge"><title>Threada775700&#45;&gt;Cond602b20</title>
<path fill="none" stroke="grey" stroke-width="3" d="M176.865,-316.459C164.289,-275.79 141.42,-201.84 125.733,-151.111"/>
<polygon fill="none" stroke="grey" points="125.653,-150.851 120.059,-146.301 122.108,-139.387 127.702,-143.938 125.653,-150.851"/>
</g>
<!-- Mutex602ae0 -->
<g id="node5" class="node"><title>Mutex602ae0</title>
<polygon fill="none" stroke="black" points="585.666,-139 444.334,-139 394,-55 636,-55 585.666,-139"/>
<text text-anchor="middle" x="515" y="-101.4" font-family="Times Roman,serif" font-size="14.00">Mutex602ae0</text>
<text text-anchor="middle" x="515" y="-84.4" font-family="Times Roman,serif" font-size="14.00">request_mutex</text>
</g>
<!-- Threada775700&#45;&gt;Mutex602ae0 -->
<g id="edge4" class="edge"><title>Threada775700&#45;&gt;Mutex602ae0</title>
<path fill="none" stroke="grey" stroke-width="3" d="M231.186,-311.802C290.663,-266.787 395.178,-187.686 459.427,-139.06"/>
<polygon fill="grey" stroke="grey" points="228.963,-309.095 223.101,-317.921 233.187,-314.676 228.963,-309.095"/>
</g>
<!-- Threada977700 -->
<g id="node6" class="node"><title>Threada977700</title>
<ellipse fill="none" stroke="black" cx="438" cy="-346" rx="116.88" ry="29.6985"/>
<text text-anchor="middle" x="438" y="-350.4" font-family="Times Roman,serif" font-size="14.00">Threada977700</text>
<text text-anchor="middle" x="438" y="-333.4" font-family="Times Roman,serif" font-size="14.00">handle_requests_loop</text>
</g>
<!-- Threada977700&#45;&gt;Cond602b20 -->
<g id="edge6" class="edge"><title>Threada977700&#45;&gt;Cond602b20</title>
<path fill="none" stroke="red" stroke-width="3" d="M400.899,-317.921C345.96,-276.34 242.171,-197.789 174.314,-146.432"/>
<polygon fill="none" stroke="red" points="174.142,-146.302 166.944,-145.871 164.573,-139.06 171.772,-139.492 174.142,-146.302"/>
</g>
<!-- Threada977700&#45;&gt;Mutex602ae0 -->
<g id="edge8" class="edge"><title>Threada977700&#45;&gt;Mutex602ae0</title>
<path fill="none" stroke="grey" stroke-width="3" d="M450.171,-306.641C464.269,-261.052 487.408,-186.226 501.892,-139.387"/>
<polygon fill="grey" stroke="grey" points="446.746,-305.871 447.135,-316.459 453.433,-307.939 446.746,-305.871"/>
</g>
<!-- Threada5742e0 -->
<g id="node9" class="node"><title>Threada5742e0</title>
<ellipse fill="none" stroke="black" cx="186" cy="-567" rx="89.8026" ry="29.6985"/>
<text text-anchor="middle" x="186" y="-571.4" font-family="Times Roman,serif" font-size="14.00">Threada5742e0</text>
<text text-anchor="middle" x="186" y="-554.4" font-family="Times Roman,serif" font-size="14.00">{root}</text>
</g>
<!-- Threada5742e0&#45;&gt;Threada775700 -->
<g id="edge14" class="edge"><title>Threada5742e0&#45;&gt;Threada775700</title>
<path fill="none" stroke="grey" stroke-width="3" stroke-dasharray="1,5" d="M181.211,-537.195C178.793,-498.12 178.611,-429.443 180.665,-385.91"/>
<polygon fill="grey" stroke="grey" points="181.219,-375.685 185.171,-385.914 181.947,-380.732 181.677,-385.724 180.678,-385.67 179.68,-385.616 179.95,-380.624 176.185,-385.427 181.219,-375.685 181.219,-375.685"/>
</g>
<!-- Threada5742e0&#45;&gt;Threada775700 -->
<g id="edge18" class="edge"><title>Threada5742e0&#45;&gt;Threada775700</title>
<path fill="none" stroke="grey" stroke-width="3" stroke-dasharray="5,2" d="M190.789,-537.195C193.248,-497.459 193.395,-427.111 191.229,-383.723"/>
<ellipse fill="grey" stroke="grey" cx="191.004" cy="-379.679" rx="4" ry="4"/>
</g>
<!-- Threada5742e0&#45;&gt;Cond602b20 -->
<g id="edge12" class="edge"><title>Threada5742e0&#45;&gt;Cond602b20</title>
<path fill="none" stroke="black" stroke-width="3" stroke-dasharray="1,5" d="M153.693,-539.331C120.186,-504.427 70.5273,-441.063 51,-376 27.7467,-298.523 54.6032,-205.427 79.1637,-148.768"/>
<polygon fill="black" stroke="black" points="83.393,-139.311 83.4185,-150.277 82.2647,-144.284 80.2235,-148.848 79.3106,-148.44 78.3977,-148.032 80.4389,-143.467 75.2026,-146.603 83.393,-139.311 83.393,-139.311"/>
</g>
<!-- Threada5742e0&#45;&gt;Cond602b20 -->
<g id="edge20" class="edge"><title>Threada5742e0&#45;&gt;Cond602b20</title>
<path fill="none" stroke="green" stroke-width="3" stroke-dasharray="5,2" d="M165.332,-538.095C137.029,-502.944 88.299,-440.302 69,-376 46.0349,-299.483 71.9451,-207.733 91.6502,-150.892"/>
<polygon fill="green" stroke="green" points="91.7442,-150.626 89.971,-143.636 95.741,-139.311 97.5143,-146.301 91.7442,-150.626"/>
</g>
<!-- Threada5742e0&#45;&gt;Mutex602ae0 -->
<g id="edge22" class="edge"><title>Threada5742e0&#45;&gt;Mutex602ae0</title>
<path fill="none" stroke="grey" stroke-width="3" d="M262.654,-551.424C350.676,-529.557 490.955,-480.118 555,-376 598.291,-305.622 563.653,-207.45 537.273,-148.279"/>
<polygon fill="grey" stroke="grey" points="540.44,-146.79 533.123,-139.128 534.065,-149.68 540.44,-146.79"/>
</g>
<!-- Threada5742e0&#45;&gt;Mutex602ae0 -->
<g id="edge10" class="edge"><title>Threada5742e0&#45;&gt;Mutex602ae0</title>
<path fill="none" stroke="black" stroke-width="3" stroke-dasharray="1,5" d="M266.254,-553.596C358.882,-532.911 506.74,-483.719 573,-376 616.38,-305.478 581.51,-207.046 549.99,-147.914"/>
<polygon fill="black" stroke="black" points="545.174,-139.128 553.927,-145.733 548.454,-143.031 550.857,-147.416 549.98,-147.896 549.104,-148.377 546.7,-143.993 546.034,-150.06 545.174,-139.128 545.174,-139.128"/>
</g>
<!-- Threada5742e0&#45;&gt;Threada977700 -->
<g id="edge16" class="edge"><title>Threada5742e0&#45;&gt;Threada977700</title>
<path fill="none" stroke="black" stroke-width="3" stroke-dasharray="1,5" d="M217.661,-539.234C263.335,-499.178 347.707,-425.185 397.748,-381.301"/>
<polygon fill="black" stroke="black" points="405.473,-374.526 400.921,-384.503 402.373,-378.574 398.614,-381.871 397.954,-381.119 397.295,-380.368 401.054,-377.071 394.987,-377.736 405.473,-374.526 405.473,-374.526"/>
</g>
</g>
</svg>
