<?xml version="1.0" encoding="UTF-8" standalone="no"?>
<!DOCTYPE svg PUBLIC "-//W3C//DTD SVG 1.1//EN"
 "http://www.w3.org/Graphics/SVG/1.1/DTD/svg11.dtd">
<!-- Generated by graphviz version 2.26.3 (20100126.1600)
 -->
<!-- Title: G Pages: 1 -->
<svg width="474pt" height="474pt"
 viewBox="0.00 0.00 474.00 474.00" xmlns="http://www.w3.org/2000/svg" xmlns:xlink="http://www.w3.org/1999/xlink">
<g id="graph1" class="graph" transform="scale(1 1) rotate(0) translate(4 470)">
<title>G</title>
<polygon fill="white" stroke="white" points="-4,5 -4,-470 471,-470 471,5 -4,5"/>
<!-- Thread1 -->
<g id="node1" class="node"><title>Thread1</title>
<ellipse fill="none" stroke="black" cx="204" cy="-419" rx="51.8276" ry="29.6985"/>
<text text-anchor="middle" x="204" y="-423.4" font-family="Times Roman,serif" font-size="14.00">Thread1</text>
<text text-anchor="middle" x="204" y="-406.4" font-family="Times Roman,serif" font-size="14.00">{root}</text>
</g>
<!-- Thread2 -->
<g id="node3" class="node"><title>Thread2</title>
<ellipse fill="none" stroke="black" cx="88" cy="-252" rx="87.889" ry="29.6985"/>
<text text-anchor="middle" x="88" y="-256.4" font-family="Times Roman,serif" font-size="14.00">Thread2</text>
<text text-anchor="middle" x="88" y="-239.4" font-family="Times Roman,serif" font-size="14.00">{start_routine}</text>
</g>
<!-- Thread1&#45;&gt;Thread2 -->
<g id="edge2" class="edge"><title>Thread1&#45;&gt;Thread2</title>
<path fill="none" stroke="black" stroke-width="3" stroke-dasharray="1,5" d="M184.845,-391.423C165.434,-363.479 135.281,-320.069 113.78,-289.115"/>
<polygon fill="black" stroke="black" points="116.541,-286.954 107.962,-280.738 110.792,-290.948 116.541,-286.954"/>
</g>
<!-- Mutex1 -->
<g id="node5" class="node"><title>Mutex1</title>
<polygon fill="none" stroke="black" points="219.002,-107 72.9979,-107 21,-23 271,-23 219.002,-107"/>
<text text-anchor="middle" x="146" y="-69.4" font-family="Times Roman,serif" font-size="14.00">Mutex1</text>
<text text-anchor="middle" x="146" y="-52.4" font-family="Times Roman,serif" font-size="14.00">{mutex_name}</text>
</g>
<!-- Thread1&#45;&gt;Mutex1 -->
<g id="edge4" class="edge"><title>Thread1&#45;&gt;Mutex1</title>
<path fill="none" stroke="black" stroke-width="3" stroke-dasharray="1,5" d="M202.912,-389.367C201.053,-348.666 196.304,-273.305 185,-210 179.409,-178.688 170.288,-144.284 162.272,-116.849"/>
<polygon fill="black" stroke="black" points="165.573,-115.67 159.377,-107.076 158.861,-117.658 165.573,-115.67"/>
</g>
<!-- Cond1 -->
<g id="node7" class="node"><title>Cond1</title>
<polygon fill="none" stroke="black" points="466.153,-294 279.789,-294 231.847,-210 418.211,-210 466.153,-294"/>
<text text-anchor="middle" x="349" y="-256.4" font-family="Times Roman,serif" font-size="14.00">Cond1</text>
<text text-anchor="middle" x="349" y="-239.4" font-family="Times Roman,serif" font-size="14.00">{cond_name}</text>
</g>
<!-- Thread1&#45;&gt;Cond1 -->
<g id="edge6" class="edge"><title>Thread1&#45;&gt;Cond1</title>
<path fill="none" stroke="black" stroke-width="3" stroke-dasharray="1,5" d="M227.297,-392.169C248.388,-367.877 279.998,-331.472 305.717,-301.851"/>
<polygon fill="black" stroke="black" points="308.545,-303.931 312.459,-294.086 303.26,-299.342 308.545,-303.931"/>
</g>
<!-- Thread2&#45;&gt;Mutex1 -->
<g id="edge8" class="edge"><title>Thread2&#45;&gt;Mutex1</title>
<path fill="none" stroke="green" stroke-width="3" d="M100.167,-212.771C109.773,-181.8 123.148,-138.677 132.971,-107.008"/>
<polygon fill="green" stroke="green" points="96.8098,-211.781 97.1903,-222.369 103.496,-213.855 96.8098,-211.781"/>
</g>
</g>
</svg>
