<?xml version="1.0" encoding="UTF-8" standalone="no"?>
<!DOCTYPE svg PUBLIC "-//W3C//DTD SVG 1.1//EN"
 "http://www.w3.org/Graphics/SVG/1.1/DTD/svg11.dtd">
<!-- Generated by graphviz version 2.26.3 (20100126.1600)
 -->
<!-- Title: G Pages: 1 -->
<svg width="452pt" height="452pt"
 viewBox="0.00 0.00 452.00 452.00" xmlns="http://www.w3.org/2000/svg" xmlns:xlink="http://www.w3.org/1999/xlink">
<g id="graph1" class="graph" transform="scale(1 1) rotate(0) translate(4 448)">
<title>G</title>
<polygon fill="white" stroke="white" points="-4,5 -4,-448 449,-448 449,5 -4,5"/>
<!-- Thread1 -->
<g id="node1" class="node"><title>Thread1</title>
<ellipse fill="none" stroke="black" cx="203" cy="-370" rx="51.8276" ry="29.6985"/>
<text text-anchor="middle" x="203" y="-374.4" font-family="Times Roman,serif" font-size="14.00">Thread1</text>
<text text-anchor="middle" x="203" y="-357.4" font-family="Times Roman,serif" font-size="14.00">{root}</text>
</g>
<!-- Thread2 -->
<g id="node3" class="node"><title>Thread2</title>
<ellipse fill="none" stroke="black" cx="88" cy="-104" rx="87.889" ry="29.6985"/>
<text text-anchor="middle" x="88" y="-108.4" font-family="Times Roman,serif" font-size="14.00">Thread2</text>
<text text-anchor="middle" x="88" y="-91.4" font-family="Times Roman,serif" font-size="14.00">{start_routine}</text>
</g>
<!-- Thread1&#45;&gt;Thread2 -->
<g id="edge2" class="edge"><title>Thread1&#45;&gt;Thread2</title>
<path fill="none" stroke="black" stroke-width="3" stroke-dasharray="1,5" d="M190.584,-341.281C169.819,-293.25 128.031,-196.594 104.707,-142.644"/>
<polygon fill="black" stroke="black" points="107.895,-141.199 100.714,-133.409 101.47,-143.976 107.895,-141.199"/>
</g>
<!-- Mutex1 -->
<g id="node5" class="node"><title>Mutex1</title>
<polygon fill="none" stroke="black" points="392.002,-146 245.998,-146 194,-62 444,-62 392.002,-146"/>
<text text-anchor="middle" x="319" y="-108.4" font-family="Times Roman,serif" font-size="14.00">Mutex1</text>
<text text-anchor="middle" x="319" y="-91.4" font-family="Times Roman,serif" font-size="14.00">{mutex_name}</text>
</g>
<!-- Thread1&#45;&gt;Mutex1 -->
<g id="edge4" class="edge"><title>Thread1&#45;&gt;Mutex1</title>
<path fill="none" stroke="black" stroke-width="3" stroke-dasharray="1,5" d="M215.524,-341.281C234.907,-296.833 272.449,-210.745 296.587,-155.394"/>
<polygon fill="black" stroke="black" points="299.847,-156.676 300.636,-146.111 293.43,-153.878 299.847,-156.676"/>
</g>
</g>
</svg>
