<?xml version="1.0" encoding="UTF-8" standalone="no"?>
<!DOCTYPE svg PUBLIC "-//W3C//DTD SVG 1.1//EN"
 "http://www.w3.org/Graphics/SVG/1.1/DTD/svg11.dtd">
<!-- Generated by graphviz version 2.26.3 (20100126.1600)
 -->
<!-- Title: G Pages: 1 -->
<svg width="346pt" height="346pt"
 viewBox="0.00 0.00 346.00 346.00" xmlns="http://www.w3.org/2000/svg" xmlns:xlink="http://www.w3.org/1999/xlink">
<g id="graph1" class="graph" transform="scale(1 1) rotate(0) translate(4 342)">
<title>G</title>
<polygon fill="white" stroke="white" points="-4,5 -4,-342 343,-342 343,5 -4,5"/>
<!-- Thread1 -->
<g id="node1" class="node"><title>Thread1</title>
<ellipse fill="none" stroke="black" cx="213" cy="-301" rx="51.8276" ry="29.6985"/>
<text text-anchor="middle" x="213" y="-305.4" font-family="Times Roman,serif" font-size="14.00">Thread1</text>
<text text-anchor="middle" x="213" y="-288.4" font-family="Times Roman,serif" font-size="14.00">{root}</text>
</g>
<!-- Thread2 -->
<g id="node3" class="node"><title>Thread2</title>
<ellipse fill="none" stroke="black" cx="88" cy="-184" rx="87.889" ry="29.6985"/>
<text text-anchor="middle" x="88" y="-188.4" font-family="Times Roman,serif" font-size="14.00">Thread2</text>
<text text-anchor="middle" x="88" y="-171.4" font-family="Times Roman,serif" font-size="14.00">{start_routine}</text>
</g>
<!-- Thread1&#45;&gt;Thread2 -->
<g id="edge2" class="edge"><title>Thread1&#45;&gt;Thread2</title>
<path fill="none" stroke="black" stroke-width="3" stroke-dasharray="1,5" d="M185.877,-275.613C168.128,-259 144.703,-237.074 125.22,-218.838"/>
<polygon fill="black" stroke="black" points="127.385,-216.071 117.693,-211.792 122.602,-221.181 127.385,-216.071"/>
</g>
<!-- Mutex1 -->
<g id="node5" class="node"><title>Mutex1</title>
<polygon fill="none" stroke="black" points="286.002,-93 139.998,-93 88,-9 338,-9 286.002,-93"/>
<text text-anchor="middle" x="213" y="-55.4" font-family="Times Roman,serif" font-size="14.00">Mutex1</text>
<text text-anchor="middle" x="213" y="-38.4" font-family="Times Roman,serif" font-size="14.00">{mutex_name}</text>
</g>
<!-- Thread1&#45;&gt;Mutex1 -->
<g id="edge4" class="edge"><title>Thread1&#45;&gt;Mutex1</title>
<path fill="none" stroke="black" stroke-width="3" stroke-dasharray="1,5" d="M208.445,-271.34C205.927,-229.957 205.575,-154.248 207.39,-103.276"/>
<polygon fill="black" stroke="black" points="210.894,-103.245 207.796,-93.1132 203.9,-102.965 210.894,-103.245"/>
</g>
<!-- Thread1&#45;&gt;Mutex1 -->
<g id="edge6" class="edge"><title>Thread1&#45;&gt;Mutex1</title>
<path fill="none" stroke="green" stroke-width="3" d="M217.555,-271.34C220.073,-229.957 220.425,-154.248 218.61,-103.276"/>
<polygon fill="green" stroke="green" points="222.1,-102.965 218.204,-93.1132 215.106,-103.245 222.1,-102.965"/>
</g>
<!-- Thread2&#45;&gt;Mutex1 -->
<g id="edge8" class="edge"><title>Thread2&#45;&gt;Mutex1</title>
<path fill="none" stroke="red" stroke-width="3" d="M114.509,-155.794C129.63,-139.706 149.014,-119.081 166.58,-100.391"/>
<polygon fill="red" stroke="red" points="169.167,-102.749 173.465,-93.0649 164.066,-97.9548 169.167,-102.749"/>
</g>
</g>
</svg>
