<?xml version="1.0" encoding="UTF-8" standalone="no"?>
<!DOCTYPE svg PUBLIC "-//W3C//DTD SVG 1.1//EN"
 "http://www.w3.org/Graphics/SVG/1.1/DTD/svg11.dtd">
<!-- Generated by graphviz version 2.26.3 (20100126.1600)
 -->
<!-- Title: G Pages: 1 -->
<svg width="452pt" height="452pt"
 viewBox="0.00 0.00 452.00 452.00" xmlns="http://www.w3.org/2000/svg" xmlns:xlink="http://www.w3.org/1999/xlink">
<g id="graph1" class="graph" transform="scale(1 1) rotate(0) translate(4 448)">
<title>G</title>
<polygon fill="white" stroke="white" points="-4,5 -4,-448 449,-448 449,5 -4,5"/>
<!-- Thread1 -->
<g id="node1" class="node"><title>Thread1</title>
<ellipse fill="none" stroke="black" cx="319" cy="-370" rx="51.8276" ry="29.6985"/>
<text text-anchor="middle" x="319" y="-374.4" font-family="Times Roman,serif" font-size="14.00">Thread1</text>
<text text-anchor="middle" x="319" y="-357.4" font-family="Times Roman,serif" font-size="14.00">{root}</text>
</g>
<!-- Thread2 -->
<g id="node3" class="node"><title>Thread2</title>
<ellipse fill="none" stroke="black" cx="88" cy="-104" rx="87.889" ry="29.6985"/>
<text text-anchor="middle" x="88" y="-108.4" font-family="Times Roman,serif" font-size="14.00">Thread2</text>
<text text-anchor="middle" x="88" y="-91.4" font-family="Times Roman,serif" font-size="14.00">{start_routine}</text>
</g>
<!-- Thread1&#45;&gt;Thread2 -->
<g id="edge2" class="edge"><title>Thread1&#45;&gt;Thread2</title>
<path fill="none" stroke="black" stroke-width="3" stroke-dasharray="1,5" d="M296.006,-343.522C254.348,-295.552 166.354,-194.226 119.274,-140.013"/>
<polygon fill="black" stroke="black" points="121.835,-137.624 112.636,-132.368 116.55,-142.213 121.835,-137.624"/>
</g>
<!-- Mutex1 -->
<g id="node5" class="node"><title>Mutex1</title>
<polygon fill="none" stroke="black" points="392.002,-146 245.998,-146 194,-62 444,-62 392.002,-146"/>
<text text-anchor="middle" x="319" y="-108.4" font-family="Times Roman,serif" font-size="14.00">Mutex1</text>
<text text-anchor="middle" x="319" y="-91.4" font-family="Times Roman,serif" font-size="14.00">{mutex_name}</text>
</g>
<!-- Thread1&#45;&gt;Mutex1 -->
<g id="edge4" class="edge"><title>Thread1&#45;&gt;Mutex1</title>
<path fill="none" stroke="black" stroke-width="3" stroke-dasharray="1,5" d="M314.567,-340.517C311.89,-296.167 311.532,-211.629 313.496,-156.559"/>
<polygon fill="black" stroke="black" points="317.004,-156.429 313.905,-146.298 310.009,-156.151 317.004,-156.429"/>
</g>
<!-- Thread1&#45;&gt;Mutex1 -->
<g id="edge6" class="edge"><title>Thread1&#45;&gt;Mutex1</title>
<path fill="none" stroke="green" stroke-width="3" d="M323.98,-330.224C326.301,-280.809 326.339,-196.855 324.095,-146.298"/>
<polygon fill="green" stroke="green" points="320.469,-330.345 323.433,-340.517 327.459,-330.717 320.469,-330.345"/>
</g>
</g>
</svg>
