<?xml version="1.0" encoding="UTF-8" standalone="no"?>
<!DOCTYPE svg PUBLIC "-//W3C//DTD SVG 1.1//EN"
 "http://www.w3.org/Graphics/SVG/1.1/DTD/svg11.dtd">
<!-- Generated by graphviz version 2.26.3 (20100126.1600)
 -->
<!-- Title: G Pages: 1 -->
<svg width="184pt" height="184pt"
 viewBox="0.00 0.00 184.00 184.00" xmlns="http://www.w3.org/2000/svg" xmlns:xlink="http://www.w3.org/1999/xlink">
<g id="graph1" class="graph" transform="scale(1 1) rotate(0) translate(4 180)">
<title>G</title>
<polygon fill="white" stroke="white" points="-4,5 -4,-180 181,-180 181,5 -4,5"/>
<!-- Thread1 -->
<g id="node1" class="node"><title>Thread1</title>
<ellipse fill="none" stroke="black" cx="88" cy="-142" rx="51.8276" ry="29.6985"/>
<text text-anchor="middle" x="88" y="-146.4" font-family="Times Roman,serif" font-size="14.00">Thread1</text>
<text text-anchor="middle" x="88" y="-129.4" font-family="Times Roman,serif" font-size="14.00">{root}</text>
</g>
<!-- Thread2 -->
<g id="node3" class="node"><title>Thread2</title>
<ellipse fill="none" stroke="black" cx="88" cy="-34" rx="87.889" ry="29.6985"/>
<text text-anchor="middle" x="88" y="-38.4" font-family="Times Roman,serif" font-size="14.00">Thread2</text>
<text text-anchor="middle" x="88" y="-21.4" font-family="Times Roman,serif" font-size="14.00">{start_routine}</text>
</g>
<!-- Thread1&#45;&gt;Thread2 -->
<g id="edge2" class="edge"><title>Thread1&#45;&gt;Thread2</title>
<path fill="none" stroke="black" stroke-width="3" stroke-dasharray="1,5" d="M81.9092,-112.489C81.2151,-100.464 81.0692,-86.3843 81.4713,-73.4952"/>
<polygon fill="black" stroke="black" points="84.9691,-73.6197 81.9112,-63.4758 77.9758,-73.3126 84.9691,-73.6197"/>
</g>
<!-- Thread1&#45;&gt;Thread2 -->
<g id="edge4" class="edge"><title>Thread1&#45;&gt;Thread2</title>
<path fill="none" stroke="red" stroke-width="3" d="M94.0908,-112.489C94.8192,-99.8688 94.944,-84.9852 94.465,-71.5902"/>
<ellipse fill="none" stroke="red" cx="94.2741" cy="-67.4715" rx="4" ry="4"/>
</g>
</g>
</svg>
