<?xml version="1.0" encoding="UTF-8" standalone="no"?>
<!DOCTYPE svg PUBLIC "-//W3C//DTD SVG 1.1//EN"
 "http://www.w3.org/Graphics/SVG/1.1/DTD/svg11.dtd">
<!-- Generated by graphviz version 2.26.3 (20100126.1600)
 -->
<!-- Title: G Pages: 1 -->
<svg width="510pt" height="510pt"
 viewBox="0.00 0.00 510.00 510.00" xmlns="http://www.w3.org/2000/svg" xmlns:xlink="http://www.w3.org/1999/xlink">
<g id="graph1" class="graph" transform="scale(1 1) rotate(0) translate(4 506)">
<title>G</title>
<polygon fill="white" stroke="white" points="-4,5 -4,-506 507,-506 507,5 -4,5"/>
<!-- Thread1 -->
<g id="node1" class="node"><title>Thread1</title>
<ellipse fill="none" stroke="black" cx="251" cy="-447" rx="51.8276" ry="29.6985"/>
<text text-anchor="middle" x="251" y="-451.4" font-family="Times Roman,serif" font-size="14.00">Thread1</text>
<text text-anchor="middle" x="251" y="-434.4" font-family="Times Roman,serif" font-size="14.00">{root}</text>
</g>
<!-- Thread2 -->
<g id="node3" class="node"><title>Thread2</title>
<ellipse fill="none" stroke="black" cx="251" cy="-273" rx="87.889" ry="29.6985"/>
<text text-anchor="middle" x="251" y="-277.4" font-family="Times Roman,serif" font-size="14.00">Thread2</text>
<text text-anchor="middle" x="251" y="-260.4" font-family="Times Roman,serif" font-size="14.00">{start_routine}</text>
</g>
<!-- Thread1&#45;&gt;Thread2 -->
<g id="edge2" class="edge"><title>Thread1&#45;&gt;Thread2</title>
<path fill="none" stroke="black" stroke-width="3" stroke-dasharray="1,5" d="M251,-417.483C251,-388.736 251,-344.834 251,-312.968"/>
<polygon fill="black" stroke="black" points="254.5,-312.661 251,-302.662 247.5,-312.662 254.5,-312.661"/>
</g>
<!-- Mutex1 -->
<g id="node5" class="node"><title>Mutex1</title>
<polygon fill="none" stroke="black" points="198.002,-118 51.9979,-118 4.26326e-14,-34 250,-34 198.002,-118"/>
<text text-anchor="middle" x="125" y="-80.4" font-family="Times Roman,serif" font-size="14.00">Mutex1</text>
<text text-anchor="middle" x="125" y="-63.4" font-family="Times Roman,serif" font-size="14.00">{mutex_name}</text>
</g>
<!-- Thread1&#45;&gt;Mutex1 -->
<g id="edge4" class="edge"><title>Thread1&#45;&gt;Mutex1</title>
<path fill="none" stroke="black" stroke-width="3" stroke-dasharray="1,5" d="M227.475,-420.48C204.631,-393.104 170.987,-348.138 154,-303 132.535,-245.96 126.381,-175.773 124.897,-128.674"/>
<polygon fill="black" stroke="black" points="128.389,-128.308 124.636,-118.4 121.391,-128.486 128.389,-128.308"/>
</g>
<!-- Cond1 -->
<g id="node7" class="node"><title>Cond1</title>
<polygon fill="none" stroke="black" points="502.153,-118 315.789,-118 267.847,-34 454.211,-34 502.153,-118"/>
<text text-anchor="middle" x="385" y="-80.4" font-family="Times Roman,serif" font-size="14.00">Cond1</text>
<text text-anchor="middle" x="385" y="-63.4" font-family="Times Roman,serif" font-size="14.00">{cond_name}</text>
</g>
<!-- Thread1&#45;&gt;Cond1 -->
<g id="edge6" class="edge"><title>Thread1&#45;&gt;Cond1</title>
<path fill="none" stroke="black" stroke-width="3" stroke-dasharray="1,5" d="M274.198,-420.354C296.787,-392.879 330.237,-347.838 348,-303 370.675,-245.761 379.458,-175.126 382.858,-127.995"/>
<polygon fill="black" stroke="black" points="386.35,-128.225 383.522,-118.015 379.366,-127.76 386.35,-128.225"/>
</g>
<!-- Thread2&#45;&gt;Mutex1 -->
<g id="edge8" class="edge"><title>Thread2&#45;&gt;Mutex1</title>
<path fill="none" stroke="grey" stroke-width="3" d="M226.923,-235.356C205.533,-201.913 174.3,-153.081 152.054,-118.299"/>
<polygon fill="grey" stroke="grey" points="224.072,-237.394 232.408,-243.932 229.969,-233.622 224.072,-237.394"/>
</g>
<!-- Thread2&#45;&gt;Cond1 -->
<g id="edge10" class="edge"><title>Thread2&#45;&gt;Cond1</title>
<path fill="none" stroke="red" stroke-width="3" d="M270.772,-243.932C291.666,-213.215 325.026,-164.171 350.313,-126.996"/>
<polygon fill="red" stroke="red" points="353.498,-128.536 356.228,-118.299 347.71,-124.599 353.498,-128.536"/>
</g>
</g>
</svg>
