<?xml version="1.0" encoding="UTF-8" standalone="no"?>
<!DOCTYPE svg PUBLIC "-//W3C//DTD SVG 1.1//EN"
 "http://www.w3.org/Graphics/SVG/1.1/DTD/svg11.dtd">
<!-- Generated by graphviz version 2.26.3 (20100126.1600)
 -->
<!-- Title: G Pages: 1 -->
<svg width="510pt" height="510pt"
 viewBox="0.00 0.00 510.00 510.00" xmlns="http://www.w3.org/2000/svg" xmlns:xlink="http://www.w3.org/1999/xlink">
<g id="graph1" class="graph" transform="scale(1 1) rotate(0) translate(4 506)">
<title>G</title>
<polygon fill="white" stroke="white" points="-4,5 -4,-506 507,-506 507,5 -4,5"/>
<!-- Thread1 -->
<g id="node1" class="node"><title>Thread1</title>
<ellipse fill="none" stroke="black" cx="322" cy="-447" rx="51.8276" ry="29.6985"/>
<text text-anchor="middle" x="322" y="-451.4" font-family="Times Roman,serif" font-size="14.00">Thread1</text>
<text text-anchor="middle" x="322" y="-434.4" font-family="Times Roman,serif" font-size="14.00">{root}</text>
</g>
<!-- Thread2 -->
<g id="node3" class="node"><title>Thread2</title>
<ellipse fill="none" stroke="black" cx="260" cy="-273" rx="87.889" ry="29.6985"/>
<text text-anchor="middle" x="260" y="-277.4" font-family="Times Roman,serif" font-size="14.00">Thread2</text>
<text text-anchor="middle" x="260" y="-260.4" font-family="Times Roman,serif" font-size="14.00">{start_routine}</text>
</g>
<!-- Thread1&#45;&gt;Thread2 -->
<g id="edge2" class="edge"><title>Thread1&#45;&gt;Thread2</title>
<path fill="none" stroke="black" stroke-width="3" stroke-dasharray="1,5" d="M311.623,-417.876C301.282,-388.856 285.338,-344.111 273.907,-312.029"/>
<polygon fill="black" stroke="black" points="277.169,-310.755 270.515,-302.51 270.575,-313.104 277.169,-310.755"/>
</g>
<!-- Mutex1 -->
<g id="node5" class="node"><title>Mutex1</title>
<polygon fill="none" stroke="black" points="198.002,-118 51.9979,-118 4.26326e-14,-34 250,-34 198.002,-118"/>
<text text-anchor="middle" x="125" y="-80.4" font-family="Times Roman,serif" font-size="14.00">Mutex1</text>
<text text-anchor="middle" x="125" y="-63.4" font-family="Times Roman,serif" font-size="14.00">{mutex_name}</text>
</g>
<!-- Thread1&#45;&gt;Mutex1 -->
<g id="edge4" class="edge"><title>Thread1&#45;&gt;Mutex1</title>
<path fill="none" stroke="black" stroke-width="3" stroke-dasharray="1,5" d="M286.508,-425.338C249.314,-400.615 192.302,-356.59 163,-303 133.175,-248.453 125.567,-176.363 124.187,-128.201"/>
<polygon fill="black" stroke="black" points="127.682,-127.928 123.977,-118.002 120.683,-128.072 127.682,-127.928"/>
</g>
<!-- Cond1 -->
<g id="node7" class="node"><title>Cond1</title>
<polygon fill="none" stroke="black" points="502.153,-118 315.789,-118 267.847,-34 454.211,-34 502.153,-118"/>
<text text-anchor="middle" x="385" y="-80.4" font-family="Times Roman,serif" font-size="14.00">Cond1</text>
<text text-anchor="middle" x="385" y="-63.4" font-family="Times Roman,serif" font-size="14.00">{cond_name}</text>
</g>
<!-- Thread1&#45;&gt;Cond1 -->
<g id="edge6" class="edge"><title>Thread1&#45;&gt;Cond1</title>
<path fill="none" stroke="black" stroke-width="3" stroke-dasharray="1,5" d="M323.367,-417.43C329.078,-388.469 340.699,-342.989 348,-303 358.874,-243.442 366.727,-174.306 373.202,-128.128"/>
<polygon fill="black" stroke="black" points="376.691,-128.455 374.648,-118.058 369.762,-127.459 376.691,-128.455"/>
</g>
<!-- Thread1&#45;&gt;Cond1 -->
<g id="edge8" class="edge"><title>Thread1&#45;&gt;Cond1</title>
<path fill="none" stroke="grey" stroke-width="3" stroke-dasharray="5,2" d="M336.758,-418.521C346.783,-389.621 358.607,-343.495 366,-303 376.874,-243.442 384.727,-174.306 387.399,-128.128"/>
<polygon fill="grey" stroke="grey" points="390.899,-128.225 387.916,-118.058 383.908,-127.866 390.899,-128.225"/>
</g>
<!-- Thread2&#45;&gt;Mutex1 -->
<g id="edge10" class="edge"><title>Thread2&#45;&gt;Mutex1</title>
<path fill="none" stroke="green" stroke-width="3" d="M234.203,-235.356C211.286,-201.913 177.822,-153.081 153.987,-118.299"/>
<polygon fill="green" stroke="green" points="231.54,-237.662 240.08,-243.932 237.315,-233.704 231.54,-237.662"/>
</g>
<!-- Thread2&#45;&gt;Cond1 -->
<g id="edge12" class="edge"><title>Thread2&#45;&gt;Cond1</title>
<path fill="none" stroke="grey" stroke-width="3" d="M283.886,-235.356C305.106,-201.913 336.091,-153.081 358.16,-118.299"/>
<polygon fill="grey" stroke="grey" points="280.847,-233.613 278.444,-243.932 286.757,-237.363 280.847,-233.613"/>
</g>
</g>
</svg>
